/* XPM */
static char *result[] = {
/* columns rows colors chars-per-pixel */
"75 75 225 2 ",
"   c #04353C",
".  c #0C373C",
"X  c #01393E",
"o  c #0D383E",
"O  c #13373C",
"+  c #123B3F",
"@  c #1A383D",
"#  c #253D3F",
"$  c #175338",
"%  c #2A513D",
"&  c #39583D",
"*  c #276535",
"=  c #3B6637",
"-  c #4F543C",
";  c #63543D",
":  c #476D37",
">  c #587D37",
",  c #667A38",
"<  c #002843",
"1  c #033745",
"2  c #003C43",
"3  c #163E41",
"4  c #1A3E41",
"5  c #303D44",
"6  c #014444",
"7  c #0C4443",
"8  c #004B41",
"9  c #154242",
"0  c #1E4645",
"q  c #1F4846",
"w  c #214745",
"e  c #284645",
"r  c #224845",
"t  c #2D4945",
"y  c #2A4748",
"u  c #264A49",
"i  c #2B4C4A",
"p  c #334A46",
"a  c #324D4C",
"s  c #3A4C48",
"d  c #2B514D",
"f  c #395447",
"g  c #35524E",
"h  c #39534E",
"j  c #3C5552",
"k  c #375854",
"l  c #3F5854",
"z  c #464946",
"x  c #4B4949",
"c  c #544B45",
"v  c #46564B",
"b  c #54534E",
"n  c #425955",
"m  c #4B5B55",
"M  c #575B54",
"N  c #6C4841",
"B  c #6B544E",
"V  c #71514B",
"C  c #79544E",
"Z  c #7A5751",
"A  c #5C644C",
"S  c #5B6353",
"D  c #67654B",
"F  c #6F6848",
"G  c #786C55",
"H  c #AE333C",
"J  c #98443F",
"K  c #A8453C",
"L  c #AC443C",
"P  c #B4413D",
"I  c #BF543D",
"U  c #836A3F",
"Y  c #B66538",
"T  c #D6782D",
"R  c #C76633",
"E  c #D56737",
"W  c #C97A3A",
"Q  c #D57534",
"!  c #881C57",
"~  c #8F314F",
"^  c #8D3654",
"/  c #923953",
"(  c #B62D42",
")  c #BB3941",
"_  c #C53144",
"`  c #E8304D",
"'  c #964253",
"]  c #994352",
"[  c #964950",
"{  c #9D4A53",
"}  c #895851",
"|  c #945C53",
" . c #A64744",
".. c #A5574C",
"X. c #A24D53",
"o. c #AA5355",
"O. c #A75B55",
"+. c #B55D55",
"@. c #BA5D56",
"#. c #B75A58",
"$. c #8C6F4F",
"%. c #84734D",
"&. c #8A6A55",
"*. c #956259",
"=. c #96685A",
"-. c #977956",
";. c #B36D4F",
":. c #AA794A",
">. c #B67948",
",. c #A86257",
"<. c #B46752",
"1. c #BA6256",
"2. c #B36359",
"3. c #BD6459",
"4. c #BF6A5A",
"5. c #A8765C",
"6. c #A27760",
"7. c #BA7B64",
"8. c #C14642",
"9. c #D84B47",
"0. c #C8594D",
"q. c #D85547",
"w. c #C86646",
"e. c #DA6944",
"r. c #C77242",
"t. c #D77741",
"y. c #C1685A",
"u. c #C5725E",
"i. c #E1644A",
"p. c #C87964",
"a. c #CC7D65",
"s. c #51931C",
"d. c #629C1D",
"f. c #73B503",
"g. c #70B00D",
"h. c #79B40F",
"j. c #7CB50E",
"k. c #6EA618",
"l. c #75B311",
"z. c #7BB412",
"x. c #558A29",
"c. c #54892C",
"v. c #578234",
"b. c #689628",
"n. c #759A26",
"m. c #648533",
"M. c #78A428",
"N. c #81B90C",
"B. c #83B811",
"V. c #88B815",
"C. c #97BE1C",
"Z. c #8C9C2E",
"A. c #928C34",
"S. c #86A725",
"D. c #91B721",
"F. c #ADA52F",
"G. c #B4AF27",
"H. c #BCAE2C",
"J. c #B9B228",
"K. c #F89D1E",
"L. c #D8AB1F",
"P. c #D8BB14",
"I. c #F7AF17",
"U. c #FDA91A",
"Y. c #FDB815",
"T. c #DA8739",
"R. c #C99337",
"E. c #E4832B",
"W. c #EB8B29",
"Q. c #E9972B",
"!. c #F39726",
"~. c #FB9E22",
"^. c #C7AB2C",
"/. c #DFAF29",
"(. c #E1A92A",
"). c #FDA220",
"_. c #E2B127",
"`. c #94C609",
"'. c #96C215",
"]. c #9BC416",
"[. c #9BC31B",
"{. c #A5CC15",
"}. c #A1C61B",
"|. c #A9C919",
" X c #B0C61C",
".X c #ABD212",
"XX c #A9D116",
"oX c #B1D617",
"OX c #FFC10D",
"+X c #FCCB08",
"@X c #FFD201",
"#X c #A88245",
"$X c #BC834A",
"%X c #AB8359",
"&X c #BA8B5D",
"*X c #C68D5C",
"=X c #D98E53",
"-X c #CA915C",
";X c #D4965D",
":X c #DC9A5F",
">X c #E59C5F",
",X c #EA9E5E",
"<X c #EDA15F",
"1X c #CD8267",
"2X c #C98963",
"3X c #CE8169",
"4X c #D28565",
"5X c #D58964",
"6X c #D78A66",
"7X c #D3856B",
"8X c #D28F6C",
"9X c #DC9365",
"0X c #DC9A60",
"qX c #D89779",
"wX c #E29663",
"eX c #E49C62",
"rX c #EB9E61",
"tX c #E7A164",
"yX c #EDA160",
"uX c #F2A361",
"iX c #F8A763",
"pX c #ECA973",
"aX c #DDA181",
"sX c #E1A986",
"dX c #E9B892",
/* pixels */
"n n n n n n n n n n n n n n l n n n n n n n n n n n n n n n n n n n n n n n n n n n n n n n n n n n n n n n n n n n n n n n n n n n n n n n g 0 0 0 0 ",
"n n n n n n n n n l n n n n n n n n n n n n n n n n n n n n n n n n n n n n n n n n n n n n n n n n n n n n n n n n n n n n n n n n n n n n a 0 0 0 q ",
"n n n n n n n n n n n n n n n n n n n n n n n n n n n n n n n n n n n n n n n n n n n n n n n n n n n n n n n n n n n n n n n n n n n n n n g 0 0 0 0 ",
"n n n n n n n n n n n n n n n n n n n n n n n n n n n n n n n n n n n n n n n n n n n n n n n n n n n n n n n n n n n n n n n n n n n n n n g 0 q q r ",
"n n n n n l n n n k g g g g g g g g g g g g g g g g g k g g g k g a j g g a a a a a g g g g g g g j g g g g k g g g g k g g g g g g g g g g u 0 9 0 4 ",
"n n n n n n n n l i 0 0 0 0 0 0 0 0 0 0 0 0 0 0 0 0 0 0 0 0 0 0 0 0 0 0 0 3   1     9 0 0 0 w 0 0 0 0 0 0 0 0 0 0 0 0 0 0 0 0 w 0 0 0 0 0 0 3 . . 1 . ",
"l n n n n n n n n i 0 0 0 w w 0 0 0 0 0 u 0 w q w 0 0 0 0 0 0 0 0 0 0 0 0 3 . . . . 9 q q 0 q 0 0 0 0 0 0 w 0 0 0 0 w 0 0 0 0 0 0 0 0 0 0 0 3 . . . . ",
"n n n n n n n n n i 0 0 0 0 0 0 0 0 0 0 0 0 0 0 u 0 0 0 0 w 0 0 q w 0 0 0 3 . . . . 0 q 0 q q w 0 0 0 0 0 0 0 0 0 0 0 0 0 0 w 0 0 0 u 0 0 w 3   . . . ",
"n n n n n n l n n i 0 0 0 0 0 0 q 0 0 0 0 0 0 0 0 4 0 q q q q 0 0 0 0 0 w 9 . . . . 9 w 0 q 0 9 0 0 0 0 0 0 0 0 0 0 0 0 0 0 0 0 0 0 q w q q 3 3 . . . ",
"n n n n k d g g a g g g g a g g g g g g d g g u 3 3 $ 4 0 w 0 q 0 u q 0 w 9 4 9 4 9 0 w 0 0 u g g g g g g g a g g g g k a 0 3 3 3 4 0 0 0 q 4 . o . . ",
"n n n n g 0 9 9 0 k n n n n l n n n n n n n n i   . . . 9 w 0 w q 0 0 q w q w 0 0 w q 0 q 0 u l l n n n n n n n n n n n j 4   .   + 0 w q q 9 . . . o ",
"n l n l g 0 0 0 0 g n n n n n n n n n n n n n y   . o o 9 w 0 q 0 q w 0 0 q q q q q 0 w q 0 u l n n n n n n n n n n n n j 4   . . 3 0 0 0 q 3 . . . . ",
"n n n n g 0 0 0 0 j n n n n n n n n n n n n n y   . . . 9 q q w w q 0 q 0 w q 0 0 q q 0 0 0 t l n n n n n n n n n n n n n 4 1 O . + 0 0 0 q 3 o . . . ",
"n n n n g 0 0 0 0 g n n n n n l l l n n l n n e   . O 1 0 q q 0 0 0 q 0 0 q w 0 0 w 0 q w 0 u l n n n n l l n n n l n l g 4   O . 3 0 0 w q 3 o + . . ",
"n n n n g 0 0 0 0 g n n n l d i u y i i y i i 0 . . . . 9 q 0 0 q w q q 0 q 0 q q q 0 w q 0 y l n n n k i i i u i i u i e 3 . . . + 0 0 q q 9 o . . . ",
"n n l n g 0 0 0 0 j n n n j u 0 0 0 0 0 0 0 0 O . . . . 0 w 0 0 0 w t t t t t t t w q 0 0 0 u n n n n k 9 0 0 0 0 0 0 0 0 O . . . + 0 q 0 q @ . . . . ",
"n n n n g 0 0 0 0 j n n n l u 0 0 0 0 0 q 0 q 3 . . . . 0 e u u t 9 2 2 2 2 2 2 2 9 u w r r u l n n n g 0 0 q 0 q 0 w q 0 + . . . + 0 0 0 q 3 . . . . ",
"n n n n g 0 0 0 0 g n n n l u 0 w 0 0 0 0 q 0 3 . . O O 0 7 6 7 6 h %.$.$.$.$.$.$.v 6 7 7 7 i n n n n j 0 0 0 q q 0 0 q 0 o . . . + 0 0 q q 3 . . . . ",
"n n l n g 0 0 0 0 g n n n j y 0 0 w q u w 0 0 3 O .     e A D D M -.yXiXiXuXuXuXyX-.A A A A f k n n n g 0 0 0 w 0 w q q 0 + . . . + 0 0 0 q 9 3 . . . ",
"n n n n g 0 0 0 0 j n n n j u 0 q 0 0 0 q q 0 4 @ @ 4 $ F 0XeX0X0X<XyX:X,XuXrXyX<XtX0X<XtX0XG n S n n j q 0 w 0 q 0 0 q 0 o . . . 3 0 0 w q 3 . . . . ",
"n n n n d 0 0 0 0 j n n n l u 0 0 q q 0 0 0 w $     -.-X;XuXuXuX<XuX0XA &XiXyXyX<XyXyXuXyXuX0X0X%Xk l k u 0 0 0 w 0 w 0 0 + . . . + 0 q 0 0 4 . . . . ",
"n n l n k 0 0 0 0 g n n n l u 0 q w 0 0 0 u 3 s %X%X;XuXuXrXrXyX<X<XeX6.-XuXyXyXyXyXuX-XG 0XiXuXtX&X&XS 6 u 0 0 0 0 0 0 9 + . . . + 0 0 w w 3 . . . . ",
"n n n n g 0 0 0 0 j n n n l y w q q 0 q u 7 v =.wXuXyXyXuXyXyXyXuXiXyXeXrX<X<XeX%X;XuX-X&.0XyX<XyXiXwX6.v 7 w 0 q q 0 w 0 + . .   + 0 u 0 q 3 1 . . . ",
"n n n l g 0 0 0 0 a j a g a 4 4 0 9 4 0 0 g =.3X4X>XuX;X-X<XyXyX;X-XyXrXyX<XuX0XM &XuXeX9XyXyXyXyXeX6X7X6.a e 0 0 9 0 0 9 + O + 3 3 0 0 q q 3 . . . . ",
"n n l n g 0 0 0 0 3 1 1 . 1 O . . O . @ X =.3X4XyXyXuX-.D rXrXuX-.G tXuXrXyXuXrX4XeX<XyX<XuXyXyXyX<X,X5X3X=.1 O . O . . o 0 0 0 0 q 0 0 w q 3 . . . . ",
"n n n n g 0 0 0 0 3 . . . . . . . . . @ X =.7X4XyXyX<X5X&X<XyXuX5X2XyXyX<XyXyXrXrXrXyXyXyXyXyX<XyXuX,X5X7X=.X O . . . . . 0 w 0 q 0 q 0 q q 3 3 . . . ",
"n n n n g 0 0 q 0 + . . . . . . . . . 4 &.7.a.6XyXyXuXyXrXuXuXyXrXeXtXyXuX%X-.tXuXrXrXuX:X%.2XuXrXuXuX6Xa.7.&.4 . . . . O $ q 0 0 0 0 q 0 q 3 . . . . ",
"n n n n g 0 0 0 0 + . . . . . . . .   e 7.7X3X1X:X<X<XuX;X5.:XuXyXyXuXuXuX%X&.<XyXuXyXuX0XG 2XuX<X,XwX7Xa.7X7.5   O . . 1 0 q w 0 u 0 w q q 9 . . O . ",
"n n n l g 0 0 0 0 9 3 3 + 4 + $ @ 4 $ e 5.p.a.7XqXwXwXyX*XS ;XuX<X>X&X>XuXwX9XyXyX-X;XyXrX9XrX,XtXpX7Xa.a.p.5.p X O . . O 0 0 0 0 0 w 0 w w 4 1 . o . ",
"n l n n g 0 0 0 w w q 0 q q q 0 q w 0 t O.#.3.qXdX8Xa.9XwX4XwXrXuX&Xl ;XuXyXyXuXrXF -.rXrX,XrX6XqXdX6Xa.u.3.,.s 1 O . . O 4 w 0 w 0 0 q 0 w 4 . . . . ",
"n n n n g 0 0 0 0 0 0 q 0 0 w q 0 w q t O.3.1.y.p.a.a.3Xa.7X4X4X5X1Xp.eXuX,XyXyXyX7.4.6X4X4X4X3Xa.p.a.u.1.3.| p + O . . O 9 w 0 w 0 w 0 w 0 $ . . o . ",
"n n n n g 0 0 0 0 w w 0 q 0 q 0 w 0 & b.Z.:.#.#.+.4.a.3Xa.4Xa.sXqXa.5X5X5X5X5X6X6X1Xp.a.a.a.a.a.p.@.y.2.#.;.Z.b.&   .   3 0 w 0 0 0 0 0 0 0 + . . . . ",
"n n n n g 0 w w q w q q q q q w 9 % x.l.f.Z.:.3.1.1.y.u.p.1X7XqXqX1X1Xa.p.qXaX3Xa.1Xa.qXqX8Xu.u.u.1.1.1.:.Z.g.l.x.$   . O 0 w 0 w q q q 0 q 3 . . . . ",
"n n n n j g g g g u 0 w 0 q q r 1 > `.B.l.f.Z.{ 1.3.1.+.1.p.p.1.3.a.1X1Xa.qXsX1X1Xa.u.8XsX3X1.@.1.@.1.O.Z.f.z.B.N.> < 0 9 0 0 0 q u g g g g u . . . . ",
"n n n n n n n n n a 9 w 0 w 0 u 1 > }.|.V.z.c.x ,.;.1.3.1.1.1.1.1.4.a.1Xa.u.y.a.a.4.1.1.3.3.1.3.1.<.,.x v.B.B.|.|.> 1 w 0 0 w 0 0 u n n n n i . . . . ",
"n n n n n n n n l d 0 q 0 q 0 0 q w > }.}.{.n.o - n.#X#.1.+.1.2.1.1.3.3.1.1.1.4.3.1.1.@.1.#.1.#.:.n.: 7 b.{.|.}., % 0 0 w 0 w 0 0 d l n n n a   . . . ",
"n n n n n n n n l a 0 q 0 q 0 u w 0 q > }.oXC.S.d.g.S.S.A.4.3.3.1.1.1.1.1.1.1.1.1.1.1.3.4.3.A.Z.S.g.d.M.C.oXC.> q 0 w w q 0 w q 0 i l n n n i .   . . ",
"n n n n n n n j l u 9 q w q q 0 w q p ; A. XoX{.l.V.z.f.n.Z Z Z %.#X@.3.3.3.3.3.@.#X%.C Z Z M.f.j.'.j.].oX XA.N s q q 0 0 q q 0 0 i l l j n y . . . . ",
"n n n n a 4 4 4 4 4 w w 0 0 q 0 r 7 c H H U C.}.V.{.'.z.k.* 8 $ s.S.:.} | *.| | :.S.s.$ 8 * d.j.z.S.V.{.C.A.H K c 7 w q q w 0 w 0 w u u y u 4 1 . . . ",
"n n n n t . 1   3 $ q q q w 0 q r 9 z J J N m.}.XX X X].j.k.= b.j.j.k.= 0 q 0 = k.j.j.b.= k.j.j.b.- [.}.m.c H J z 0 w q 0 0 0 q q q w q q w 3 . . . . ",
"n n n n a   . . . 4 w 0 0 w 0 0 q r q z J K ; >  Xt.^.{.'.h.k.'.XXC.f.k.= $ = d.j.C..XC.l.l.'.XXF.r.}.c.; K J z w q 0 q 0 0 w q 0 q 0 0 q q 3 . . . . ",
"n n n n y 1 . . . 4 w 0 0 0 0 0 q w 9 f R.E.Y J Q i.%.M..X].]..X.X{.C.B.k.x.d.z.C.XX.X{.].].XXM.%.i.W J Y E.R.f 9 r q q q 0 q 0 q 0 w q 0 q 3 . . . o ",
"j n n n a   . 3 + $ q 0 w w 0 u q r 0 & L.OXK.R _  . ., M.XX.XH.R.^..XC.[.].].'.{.^.R.H..X.Xn.,  .) _ E !.Y.P.m 0 w q q w 0 0 w 0 0 q 0 w q 9 . . . . ",
"n n n n g 3 0 0 0 0 q q 0 0 q 0 q w 0 & P.@XY.!.R R q./ ; H.J.t.` E J.{.D.S.V.XXJ.t.` E ^.^.; ~ q.R R W.Y.@XP.A u w q q q q 0 q 0 u 0 0 0 q 3 3 O . . ",
"n n n n g 0 0 0 q q 0 0 0 0 q q q r 0 & P.@XY.U.~.~.E L I q.9.q.q.9.e.H., z , G.e.9.q.9.9.9.8.I R ).~.).Y.@XP.D y r q 0 0 w q 0 u 0 0 q w 0 3 . . . . ",
"n n n n g 0 0 0 q q 0 q w q q w q w 0 & P.@X+XY.).).!.!.E.P H P P 8.q.e.0.0.0.e.q.8.L P L P T !.!.).).Y.+X+XP.A u w 0 0 q 0 w 0 0 0 0 0 0 w 3 . . . . ",
"n n n l g 0 0 u q q w 9 9 q 9 q q q 9 t :.OXL.;.w.!.U.U.K.W.E.E.E.Q H ( H _ ) ( H Q E.E.E.W.K.U.K.!.r.;._.OX$Xm d q 0 0 0 w q q 0 w 0 0 0 w 4 . . . . ",
"n n n l g 0 0 0 q u a d a a d a a i d j O.=X>.! ' w.W r.W T.Y.OXOXI.E.Q T T T Q E.U.OXOXY.U.T.W W W ' ! >.=XO.M g a d a y w 9 9 9 0 0 w 0 0 $ . . . . ",
"n n n n g 0 9 q 0 k n n n n l n n n l m =.+.o.X.' ^ ^ / ~ [ R._./.(.Q.U.Y.U.Y.I.Q.(._._./.W...^ ^ ^ ] { #.#.*.m j n n n j 4 1 3 . 3 0 0 0 0 3 1 . . . ",
"l n n n g 0 q q 0 k n n n n n n n n n n l *.3.+.{ { [ ' ' ' { ] / / .._.+X+X+X_.O./ ] / / / ] [ ] { ] +.y.*.n n n n n n n 4   .   3 0 0 0 0 3 . . . . ",
"l n n n g 0 0 0 0 g n n n n n n n n n n n *.y.#.+.+.X.' ' ' ' ' ' / ' .._.@X_.../ ' ' ' ' ' ' / X.+.+.1.y.*.n n n n n n n 4   O . + 0 w 0 q 3 . O . . ",
"n n n n g 0 0 0 0 k n n n n n n n n n n n S *.1.1.+.+.+.X.' ' ' [ ] ' / ;.>.;./ ' ' ' ] ' ' o.+.+.1.1.3.=.M m n n n n n s 4   . . 3 0 0 w 0 3 3 . . . ",
"n n n n g 0 0 0 0 j n n n l a a g a g g g d b | 3.3.3.1.+.o.o.o.o.X.' ' / ~ ^ ' ' X.o.o.o.o.+.1.1.3.4.| M d g a a g g a a 3 < O . + 0 0 0 0 3 . . . . ",
"n n n n g 0 0 0 0 j n n n l u 0 q 0 0 0 0 w 7 p } } O.y.1.1.1.1.1.+.X.X.X.X.X.X.X.+.3.2.1.1.1.3.2.| *.b 6 w 0 0 0 0 0 0 4 3 . . . 3 0 0 0 0 3 . . . . ",
"n n n l g 0 0 0 0 g n n n k u 0 0 q 0 q 0 0 w 4 X X C O.,.1.@.1.1.1.@.1.1.@.1.+.@.3.@.1.1.1.,.,.*.n n j w 0 0 0 q 0 0 0 0 . . . . O 0 q 0 0 3 3 . . . ",
"n n n n g 0 0 0 0 j n n n l u 0 0 0 q 0 0 q w 9 O O # O c 2.1.2.2.1.1.1.@.1.1.1.1.2.2.2.2.2.B m m n n j 0 0 0 0 0 q 0 0 0 3 . . 1 3 0 w 0 q 3 . . . o ",
"n n n n g 0 q 0 0 g n n n l u 0 q 0 q q 0 0 0 + . o .   @ x z x z Z 3.3.1.3.3.1.1.Z b b b b s k n n n g 0 0 0 q 0 q q q 0 + . . . 3 0 0 0 0 3 . . . o ",
"n n n n g 0 0 0 0 g n n n n u 0 w 0 0 w q w w 9 . . . O 9 1 1 $ 6 i B V V V V V B s 8 9 7 9 u n n n n h q 0 w 0 u 0 0 q 0 o . . . + 0 0 0 q 3   O . . ",
"n n l n g 0 0 0 0 g n n n j u 0 0 q q 0 0 w q + . . o o w e w w w 0 6 6 6 6 6 6 6 9 u w u w u l n n n h 0 9 w q 0 0 q q 0 o . . . o 0 w q q 9 3 . . . ",
"l n n l g 0 0 0 q j n n n l u 0 q 0 0 0 q 0 0 3 . . . o 9 q q w 0 w e e r e e e e w 0 0 q q u n n n n g q q q q 0 0 0 q 0 + . . . 3 0 0 0 w 3 . . . . ",
"n n n n g 0 0 0 w g n n n n y 0 0 0 0 0 0 0 0 3 . . . o 0 w q 0 w 0 0 q w q 0 q 0 q 0 0 0 0 u l n n n j w q q w w w q 0 0 + . . . + 0 0 q q 3 . . . . ",
"n n n n a 0 0 0 w a n j j g w 0 0 0 0 0 0 0 0 3 o o o + 9 q 0 q q 0 q w q q q 0 q 0 w q w 0 u h n j j a 0 9 9 0 9 9 0 0 4 + o o o + 0 w 0 w 3 . . . . ",
"n n n n g 0 0 0 0 4 @ 4 4 3 3 3 . + + o . o 3 3 4 0 $ 4 0 w q 0 0 q q 0 0 q 0 0 w q 0 q 0 q w 4 4 @ 4 3 o + + o + + O o + 9 0 0 0 0 0 q w q @ . . . . ",
"n l n n g 0 0 0 0 3         .   . . . . . . . 9 w w w w 0 q 0 q w 0 0 q w 0 q w 0 q 0 w 0 q 9 o       . . . . . . o . . . 0 q 0 0 q w 0 q q $ o . . . ",
"n n n n g 0 0 0 0 3 . . . . . . . . . . . .   9 0 w w q 0 0 0 q q 0 q 0 w q 0 0 w q 0 w w q 0 o . . . . . . . . . . . . . 0 0 0 0 0 0 0 u q 3 1 o . . ",
"n n n n g 0 0 q 0 +   . . . . . . . . . . . . 3 0 0 0 0 0 0 0 0 0 w q q q q w 0 q 0 0 q 0 q 0 . . . . . . . . . . . .   . 0 0 0 0 0 0 0 0 q 9 O . . . ",
"n n n n k 0 0 0 0 9 3 3 + + + 3 3 3 O . 3 . + 0 0 q 0 0 u y y u t 9 0 9 9 w w 0 w 0 0 w 0 0 0 3 o 3 o 3 3 o + + 3 o o 3 3 u i i i u 0 4 9 0 + . . . . ",
"n n n l g 0 q 0 0 0 9 0 0 0 0 0 0 0 0 0 0 0 0 q w 0 0 u j n l n a o . O . 9 w 0 q q 0 q 0 0 0 0 0 0 0 0 0 0 0 0 0 0 0 0 w g l j n a 3   + o o . . . . ",
"n n n n g 0 0 0 u 0 q q q q q q 0 0 0 q q q w 0 0 0 0 w j n n n g 1 . . . 3 0 0 0 q 0 0 0 w w q q w q q 0 0 0 q 0 q u 0 u j n n n h .   . . . . . . . ",
"n n n n g 0 0 0 0 0 0 0 q 0 q 0 0 0 0 0 w 0 0 0 w w 0 w j n n n g . . . . 3 0 0 w 0 0 0 0 q 0 0 q 0 q 0 0 0 0 0 0 w 0 0 u j n n n g o   . . . . . O . ",
"n n n n k 0 0 0 0 0 q 0 q q q q 0 q q 0 q 0 0 0 q q w u l n n n j .   . . 3 0 0 q w w u q w w 0 q q q q u w w q 0 0 0 w u j n n n h o . . O . . . . . ",
"g g g k y 9 3 9 4 3 0 4 3 0 4 4 3 4 0 3 0 3 0 3 3 0 9 9 i a a g y . . . . 3 0 4 9 9 9 4 9 9 0 4 9 9 4 4 9 4 9 9 3 0 4 3 0 y a a a y . . . . . . . . . ",
"w 0 w 0 4 . . . . . . . . . . . . . . . . . . . . . . . 1 . . . . . . . . . . . . . O . . . . . . . . . . . . 3   . . . . . . . o . . . . . . . . . . ",
"0 0 0 0 3 . . . . . . . . . . . . . . . . . . . . . . . .   .   . . . . . . . . . . . . . . . . . . . . . . . . . . . . . .     . . . . . . o . . . . ",
"0 0 0 q 3 1 . 3 . . . . . . . . . . . . . . . . . . . . . . . . . . . . . . . . . . . . . . . . . O . . . . . . . . . . . . . . . . . . . o . . . . . "
};
