/* XPM */
static char *result[] = {
/* columns rows colors chars-per-pixel */
"75 75 209 2 ",
"   c #002C3B",
".  c #02343C",
"X  c #0C373C",
"o  c #03383D",
"O  c #0D393D",
"+  c #12363B",
"@  c #133B3E",
"#  c #1B3A3C",
"$  c #213C3D",
"%  c #504A3F",
"&  c #745639",
"*  c #7C5A3E",
"=  c #013D43",
"-  c #153E41",
";  c #193D41",
":  c #004444",
">  c #0B4544",
",  c #004448",
"<  c #144444",
"1  c #1E4645",
"2  c #144845",
"3  c #1F4846",
"4  c #154948",
"5  c #094E51",
"6  c #114F51",
"7  c #1D5253",
"8  c #214745",
"9  c #234846",
"0  c #294A45",
"q  c #294748",
"w  c #264A48",
"e  c #2C4C4A",
"r  c #3B4D44",
"t  c #324E4C",
"y  c #2E504C",
"u  c #34524E",
"i  c #38534F",
"p  c #225353",
"a  c #2D5352",
"s  c #3A5753",
"d  c #3C5552",
"f  c #414941",
"g  c #4C4C42",
"h  c #514D42",
"j  c #5E4F43",
"k  c #475447",
"l  c #4F5448",
"z  c #555244",
"x  c #5D5344",
"c  c #5E5846",
"v  c #5A5A4C",
"b  c #425955",
"n  c #4A5B55",
"m  c #505C52",
"M  c #604F43",
"N  c #635243",
"B  c #6C5643",
"V  c #645946",
"C  c #6B5B46",
"Z  c #645B4A",
"A  c #6A5E49",
"S  c #725642",
"D  c #735B43",
"F  c #7C5C42",
"G  c #59614F",
"H  c #5A6356",
"J  c #61604F",
"K  c #6C6149",
"L  c #7E6344",
"P  c #72634B",
"I  c #7A674A",
"U  c #7D684E",
"Y  c #6A6552",
"T  c #776750",
"R  c #786850",
"E  c #7B725B",
"W  c #855B00",
"Q  c #805931",
"!  c #8C653A",
"~  c #946D3E",
"^  c #96703D",
"/  c #9D763E",
"(  c #9E783F",
")  c #A27A39",
"_  c #A57D3E",
"`  c #815E42",
"'  c #856343",
"]  c #8C6544",
"[  c #866842",
"{  c #8C6A44",
"}  c #82654A",
"|  c #836B4E",
" . c #8D6D4B",
".. c #916745",
"X. c #936B46",
"o. c #996D47",
"O. c #946B49",
"+. c #9A6E48",
"@. c #8C7246",
"#. c #957243",
"$. c #9A7542",
"%. c #9C7944",
"&. c #9D7149",
"*. c #967B4A",
"=. c #9E7C48",
"-. c #856D52",
";. c #8B7256",
":. c #83765C",
">. c #91775C",
",. c #977959",
"<. c #A37E42",
"1. c #A2744B",
"2. c #A8774B",
"3. c #A57A4C",
"4. c #A9794F",
"5. c #A67951",
"6. c #AD7C52",
"7. c #B07E53",
"8. c #8B746B",
"9. c #957968",
"0. c #A8803B",
"q. c #AC833E",
"w. c #AF883F",
"e. c #B1883F",
"r. c #9E824A",
"t. c #A78141",
"y. c #AA8442",
"u. c #AE8843",
"i. c #A4824A",
"p. c #A98648",
"a. c #A2894E",
"s. c #AD8C4C",
"d. c #B38D44",
"f. c #B18E49",
"g. c #AF904F",
"h. c #B69146",
"j. c #B89346",
"k. c #BC9847",
"l. c #B4934E",
"z. c #BA964A",
"x. c #BE9B4C",
"c. c #AC835B",
"v. c #B58256",
"b. c #B88557",
"n. c #B58359",
"m. c #BB8659",
"M. c #BE895A",
"N. c #AE9154",
"B. c #B39451",
"V. c #B79855",
"C. c #BC9C53",
"Z. c #BA9D5A",
"A. c #9E826C",
"S. c #9E887C",
"D. c #A88661",
"F. c #B48A61",
"G. c #B88D62",
"H. c #B99567",
"J. c #A58B7A",
"K. c #AF9475",
"L. c #B3997B",
"P. c #BCA276",
"I. c #C19D4C",
"U. c #C48D5D",
"Y. c #C19F50",
"T. c #C7905F",
"R. c #C4A14E",
"E. c #C6A452",
"W. c #C8A653",
"Q. c #CBAB55",
"!. c #C5A75A",
"~. c #C7AA5D",
"^. c #CDAE5A",
"/. c #D0AF58",
"(. c #CFB05B",
"). c #D1B155",
"_. c #D2B25A",
"`. c #C59061",
"'. c #CC9462",
"]. c #D09664",
"[. c #D49966",
"{. c #D59C6A",
"}. c #D99D69",
"|. c #CAAD60",
" X c #CFB262",
".X c #D2B662",
"XX c #D6B963",
"oX c #D9BD66",
"OX c #DABF69",
"+X c #C3A67D",
"@X c #DCC16A",
"#X c #9F8881",
"$X c #A28C87",
"%X c #AD988D",
"&X c #B29D8B",
"*X c #AA9791",
"=X c #B19E94",
"-X c #B7A38F",
";X c #B8A599",
":X c #BBAAA2",
">X c #C3AF99",
",X c #C8B394",
"<X c #D0B999",
"1X c #C5B4A9",
"2X c #CCBAA9",
"3X c #CDBDB2",
"4X c #D9C18B",
"5X c #DAC49A",
"6X c #D6C7B9",
/* pixels */
"b b b b b b b b b b b b b b b b b b b b b b b b n b b b H :.G.}.].].].].].].].].].].b.4. .Y m b b n b b b b b b b b b b b b b b b b b b b b u 1 1 8 3 ",
"b b b b b b b b b b b b b b b b b b b b b b b n n H E A.F.[.[.].].].].].'.].].].].].'.m.v.m.,.Y K n b b b b b b b b b b b b b b b b b b b b t 1 1 1 1 ",
"b b b b b b b b b b b b b b b b b b b b b n H E >.D.|.{.].[.].].].].].].].].].].].'.].].].].'.`.c.U I Y n n b b b b b b b b b b b b b b b b u 1 1 1 9 ",
"b b b b b b b b b s b b b b s b b b b b n E D.`.{.{.].{.].'.].].'.'.'.].].'.].].U.7.U.[.].].'.].T.`.`.n.| J b b b b b b b b b b b b b s b b a 1 1 1 1 ",
"b b b b b b b b b u e e t e e e t u y H c.`.[.[.{.{.'.T.T.T.7.7.7.U.U.U.].].'.].T.U.m.U.'.'.[.].'.'.[.].U.O.} m t t t e e 0 e e e e e e e e 8 - - - - ",
"d b b b b b b b b e < 1 1 1 1 3 9 < v M.{.[.[.].U.U.v.7.7.v.U.U.U.T.T.'.].[.[.].[.'.U.7.2.7.`.'.U.7.T.T.'.M.6.{ r 2 8 1 1 1 1 1 1 1 1 1 1 1 - . . X X ",
"b b b b b b b b d e 1 1 3 1 3 w 4 G G.[.].'.U.M.n.v.7.m.T.T.[.[.[.[.T.U.U.U.U.U.U.m.'.'.5.o.&.7.U.U.'.v.v.m.m.b.=.k 2 0 8 1 1 9 9 1 9 1 1 1 - - X X X ",
"b b b b b b b b b e < 1 1 1 9 > G F.[.].'.`.b.m.`.T.T.[.[.T.U.m.m.U.m.b.n.5.1.1.1.6.m.U.U.b.&.] o.n.U.`.U.m.6.7.U.,.k > 8 1 1 1 3 1 1 9 1 8 - X X X X ",
"b b b b b s d b b e 9 9 8 0 4 G F.[.'.].].U.U.'.].[.'.m.b.4.1.1.&.1.6.b.7.1.+.+.+.1.1.2.b.m.b.6.O...5.m.T.'.U.7.4.7. .k 3 8 3 1 1 1 1 1 9 1 ; X X X X ",
"b b b b u e e w e i s s d a Y G.{.].'.].].].].'.b.v.6.1.+.o.o...` ..o.1.1.1.1.&.1.+.+...X.1.4.m.7...` +.&.7.T.'.m.+.O.{ v = - - @ - 1 1 1 1 - X X X X ",
"b b b b u 2 1 < 2 i n b n p 9.}.'.].].'.'.U.7.6.1.o.+...] +.&.X...O.O.o.+.+.+.+.&.&.&.O.] ] ] &.6.&.` ` ..` 1.7.T.v.O.o.A = + . . @ 1 1 3 3 - X X X X ",
"b b b b u 1 1 1 9 u b b n 7 >.[.'.].'.U.7.1.o.o.o.o.] ..X.+.1.+.+.+.O.` ' ` ' L ' ..+.+.X.O...] ..O.O.] ` ..` ` 6.'.6.] N = + X X - 1 9 9 1 < X X X X ",
"b b b b u 1 3 1 3 i b b n 7 >.[.].U.6.2.o.1.+.O.] ] X.+.&.+...' ` ` S M N M & j N D L [ o.o.#.O...] &.6...] ` ` 1.U.7.` v = ; = X X 1 1 3 3 - X X X X ",
"b b b b u 1 1 1 3 i b b n 7 >.[.U.4.o.&.1.+.] ] o.+.+.o.' F D N M N M C D B C D B j * @.[ ' ..X.o...O.5.7.&.5.6.7.4.o...v = + + X - 1 1 3 8 - X X + X ",
"b b b b u 1 1 1 3 u b b n 5 ;.T.4.+.1.+...] O.+...} S ' [ D C L N j D #.X.[ [ X.{ D ~ #.' ] ' ` `  ...] &.7.U.U.4.&...` h = + X X @ 1 1 9 1 @ X X X X ",
"b b b b u 1 3 1 3 i b b n 7 U v.+.1.+.] ' X.+.] D & D X.( { { $.F x *.<.[ ]  .{ p.@.%.p.O.' '  .=.&.` ` ` ..o.&...] F F h   + X X - 1 3 1 3 1 X X X X ",
"b d b b t 1 1 1 3 i b b b a N O.&.+.` ` +.+.] ] j I r.#.]  .{ X.~ L a.s.' [ X.%.x.*.$.h.V.Z.V.N.x.y.L { ' ' ] ] F D S o.A = $ X X X 1 3 1 9 - X X X X ",
"b b b b u 1 1 1 1 i b b n p T 1.` ] ` ` ..` { &.*.r.s.@.' ] { $.u.r.*.l.=.%._ h.x.%./ d.^.OX_.E.f.) $.s.{ ] 5.n.n.n.7.T.-.  $ X X @ 1 1 1 3 - - X X X ",
"b b b b u 1 1 1 3 i b b n 6 ;.T.G.U.U.7.5.] $.f.V.#.s.s.=.p.p.h.x.r.! h.!. X^.x.d.$./ u.^.OX_.x.q.<.i.V.{ X.4.U.m.`.].U.D   # X X @ 1 1 3 3 - X X X X ",
"b b b b u 1 1 1 3 d b b n p P U.U.7.U.U.+.=.l.x.u.#.t.E. X.X^.E.h.( o.u.^.OX^.d.y.%.<.d.^.oX^.z.q.<.<.l.&.` ..1...1.6.1.Z   + X X - 1 9 1 9 < X X X X ",
"b b s b u 1 3 1 1 u b b n a C 2.&...1.1.] B..Xz.( $._ R.oXoXQ.I.z.=./ q.Q.XX!.z.z.%./ d.^.oX/.x.q._ $.f.l.*...o.] ..o.1.Z . # X X @ 1 1 1 1 < X X X X ",
"b b b b u 1 1 1 1 i b b n a A 1...] O.+...B._.d._ $._ I.XXXXR.x.x.t.$.w.!.oXE.I.x.%./ d.^.oX_.x.q.t.#.0.C.N...+.] o.1.1.Z . # X X @ 1 1 9 9 - X X X X ",
"b b b b u 1 3 1 1 d b b b a A 1.+.] &.1...s.Q.h._ $._ I.XXXXW.I.x.t.$.q.Q.OX!.x.x.$./ d.^.oX^.x.q.t.$._ j.N...+.X.o.&.1.N = # X . @ 1 9 1 3 - X X X X ",
"b b b b u 1 3 1 9 q e e t , B 2.O.] +.+.] B./.h._ $._ I.XXXXR.z.h.<./ w.W.oXW.h.d.$._ e.^.oX_.x.q.t.$.t.k.s...+.1.+.&.1.N = $ - - 1 1 1 1 3 - X X X X ",
"b b b b u 1 1 1 1 - . . +   % &.O.] +.+...B.^.h.<.$._ I.oXXXE.k.h.=.$.q.Q.oXE.h.d.%.%.d.^.oX_.k.0.t.$.<.z.g...+.X.o.&.1.& = 9 9 3 3 1 1 8 3 @ O X X X ",
"b b b b u 1 3 1 3 - X X + . % o.o.] +.+.] g.Q.h._ $._ I.oX_.R.I.x.<.#.w.Q.oX!.h.d.%.) f.Q.XX^.x.q.t.$.0.z.s...+.] o.&.1.x = 9 1 1 8 8 3 1 3 1 X X X X ",
"b b b b u 1 1 1 1 - X . @ . % o.o.] +.1...B.).h._ $._ I.XXoXR.x.x.t.$.w.W.oXE.j.h.%.( d.Q._._.x.q.t.#._ x.s...+.] O.+.1.V = 0 9 3 1 8 1 9 3 < X X X X ",
"b b b b u 1 1 9 1 @ X X + . % X.X.] +.+...p.Q.h._ / _ I..XXXR.I.x.t.$.u.W._.E.x.x.$.^ d.^.XX_.I.q.<.#._ k.g...+.] O.1.1.N = 9 1 8 1 1 3 1 3 - X X X X ",
"b b b b u 3 9 1 1 1 - ; 1 = h o.o.] o.2.1...l.h.<.$._ I.)._.E.I.x.=.^ w.W._.E.x.x.$.&.p.W._./.k._ i.#._ z.g...o.] o.1.o.N = 9 8 1 8 3 8 1 3 1 X X X X ",
"b b b b u 3 1 1 1 1 9 1 9 : h o.o.] &.b.6.] V.j._ $._ I._._.R.I.x.t.$.w.W.XX!.x.x.$.s.V.x.R.I.f.p.l.%._ z.g...o.] X.1...% : 9 1 8 1 1 1 1 3 - X X X X ",
"b b b b u 3 3 1 8 1 1 1 9 : z X.+.O.1.7.+.] V.j._ $._ I.oXXXE.I.x.t.$.w.W._.R.x.k.$.<.x.!.~.!.C.j.f.#._ z.s...o.] X.1...% : 0 1 3 1 8 1 8 3 - X X X X ",
"b d b b u < 1 1 1 1 9 1 9 : z o.+...+.1.+.] l.h.%.$._ I.XXXXE.I.C.t./ w.W.).E.x.x.$./ h.^.XX.XW.d._ $.t.y.&.....] o.1.X.% : 9 1 1 1 1 1 1 1 - X X X + ",
"b b b b u 3 8 8 8 1 1 8 8 > l X.X.] o.1.+.] l.j.<.$.t.I._._.W.x.x.t.$.w.E._.R.x.x.$.$.d.W._./.x.q._ $.0./ ] 5.1.' ] &.X.h = 0 1 3 1 8 9 9 9 ; X X X X ",
"b b b b d d d d i e 1 8 1 8 8 I +.{ o.1.+.] x.j.<.$.0.I.)._.R.x.C.t.^ w.E._.E.x.I.$.) d.W._.^.x.q.<.$.t./ ] 2.n.7.1.+.X.h : 9 1 3 w s s u d q . X X X ",
"b b b b b b b b b y 2 8 3 0 > P 1.] X.1.+...l.j._ $.0.x.(._.E.x.x.r./ w.E._.E.x.k.$./ h.W._._.x.q.<.$.t._ ] o.3.6.1.&...z : 9 9 1 e s b b b e . X X X ",
"b b b b b b b b b y 1 1 1 8 > I &.] o.1.+.] l.j._ $.0.R.)._.E.x.x.t.$.w.W._.R.x.I.$./ h.W._./.I.q.y.$.t.$.] &.&.+.+.&.O.z : 9 1 3 e b b b b e - X X X ",
"b b b b b b n b b y 2 8 1 9 < P &...+.1.+...V.h.<.$.0.x.(._.E.x.x.t.$.u.W._.E.I.x.%.$.h.Q._.(.x.q.) ^ 0./ ] &.o.+.+.&.X.z : 8 3 1 e s n b b q X . X X ",
"b b b b d d d d i e 1 8 8 8 2 P 2.+.&.&.+.{ l.d./ ~ _ x.)._.R.x.x.%.~ w.R.).R.x.z.#.^ e.E._.Q.k.0.y.1._ / { +.] X.1.1.U r 1 9 1 1 w s b d b q . X + X ",
"b b b b t @ - # @ 1 3 1 1 9 1 P 1.&.&.&.o...V.x.t.=.y.E.(._.!.Y.C.p.%.d.W._.E.E.x.i.<.z.Q._.Q.E.+X<X,X&X,.] o.] o.+.1.K > 9 1 9 1 9 w w w w 1 X X X X ",
"b b b b e . X X . 1 3 8 1 9 2 P 3.&.&.1.o.] Z. X|.|.^..XXXoXXXXX.X(.|. XXXoXXX X X|.|.(.XX@XXX4X6X6X2X:XS.] X.X.+.1.2.P 2 9 1 1 1 1 1 1 1 1 - X X X X ",
"b b b b t   X X X - 1 1 9 9 2 A 1.&.+.&.&.] V..X_._._._.(.^.(.(.(._._._._._.(._._._._._._.^._.5X3X$X#XJ.9.] ] O.&.o.1.K 2 8 1 8 8 3 1 1 1 3 ; X X X X ",
"b s b b e = X X X 1 1 1 1 9 < V &.&.&.1.&.] $.t.y.y.p.t.t.t.y.q.t.y.t.p.t.t.t.t.t.y.y.y.t.0.t.L.=X%X;XD.~ ] ..o.1.X.O.K 4 0 8 1 1 3 3 9 1 3 < X X X X ",
"b b b b e X + - - 1 3 9 1 9 2 c O.&.&.&.&.] ] { ' ' [ X.$.X.X.X...[ [ { { #.^ X.X.' ' { @.#.! K.1X1X3X>X,.] &.&.1...X.A 3 8 8 1 1 8 3 1 9 3 - X X X X ",
"b b b b i 1 1 1 1 1 1 3 1 9 < V +.&.&.&.+.] p.<.' D { u.z.z.d.p.i.} D #.h.z.s.p.i.D F =.h.k.k.<X2X8.=X6X&X! X.+.1...O.K 2 8 8 1 3 8 1 3 1 3 - X X + X ",
"b b b b u 1 1 1 1 1 3 1 1 9 2 c +.1.+.1.1.] =.y.#.[ $.I.)._.R.I.x.#.{ 0.E._.R.I.l. .! d.Q.).).5X:XS 8.:X,X! ! o.1.X.X.K 3 9 8 8 3 9 1 8 3 3 - X X X X ",
"b b b d u 1 1 1 3 1 1 1 1 9 2 V +.&.&.&.X.` * <.t.$._ I._._.E.I.x.<.$.q.E._.E.x.z.$./ d.W.).).,X=X` & S.&X! ..+.1...X.K 2 9 8 1 1 1 1 1 1 8 - X X X X ",
"b b b b u 1 3 1 1 1 1 1 1 8 < c +.&.&.O.` ] ] _ _ %._ I.Q._.E.x.x.t.$.d.E._.R.x.x.$.( h.W._.).P.%X,.W L.-XQ ..1.&...X.K 2 8 3 3 1 1 3 8 8 3 - X X X X ",
"b b b b u 1 9 1 1 e u t t t e Z +.&.O.] +.X.{ _ _ $._ R.)._.E.x.C.<.#.q.W._.E.x.z.%.( h.W._.Q.H.*X&XK.2X&X& { &.1...X.P y 1 ; < - 1 1 1 3 3 1 X X X X ",
"b b b b u 1 1 1 1 u b b b b b Y &.&.&.6.v.+.] _ <.$._ x.)._.E.I.x.<.$.w.E._.E.x.k.$.<.h.W._.^.B.9.:X3X;X8.* ] &.1...O.R d ; X X X @ 1 1 1 1 - X X X X ",
"b b b b u 1 3 1 3 u b b b b b J O.1.3.v.1.O.] _ _ $.0.I._._.E.I.x.<./ w.W.).E.x.x.&./ d.W._.).k.$.D.J.9.{ F ..&.1...O.R b ; X X X @ 1 1 9 3 - X X X X ",
"s b b b u 1 3 1 3 d b b b b b m | 4.1.1...{ ] _ t.$._ I.Q._.E.I.C.<./ q.W._.E.x.x.$.$.d.W._.Q.I.0.^ ` 1./ F ] 1.1.X.O.R b ; X X X @ 1 1 1 3 - X X X X ",
"b b b b u 1 1 1 3 u b b b b b n -.4.+.o...] ] <._ #.%.x._._.W.I.x.%.$.w.W./.E.x.x.$.) d.Q._.).x.q.t.$.0./ * ..&.1...X.R d - X X . - 1 1 1 3 - - X X X ",
"b b b b u 3 1 1 1 s n b b b i i U 4.&.&...] ] _ _ =.p.z.W.Q.I.f.g.i.$.y.E._.R.x.x.$./ d.W._.).x.q.t.$.<.<.` o.1.&.O.O.K e @ X X X - 1 1 3 3 - X X X X ",
"b b b b u 1 1 1 1 u b b b d q 8 I 4.&.+...] ] ( <.<.l.C.C.E.l.B.V.s.$.w.W._.E.x.x.&./ h.Q._.^.x.q.t.$.q./ ..o.&.&.&.&.K < @ X X X + 1 1 3 9 - X X X X ",
"b b b b u 1 3 1 1 u n s b b q 9 I 4.+.1...] ] _ <.$.0.E.^._.~.Q.E.<.$.w.W.).E.x.x.&./ d.Q.)./.x.q.<.$.<./ ] &.1.&.&.&.V < @ X X X - 3 1 1 8 ; X X X X ",
"b b b b u 1 3 1 1 s b b b d w 0 I 4.&.+.X.] ] _ <.%._ Y..XXX^.R.x.<./ w.E._.E.x.x.$./ h.W._.^.x.q._ $.q.$.] +.1.&.&.O.x < # X X X - 1 3 3 3 < X X X X ",
"b b b b u 1 3 1 1 d b b b d w w P 1.&.&...{ ] _ _ $._ I.Q.).E.x.x.<./ w.W._.E.x.x.&./ d.Q._.^.x.q.t.$.<.<.+.&.&.&.&.+.c < @ X X X @ 1 8 1 8 - X X X + ",
"b b b b u 1 1 1 1 u b b b b w 9 A &.&.&...] { _ t.%._ I._._.E.x.C.<.$.w.E._.E.x.x.=./ d.Q._.).x.q.t.$./ +.v.4.&.&.&.O.c < @ X X X @ 1 4 3 3 ; X X X X ",
"b b b b u 1 3 1 1 u n b n d w 9 Z &.&.&...] ] _ _ $._ I.Q._.E.x.x.<.$.w.E./.R.x.k.$./ d.W._.Q.x.q._ $.$.] 5.4.+.&.1.O.c 2 @ X X X @ 1 1 1 3 < X X X X ",
"b b b s u 1 1 1 3 d b d b d 0 1 A &.&...&.] ' <.t.$.0.R._._.E.x.I.<.$.y.W._.E.I.x.%.$.d.Q.)._.x.q.t.$.$.] +.1.&.+.X.O.V > @ X X X @ 1 1 8 3 - X X X X ",
"b b b b u 1 1 1 3 u b b b b q 1 Z 1...] &.] ` V.|.|.|..XoXoXXX.X.X|.|..XXXoXXX.X.X|.|. XXXOXOX.X(.|.|.Z.{ +.1.&.O.{ X.Z > @ X X X @ 1 3 1 8 - X X O X ",
"b b b b u 1 1 3 3 u d d d u 9 1 A &.X.] +.] ] =.Q._.(.(.^._.(._.(.(.^._.^._.(.^._._.^._.^.(.^.(._.(._.C.] +.&.&.+.{ ] z - - X + @ @ 1 3 1 8 < X X X X ",
"b b b s u 1 9 1 3 ; @ # - # + = V &...] &.] ..] <.y.p.p.p.p.p.y.y.y.y.y.y.p.p.p.y.y.y.y.y.p.y.y.y.p.u.<.] +.&.&.&.&.B # @ 1 1 1 1 1 1 8 8 3 - X O O X ",
"b b b b u 1 1 1 1 - . X X X + . V 1.O...O...] ] [ { [ X.~ ^ ~ ..X.{ [ [ ~ ^ ~ ..{ { [ { ~ o.~ ~ { ] ' ' ] &.&.O.&.&.x . + 1 8 1 1 8 3 1 3 3 # X X O O ",
"b b b b u 1 1 3 1 @ X X X X + o V &.&...] ] ..] L D [ y.z.x.f.y.i.L D #.f.z.s.y.<.A F =.d.z.l.p.#.] D L { +.+.] O.&.V . @ 2 1 1 1 3 1 1 9 9 - X X X X ",
"b b b b u 1 1 3 1 @ X X X X + . N &.&.O.] ....] { } / I./._.E.x.C.#.[ t.W._.R.x.B.] ! f.Q.).Q.I.0.%.[ { ] +.+.] O.1.V . + 1 1 1 1 1 9 1 1 1 - X X X X ",
"b b b b i 1 1 1 3 < X - @ - - @ f ' &.O.] O.] ' %.%._ I.(._.W.x.x.<.$.w.W._.E.x.x.%./ d.Q._.(.x.q.t.$.$.] 1.+.] O.&.x - # q w e e w 1 < 1 1 - X X X X ",
"b b b b u 1 1 3 1 1 3 1 1 1 1 1 8 A &.&.o.+.` ! %.%._ I./._.E.j.d.<./ q.E._.E.x.x.1.$.d.Q._.Q.x.w.t.$./ ] +.+.] ....c 9 9 d b b s u @ X X O X X X X X ",
"b b b b u 1 1 3 1 1 3 1 3 8 9 3 0 P 1.O.X.+.' ' / $._ I.^._.W.k.j.<.$.w.E._.E.x.x.$./ h.Q.)./.x.w.t.$.$.] 1.o.] .. .x 0 9 d n b n t X . X X X X X + X ",
"b b b b u 1 1 1 9 1 1 9 1 1 1 9 0 D 1.X.] ..F F ( 1._ I./._.W.k.z.<.#.w.Q.).E.z.j.%./ h.W._.^.x.0.0.$.$.] o.o...] ] x w q d b b b u O X X X X X X X X ",
"b b b b u 3 3 3 3 3 3 3 9 3 9 9 0 D &.{ ] ] F ! %.$.) k.Q._.W.d.q.<.$.q.x.).E.u.y.$.( d.Q._.Q.j.w.<.^ / ] ..X.+.` ` V 8 9 d b b b d X X X X X X X X X ",
"u u u d w - - ; - - 1 ; ; < ; ; 0 C ..F ] ] F ` ~ L <.w.I.^.W.d._ #.{ 0.u.E.E.u._ { ~ d.E.Q.I.q.w.$.L X.] ' X.X.` ` z 1 1 e t t t q X X X X X X X X X ",
"8 1 8 3 ; X X X X X X - X X + X $ V ` F ` ` F ' D D { <.h.h.h.p.~ F ` #._ d.h.t.{ F ` %.s.h.d.<.$.{ S F F * ..] S F g = X X X X - X X X X X X X X X X ",
"1 1 3 1 - . X X X X X . X X X X # x F S B F S B B B B L [ ! [ L D B B D ' [ ! L B N S B D ' [ L C B B N B F ] F N B g X X X X . . . X X X X X X + X X ",
"1 1 1 3 1 X X X X X X X X X X X # h D N N B N N N M N j j N x j M N N x j j x j N N M M N x x M M M M N N D ` S N V g @ + X X X X X X X X X X X X X X "
};
