/* XPM */
static char *result[] = {
/* columns rows colors chars-per-pixel */
"75 75 196 2 ",
"   c #002C3B",
".  c #03353C",
"X  c #0C373C",
"o  c #02383D",
"O  c #0D393D",
"+  c #12363C",
"@  c #19373C",
"#  c #133B3F",
"$  c #1A393C",
"%  c #213C3D",
"&  c #4E361B",
"*  c #523D27",
"=  c #50493E",
"-  c #5D4C3C",
";  c #77562B",
":  c #6B533F",
">  c #73553F",
",  c #7D5C3F",
"<  c #003D43",
"1  c #163F42",
"2  c #1A3E41",
"3  c #014344",
"4  c #0C4544",
"5  c #144544",
"6  c #1E4645",
"7  c #154845",
"8  c #1F4846",
"9  c #164A4C",
"0  c #0E4F52",
"q  c #124F51",
"w  c #1E5253",
"e  c #214745",
"r  c #294645",
"t  c #234845",
"y  c #294A45",
"u  c #264A49",
"i  c #2C4C4A",
"p  c #384A42",
"a  c #324E4C",
"s  c #35524E",
"d  c #39534F",
"f  c #245252",
"g  c #2C5453",
"h  c #385653",
"j  c #3C5652",
"k  c #444842",
"l  c #4D4B42",
"z  c #544542",
"x  c #524B41",
"c  c #5D4E42",
"v  c #445346",
"b  c #4E5144",
"n  c #545144",
"m  c #5D5444",
"M  c #5E5846",
"N  c #5B574A",
"B  c #555C4D",
"V  c #5D5A4C",
"C  c #405752",
"Z  c #425955",
"A  c #4A5B55",
"S  c #505F57",
"D  c #604F42",
"F  c #625143",
"G  c #6C5542",
"H  c #635946",
"J  c #6B5B46",
"K  c #655A48",
"L  c #6B5D49",
"P  c #715742",
"I  c #755942",
"U  c #7B5B41",
"Y  c #715F4A",
"T  c #58604F",
"R  c #586358",
"E  c #67624F",
"W  c #6C614A",
"Q  c #7D6245",
"!  c #72644B",
"~  c #7B664A",
"^  c #646352",
"/  c #776850",
"(  c #786850",
")  c #796959",
"_  c #7D735C",
"`  c #9F772D",
"'  c #8F6C3F",
"]  c #95713F",
"[  c #9D763D",
"{  c #A37D3F",
"}  c #825F43",
"|  c #856243",
" . c #8B6544",
".. c #8C6945",
"X. c #846949",
"o. c #8C6C4A",
"O. c #906745",
"+. c #936A46",
"@. c #996D47",
"#. c #946C48",
"$. c #9A6E48",
"%. c #8F7148",
"&. c #947245",
"*. c #997443",
"=. c #9D7944",
"-. c #947248",
";. c #9D7149",
":. c #9C7B49",
">. c #856D51",
",. c #856F5C",
"<. c #89755A",
"1. c #957756",
"2. c #9D7B52",
"3. c #91775C",
"4. c #A27D44",
"5. c #A2744B",
"6. c #A7784E",
"7. c #A9794F",
"8. c #A77951",
"9. c #AD7C52",
"0. c #B17F53",
"q. c #8A7467",
"w. c #AC861E",
"e. c #A5803E",
"r. c #B18A3E",
"t. c #9C834D",
"y. c #A68145",
"u. c #A98544",
"i. c #AD8947",
"p. c #A4824B",
"a. c #A9864B",
"s. c #AD8D4D",
"d. c #B38D44",
"f. c #B79145",
"g. c #B99346",
"h. c #BE9A42",
"j. c #B5934D",
"k. c #BA964B",
"l. c #BC994C",
"z. c #AE8D53",
"x. c #A6825B",
"c. c #B58256",
"v. c #B88457",
"b. c #B58459",
"n. c #BA8659",
"m. c #B28C58",
"M. c #BE895A",
"N. c #AE9054",
"B. c #B49452",
"V. c #B89750",
"C. c #BC9C52",
"Z. c #B39259",
"A. c #BD9E5B",
"S. c #BEA056",
"D. c #A78662",
"F. c #B58A60",
"G. c #BB8F65",
"H. c #A48A7D",
"J. c #BFA067",
"K. c #C19E4D",
"L. c #C48D5D",
"P. c #C7905F",
"I. c #C9905F",
"U. c #C3A04E",
"Y. c #C4A454",
"T. c #C8A752",
"R. c #CCAC56",
"E. c #C3A55A",
"W. c #C6A95B",
"Q. c #CBAD5B",
"!. c #CFB15F",
"~. c #D3B45E",
"^. c #C08F63",
"/. c #C69364",
"(. c #CD9462",
"). c #D09664",
"_. c #D49966",
"`. c #D99C66",
"'. c #D39C6A",
"]. c #D99E6A",
"[. c #C9AA62",
"{. c #CFB167",
"}. c #D7B961",
"|. c #D8BC67",
" X c #A6948B",
".X c #AD9A92",
"XX c #B8A597",
"oX c #BDA99B",
"OX c #BBA9A1",
"+X c #CBB18A",
"@X c #CFBB96",
"#X c #C9B7A9",
"$X c #D0BCA6",
"%X c #CCBDB2",
"&X c #D6C5A7",
"*X c #D9C8B4",
/* pixels */
"Z Z Z Z Z Z Z Z Z Z Z Z Z Z Z Z Z Z Z Z Z Z Z A Z Z A Z R ,.G.].(.).(._.(._.(._._.(.c.6.o.^ A C A A C Z Z Z Z Z Z Z Z Z Z Z Z Z Z Z Z Z Z Z a 6 6 6 e ",
"Z Z Z Z Z Z Z Z Z Z Z Z Z j Z Z Z Z Z Z Z Z Z Z A R _ _ D._._.).(.).).)._.(._.(.(._.(.n.c.b.1.E E A C A Z Z Z Z Z Z Z Z Z Z Z Z Z Z Z Z Z Z s 6 6 6 6 ",
"Z Z Z Z Z Z Z Z Z Z Z Z Z Z Z Z Z Z Z Z A Z S _ q.2.[.]._.).).)._.).).).(._.(._.(._.).)._._./.L.9.~ ! ^ Z Z Z Z Z Z Z Z Z Z Z Z Z Z Z Z Z Z a 6 6 8 8 ",
"Z Z Z Z Z Z Z Z Z Z Z Z Z Z Z Z Z Z Z Z S ) D./.].'.].]._.).(.(.(.(.(.)._.(.).(.L.0.L._._.(.).)./.L./.b.X.^ A Z Z Z Z Z Z Z Z Z Z Z Z Z Z Z a 6 8 e 6 ",
"Z Z Z Z Z Z Z Z Z h s s h h a h h d d ^ D./.).).].`._.(.I.L.c.0.0.M.L.L.(.(.(._.I.L.c.L.(.(._._.(.(._._.M.#.Q B d d h a h a h d h d a h a d u 6 5 2 6 ",
"Z j Z Z Z Z Z Z j i 6 6 6 6 6 6 u 6 B F.).)._.(.L.^.c.0.0.c.L.L.L./.(.(._._._._._.(.L.c.6.0.L.(.M.c.L.(./.M.9.o.p 6 t e 6 6 6 6 6 6 6 6 6 6 1 X X X X ",
"Z Z Z Z Z Z j Z Z i 6 6 6 6 e r 5 T F.).).).(.L.v.c.0.c.L.I._.)._._.(.M.M.L.L.L.L.M.(.I.7.@.;.0.M./.(.v.c.M.M.c.2.v 5 t e 6 6 6 6 8 8 6 e 6 1 X X X X ",
"Z Z Z Z Z Z Z Z Z i 6 6 6 6 t 5 B F.`.).).I.c.c./.I.I._._.(.M.M.M.L.n.n.v.6.5.5.5.0.n.I.L.c.5. .$.b.L.L.L.n.9.0.M.2.v 5 t 6 e e 8 6 e 6 6 8 1 X X X X ",
"Z Z Z Z Z Z Z Z Z i 6 6 6 e 3 T m._._._.(.^.L.(._.`.I.M.v.7.5.5.5.$.7.c.0.5.@.@.@.5.5.6.c.M.c.9.#. .6.v.L.(.L.0.7.0.o.v 5 6 6 6 6 6 6 8 6 8 1 X X X X ",
"j Z Z Z j g a a s s s s s f ^ Z._.).(.(.).).).(.c.c.7.;.$.$.@. . . .@.6.5.5.5.5.5.$.@.O.@.$.7.n.0.+.} @.;.0.P.).M.;.#.o.B 4 2 1 1 2 6 6 8 8 2 X X X X ",
"Z Z Z Z a 6 6 5 7 d Z Z A w 3.].).(.).).(.L.0.0.5.$.@.+.O.@.;.#.+.+.@.@.@.$.$.$.$.;.;.#. . .O.$.9.;.} }  . .5.0.I.v.+.@.L < + X . # 6 6 6 8 1 X X X X ",
"Z Z Z j s 6 6 6 8 d Z Z A f 3.`.(.).I.L.0.5.@.@.@.@. .O.#.;.;.@.@.@.+.} | | | } | +.$.@.#.#.O. .+.@.@. .}  .} , 6.(.9.| V < + X X 1 6 6 e 8 5 X X X X ",
"Z Z Z Z s 6 6 6 6 d Z Z Z w 3._.).L.9.5.$.;.@.@. . .#.$.@.@...&.#.| P F F : F : F I U | #.$.@.#.+.} ;.0.O. .} } 5.M.9.O.V < + 1 X # 6 6 6 8 1 X X X X ",
"Z Z Z Z a 6 6 6 6 d Z Z A w 3.`.L.7.$.5.5.@. . .@.@.@.#.@.-.+.i.Z.Q c F F c F F F F D G I U | @.#.+.+.8.0.5.6.0.c.6.@.O.N < + . X # 6 6 e 6 1 X + O X ",
"Z Z Z Z h 6 6 6 6 h Z Z A 0 <.(.6.$.5.$.+. .@.@.#.&.:.+.=.l.d.f.C.Q m F F F F F F F F F F F G I U  .O. .@.9.L.L.6.;. .} x < + X X # 6 8 6 8 6 X X O X ",
"Z Z Z Z a 6 6 6 6 d Z Z A w ~ 0.$.5.$. .} #.#.#.*.i.R.s.4.K.d.d.V.Q c F F F F F F F F F F F F D F G U } } +.@.$.+.| } I x . + X X 1 6 e 6 8 # X X X X ",
"j Z Z Z s 6 6 6 6 h Z Z Z h F @.$.@.} } +.+.U m.U.l.R.j.4.l.i.d.V.Q F F F F F F F F F D F F F F F F F G I } O. .U U P $.Y < @ + X # 6 6 6 6 1 . X X X ",
"Z Z Z Z s 6 6 6 6 d Z Z A w ( 5.|  .} } O.} X.E.R.l.R.j.=.f.j.k.V.~ c F F F F F F F F F F F F F F F F F D } 8.b.b.b.0.I.>.  % . X # 6 6 6 8 1 1 X X X ",
"Z Z Z Z s 6 8 6 6 h Z Z A q >.(.M.M.L.v.8.@.*.Y.T.l.R.s.:.S.l.g.V.Q c F F F F F F F F F F F F F F F F F D U 6.G.b./.(.L.Y . @ + X O 6 e e 8 5 X X X X ",
"Z Z Z Z s 6 6 6 6 d Z Z Z f ! L.^.0.^.L.;.4.4.Y.T.l.R.N.s.T.d.d.V.| D F F F F F F F F F F F F D F F F F D P +.5.#.;.9.5.K   @ . X 1 6 6 6 e 1 X X X X ",
"Z Z Z Z g 6 6 6 6 d Z Z A g J 6.$. .5.5...N.z.Y.T.l.R.s.y.Y.d.f.V.I z F F F F F F F F F F F F F F F F F c G O.$.} O.@.5.G   @ X X # 6 e 6 6 2 X X X X ",
"Z Z Z Z s 6 6 6 6 d Z Z A g L 5.#. .#.@.+.z.z.Y.T.l.R.j.4.l.f.d.V.%.~ c F F F F F F F F F F F F F F F F F G #.$.O.@.5.5.K < @ X X # 6 6 e 8 1 X X X X ",
"Z Z j Z s 6 6 6 6 h Z Z Z g L 5.@. .;.@.+.s.s.Y.T.l.R.s.4.U.d.r.W.S.t.z F F F F F F F F F F F F F F F F F G +.$.#.@.;.5.H . @ X . # 6 8 8 8 1 X + X X ",
"Z Z Z Z s 6 6 6 e a d a d 9 K 5.#. .@.@.+.s.s.S.T.l.R.s.4.K.f.f.|.{.&.x F F F F F F D F F F F F F F F F F G O.;.;.;.$.5.H . 2 1 1 5 6 e 6 8 1 X X X X ",
"Z Z Z Z s 6 6 6 6 1 . o @ . = @.@. .$.$.+.s.s.S.T.l.R.s.y.h.J.+X{.e.G m F F F F F F F F F F F F F F F F F G +.;.O.@.;.5.G < y 6 6 6 6 6 6 t 5 X X X X ",
"Z Z j Z s 6 6 8 6 1 X X + . = @.@.| $.;.+.s.s.Y.T.l.R.z.{ l.@X$Xz.; m F F F F F F F F F F F F F F F F F F G O.$. .@.;.5.F < y 6 e 6 6 e 8 8 2 X X X X ",
"Z Z Z Z s 6 6 8 6 # X X @ . = #.@. .$.$...s.s.Y.T.l.R.B.` Q.*XoX.., M F F F F F D D F F F F F D F F F F F G  .$. .@.$.5.H < t e 6 8 e 8 8 8 5 X X X X ",
"Z Z Z Z s 6 6 8 6 1 X . + . = @.@. .$.$.+.p.p.Y.T.l.Q.z.` {.&XoXx., - F F F F D m F F F F F F F F F F F F G +.;.} @.;.5.H < y 8 e 6 6 6 6 8 1 X X X X ",
"Z Z Z Z h 6 6 8 6 1 1 # 6 o = @.@.| @.6.6. .X.Y.T.l.R.B.i.S.XX#X.X,.- - F F F F F F F F F F F F F F F F F G O.$. .+.5.$.- < t e e 8 6 8 6 8 1 X X + X ",
"Z Z Z j s 6 6 6 e 6 e 8 e 3 n #.$. .;.c.0.}  .K.T.l.R.W.W.Z.XX*XOX X) - F F F F F F F F F F F F F F F F F G +.@. .+.5.O.= 3 t 8 6 8 6 e e 6 1 X X X X ",
"Z Z Z Z s 6 6 6 6 e 6 6 t 3 n #.$.#.5.0.;. . .Y.T.l.R.~.Y.u.+X#X.XoX X& H F F F F F F F F F F F F F F F F G O.$. .@.5.O.= 3 t e 6 e e 6 6 8 6 X X X X ",
"Z Z Z Z s 6 6 6 6 6 8 6 t 3 n @.$.+.@.;.;.O. .Y.T.k.~.T.p.w.[.#XXXXX X* F F F F F D F F F F F F D F F F : } #.+.} +.5.#.= 3 t 6 6 8 6 6 6 8 # X X X X ",
"Z Z Z Z i 6 6 6 6 6 6 6 t 4 b ..@. .+.5.;. . .Y.T.C.~.s.-.g.A.oX%X.X) - F F F F F F F F D F F F F F F c G  .9.5. .O.$.+.z 3 t e 8 8 6 6 6 6 1 . X X X ",
"Z Z Z Z j d h h s i 6 e 6 6 8 ~ @. .@.;.;. .X.Y.R.Y.l...&.K.N.H..Xq.D F F F F F F F F F F F F F F F F F G  .5.c.b.;.;.+.x 3 t 6 6 u d h d s e 1 X X X ",
"Z Z Z Z Z Z Z A C i 7 e 6 t 4 ! ;. .@.5.;. . .S.}.W.4., :.U.d.8.D.Y D F D F F F F F F F F F F F F F F F G  .$.6.6.5.$.+.n 3 t 6 6 i j A Z Z i . X X X ",
"Z Z Z Z Z Z Z Z C a 6 e e e 7 ! ;. .#.;.;. .| E.~.j.u.:.u.l.d.d.Z.Q c F F F F F F F F F F F F F F F D m G  .;.$.@.$.5.+.n 3 t e 6 g j Z j Z i X X + X ",
"Z Z j Z Z Z Z Z Z a 7 8 e e 5 ! 5.+.;.;.5. . .E.l.u.Y.s.y.K.d.f.V.| D F F F F F F D F F F F D F F F F F G | ;.#.@.5.;.#.n 3 e 8 6 i j Z Z A i . . X X ",
"Z Z Z Z C C j C j i 8 8 e e 7 ! 5.;.;.;.$. .N.Q.=.p.!.s.4.K.f.d.V.~ c F F F F F F F F F F F F F F F F F G O.5.| #.;.5.~ p 5 e 8 6 i j Z Z Z r . X X X ",
"Z Z Z Z a 2 6 % % e 8 8 6 e 7 ! 5.;.;.5.$. .V.l.=.i.R.s.4.Y.d.d.V.~ D F F F F F F F F F F F F F F F F D G  .$. .+.;.5.W 4 e e 8 6 e u u u u 6 X X X X ",
"Z Z Z Z a . . o X 5 8 6 e e 7 ! 6.;.;.;.$...=.y.j.g.R.N.4.K.d.d.V.Q D F F F F F F F F F F F F F F F D F G  .o.O.$.;.6.! 7 e 8 8 e 6 e 6 6 e 2 X X X X ",
"Z Z Z Z i . X X X 6 6 6 6 e 7 W ;.;.;.;.;. .| i.U.K.R.j.4.K.d.d.s.~ c D F F F F F F F F F F F F F F F c G  . .+.5.@.*.W 6 e 8 8 8 6 e e 8 8 5 X X O X ",
"Z Z Z Z i . X X X 1 8 6 6 e 5 H ;.;.;.;.;.| J C.T.l.R.s.4.K.g.{ &.U D D F F F F F F F F F F F F F F F F G  .+.@.5.+.+.W 6 8 8 8 6 e 6 6 6 8 2 X X X X ",
"Z Z Z Z i . 1 X # 6 8 e e e 7 M #.;.;.;.;.| I S.T.l.R.s.4.K.g.[ ..%.X.c F F F F F F F F F F F D F F F D F  .;.;.5.+.+.L 6 e e 8 8 6 6 8 e 8 5 X X X X ",
"Z Z Z Z h 6 6 6 6 6 8 6 6 e 7 H ;.;.;.;.;. ...Y.T.l.Q.z.4.K.g.[ p.C.&.z F F F F F F F F F F F F F F F D G  .#.@.;.+.+.W 6 e e 6 e 6 8 e 8 8 # X X X X ",
"Z Z Z Z a 6 6 6 6 6 8 6 e e 5 H @.5.$.5.;. .| S.T.l.R.s.y.K.g.s.[.Z.: D F F F F F F F F F F F F F F F m G  . .+.;.+...W 7 e e 8 e 6 6 6 6 8 1 X X X O ",
"Z Z Z Z d 6 6 6 8 8 6 6 8 e 5 M @.$.5.$.+.U } S.T.g.R.j.4.l.l.T.E.X.c F F F F F F F F D F F F F F F F D :  .@.@.5.+.+.W 7 t e 6 6 6 e 6 8 8 1 X X X X ",
"Z Z Z Z d 6 6 6 8 6 6 6 6 e 5 M @.;.$.+.| |  .Y.W.j.R.s.y.l.U.S.:.G F F F F F F F D F F F F F F D F F F G } @.;.;.+.+.W 7 e t 8 6 e 6 8 6 8 6 X X X X ",
"Z Z Z j s 6 6 8 6 i i s i i i K #.5.#.#.6.@...l.R.T.~.s.4.T.{.u.' Q m F F F F F F m F F F F F F F F F F G I ..;.;.+.@.W i 6 1 6 5 6 8 e 6 8 $ X X X X ",
"Z Z Z Z s 6 6 6 6 h Z j Z Z j ! ;.;.;.c.c.@...C.K.g.~.s.4.T.E.+.O.Y F F F F F F F F F F F F F F F F F F G , O.;.5.+.#./ j 2 X X . 1 6 e 6 e 1 X X X X ",
"j Z Z Z a 6 6 6 6 d Z Z Z Z Z T #.5.8.c.;...+.C.Y.g.R.s.z.C.y.&.o.U F F F F F F F F F F F F D F F F F F G I O.;.;.+.#./ Z 2 . X . 1 6 6 6 6 1 . X X X ",
"Z Z Z Z h 6 6 6 6 d Z Z Z Z Z A >.6.;.@... . .j.T.l.R.Q.W.i.' =.+.U F F F F F F F F F F F F F F F F F F G , O.$.5.+.+./ C 2 X X X + 6 6 e e 1 1 X X X ",
"Z Z Z Z g 6 6 6 6 h Z Z Z Z Z A >.6.;.;.+.| +.A.W.l.T.}.Y.4.*.=.&.I c F F F F F F F F F F F F F F F F F G U +.5.5.+.+./ C 2 X X X 1 6 6 6 6 1 X X X X ",
"Z Z Z Z s 6 8 6 6 d Z Z Z Z d d X.8.;.;.+. .+.E.T.l.~.W.y.i.u.*.&.U F F F F F F F F F F F F F F F F F F G | @.$.;.#.#.! a 1 . X X 1 6 6 6 6 1 X X X X ",
"Z Z Z Z s 6 6 6 8 j Z Z Z Z y t ~ 6.;.;.+. ...C.T.l.~.a.&.B.s.] ..Y F F F F F F F F F F F F F F D m F F G  .5.5.;.;.;.W 5 1 X X X O 6 6 e e 5 X X X X ",
"Z Z Z Z s 6 8 6 8 d Z Z Z j t i ~ 6.5.$.O. .+.C.R.T.V...=.l.a.] ..F F F F F c F F F F F F F D F D F F D G  .;.$.;.;.$.H 5 + X + X 1 6 6 6 8 2 X X X + ",
"Z j Z Z s 6 6 6 8 d Z Z Z j u y ~ 7.$.$.#. ...S.}.W.4.| y.V.i.&.Q c F F F F F F F F F F F F F F F F F F G | $.5.;.;.#.m 5 + X X X 1 6 8 6 e 1 X X X O ",
"Z Z Z Z s 6 6 6 8 s Z Z Z j i e W 5.;.;.+. . .S.~.k.i.4.y.C.i.' J c F F F F F F F F F F F F F F F F D F | 5.5.$.;.;.@.M 5 # X X X # 7 6 6 t 1 X X X X ",
"Z Z j Z s 6 8 6 8 d Z Z Z j i e L ;.;.;.+. .+.S.k.y.Y.s.y.k.p.| G F F F F F F F F F D F F F F F F F F D #.v.7.;.;.5.#.M 5 1 X X X # 6 e 6 8 1 X X X X ",
"Z Z Z Z g 6 6 6 8 d Z Z Z j t e L ;.;.@.+. .o.C.;.p.R.B.4.d.&.G F F F F F F F F F F F F F F F F F F D G | 8.7.;.$.$.$.N 5 # X X X # 6 e 6 t 5 X X X X ",
"Z Z Z Z s 6 6 6 8 d Z Z Z j y 6 L ;.@. .@. .| y.y.a.R.s.4.{ ..F F F F F F F F F F F F F F F F F F F D H | @.;.;.$.+.#.H 4 # X X X # 6 6 6 8 5 X X X X ",
"Z Z Z Z s 6 6 6 e h Z Z Z C y e L ;.#. .;. .U -.j.l.R.B.{ [ I c F F F F F F F F F F F F F F F F F F D G  .-.;.;.@. .@.H 1 # X X X # 6 6 e 6 1 X X X + ",
"Z Z Z Z s 6 6 6 6 a j j C h t 6 K ;.#. .;.O. .-.l.l.R.N.] Q m F F F m F F F F F F D F F F F F F F F D G | ;.;.;.@...| b 5 # O X O # 6 6 6 e 1 X X X X ",
"Z Z Z Z s 6 6 6 6 6 $ 1 6 # # O H 5.#.| ;. . .-.l.l.R.j.Q G D F F F F F F F F F F F F F F F F D F F D F | ;.;.;.;.;.F O # 2 6 6 6 6 6 6 8 8 2 X X X X ",
"Z j Z Z d 6 6 6 6 + . X . X + . H ;.@.O.#.O. .-.l.f.Y.s.G c F F F F F F F F F F F F F F F F F F F D D G  .;.;.+.;.;.M . # 6 e 6 e 6 8 t 6 8 5 X X X X ",
"Z Z Z Z s 6 6 6 6 # X X X X + o F ;.;.+. . .O.&.C.i.i.&.M c F F D D D D D F D D D D F F D D D D D F D G | 5.$. .#.;.F o # 6 8 6 6 6 6 6 6 8 1 O X X X ",
"Z Z Z Z s 6 6 6 6 # X X X X + . m ;.;.+. .O. .@.l.r.] I : m m F G D D G P U P P U P U P G D D G F F D G | $.;.| #.;.H . + 5 6 6 6 6 6 6 6 e 5 X + X X ",
"Z Z Z Z s 6 6 6 6 5 O 1 # O # 1 p Q ;.-...@.| +.V.&.F F F F : P U P P P U U U U U P U P > P G D D F F F  .;.;. .#.;.F # 2 e i u i u 6 6 2 6 1 X X X X ",
"Z Z Z Z s 6 6 8 6 6 6 6 6 6 e 6 e L 5.#.@.5.| ..s.L c G I I , U > } } U U } } P P P P P U U U P G F D G } $.$. ...+.M e e j j Z Z s O X O X X X X X X ",
"Z Z Z Z s 6 6 8 6 e 8 e 8 8 e e r Y ;.@...@.} } ..G D P I I , I U } , U I P P P P P > U P P P P P G G F  .$.;. .o. .M r u j Z Z A a X . X X X X O X X ",
"Z Z Z Z s 6 8 6 6 e 8 6 6 8 e e y I ;.+. ..., I : G P P P P I U U U U , I G P P U } U } } P P P P I G G  .@.@.#. .| M t u j Z Z Z d O X X X X X X X X ",
"Z Z j Z d 6 6 8 6 6 8 6 8 8 e e y ! ;. . . ., , H : P P P P P P P , U U , U U U U U U , U P P P G D D G } +.+.@. .Q F e t j Z Z Z h O . + X X X X X X ",
"s h d d u 1 2 5 1 1 6 2 1 6 2 6 r G  .,  . .I I G F D G P P P P P } U , U U U U U , U U } > P P G F D G } }  .+.U U m 6 6 i a a a r O X X X X X X X X ",
"8 6 8 e 6 X X X X X X X X X X X % F } I I } I P F P P I I U I U I U I I P G G G G P , I U I U I I P G G P I O.} P Y l o X X X X X X X X X X O X X X X ",
"6 6 6 6 # . . X X X . X X X X X $ m U I P U P D F G P G G G G P G G P G F D F D F G G G G G G K G P G F G }  .} F P l # X X . X X X X X X X X X X X X ",
"8 6 8 8 6 X X X X X + X X X + X $ k c x x c x x x x x x x x x x x x x x x x c x x x x x x x x x x x x x x F G c x c p + X O X X X X X X X X X X X X O "
};
