/* XPM */
static char *result[] = {
/* columns rows colors chars-per-pixel */
"75 75 243 2 ",
"   c #140900",
".  c #12150C",
"X  c #001D15",
"o  c #280806",
"O  c #340704",
"+  c #3C0302",
"@  c #271608",
"#  c #381705",
"$  c #390814",
"%  c #2C1916",
"&  c #371816",
"*  c #03251B",
"=  c #1A2211",
"-  c #382809",
";  c #27221B",
":  c #38231B",
">  c #1E1D20",
",  c #2D1E23",
"<  c #192827",
"1  c #102C2B",
"2  c #1B2C2D",
"3  c #0A2F34",
"4  c #192C32",
"5  c #0C3236",
"6  c #06363C",
"7  c #0C373C",
"8  c #04393E",
"9  c #0D383D",
"0  c #173436",
"q  c #12363A",
"w  c #123B3E",
"e  c #1D3D3C",
"r  c #272828",
"t  c #362627",
"y  c #342C2B",
"u  c #28332C",
"i  c #38322E",
"p  c #272B33",
"a  c #2B3433",
"s  c #273938",
"d  c #233D3C",
"f  c #373836",
"g  c #440300",
"h  c #480803",
"j  c #4C0C01",
"k  c #530100",
"l  c #540A00",
"z  c #590902",
"x  c #4D1401",
"c  c #461807",
"v  c #4E1A02",
"b  c #541401",
"n  c #5A1501",
"m  c #541B02",
"M  c #5B1B01",
"N  c #561A0B",
"B  c #4B0816",
"V  c #510E15",
"C  c #471816",
"Z  c #571A15",
"A  c #660701",
"S  c #7C0D00",
"D  c #611501",
"F  c #621D01",
"G  c #661B09",
"H  c #492607",
"J  c #5C2202",
"K  c #562609",
"L  c #593605",
"P  c #472717",
"I  c #592918",
"U  c #463514",
"Y  c #573917",
"T  c #642201",
"R  c #6A2501",
"E  c #652902",
"W  c #6C2B01",
"Q  c #65260B",
"!  c #712E02",
"~  c #722D0B",
"^  c #6C3202",
"/  c #693406",
"(  c #743301",
")  c #793602",
"_  c #7C3B02",
"`  c #783809",
"'  c #672B14",
"]  c #692C13",
"[  c #702F16",
"{  c #6A331A",
"}  c #763814",
"|  c #481B23",
" . c #571626",
".. c #462927",
"X. c #522D2C",
"o. c #453629",
"O. c #473736",
"+. c #423A36",
"@. c #57383A",
"#. c #6A2D23",
"$. c #693825",
"%. c #763C24",
"&. c #1E413F",
"*. c #26423D",
"=. c #36433D",
"-. c #51441C",
";. c #7A4905",
":. c #6E4610",
">. c #58472A",
",. c #4E4637",
"<. c #684529",
"1. c #76482B",
"2. c #69493A",
"3. c #7A4C33",
"4. c #784A37",
"5. c #6B563B",
"6. c #7C5235",
"7. c #7C5539",
"8. c #033A40",
"9. c #163E41",
"0. c #193E41",
"q. c #323A44",
"w. c #443742",
"e. c #6A3251",
"r. c #154243",
"t. c #1E4645",
"y. c #1F4846",
"u. c #214644",
"i. c #2D4644",
"p. c #214946",
"a. c #264A48",
"s. c #2B4C4A",
"d. c #3A4845",
"f. c #324E4C",
"g. c #2F504C",
"h. c #35524E",
"j. c #38534F",
"k. c #3C5552",
"l. c #3E5853",
"z. c #444946",
"x. c #43524D",
"c. c #544F50",
"v. c #435652",
"b. c #425955",
"n. c #6D514C",
"m. c #795848",
"M. c #776652",
"N. c #5A466A",
"B. c #68566B",
"V. c #586F6B",
"C. c #786B71",
"Z. c #8D1605",
"A. c #9C1504",
"S. c #911109",
"D. c #A81602",
"F. c #B71904",
"G. c #A3181A",
"H. c #813E03",
"J. c #972C15",
"K. c #972A22",
"L. c #C91C02",
"P. c #D71D01",
"I. c #E61B00",
"U. c #CC2000",
"Y. c #D32C0B",
"T. c #E52202",
"R. c #EC2505",
"E. c #E83917",
"W. c #854204",
"Q. c #88480A",
"!. c #8B4A15",
"~. c #914C12",
"^. c #8C5013",
"/. c #955213",
"(. c #9B581A",
"). c #A15E1D",
"_. c #844B28",
"`. c #844B36",
"'. c #86563B",
"]. c #835B3D",
"[. c #BA6028",
"{. c #DB4C22",
"}. c #8D1D53",
"|. c #845D43",
" X c #835B49",
".X c #895A4F",
"XX c #896548",
"oX c #916B4D",
"OX c #90744C",
"+X c #8A6755",
"@X c #936D54",
"#X c #997456",
"$X c #997458",
"%X c #9D795B",
"&X c #A17D5A",
"*X c #924B7D",
"=X c #987765",
"-X c #8B7671",
";X c #A27E61",
":X c #9F8057",
">X c #8F867C",
",X c #A48163",
"<X c #A88568",
"1X c #AD8A6D",
"2X c #B18A6E",
"3X c #AC8974",
"4X c #B28E71",
"5X c #B49274",
"6X c #B59479",
"7X c #B9967A",
"8X c #BD9A7C",
"9X c #C09B7F",
"0X c #786A84",
"qX c #A42885",
"wX c #CC2CA8",
"eX c #99478F",
"rX c #B5539B",
"tX c #847590",
"yX c #ED3BD2",
"uX c #918988",
"iX c #A99591",
"pX c #A199A6",
"aX c #B4ADB0",
"sX c #C29E81",
"dX c #C5A284",
"fX c #CAA789",
"gX c #CEAD90",
"hX c #D2AE91",
"jX c #D5B194",
"kX c #DAB699",
"lX c #DDBA9C",
"zX c #E0BC9E",
"xX c #C2B9BC",
"cX c #E2BEA0",
"vX c #CEC7BF",
"bX c #E6C2A4",
"nX c #E9C5A6",
"mX c #ECC8A9",
"MX c #B0ACC6",
"NX c #BFBDD2",
"BX c #CECACD",
"VX c #DEDCE3",
"CX c #E6E4E7",
/* pixels */
"b.b.b.b.b.b.b.b.b.b.b.b.b.b.b.b.b.b.b.b.b.b.b.b.b.b.b.b.b.b.b.b.b.b.b.b.b.b.b.b.b.b.b.b.b.b.b.b.b.b.b.b.b.b.b.b.b.b.b.b.b.b.b.b.b.b.b.b.b.b.f.t.t.y.t.",
"b.b.b.b.b.b.b.b.b.b.b.b.l.b.b.b.b.b.b.b.b.b.b.b.b.b.b.b.b.b.b.b.b.b.b.b.b.b.b.b.b.b.b.b.b.b.b.b.b.b.b.b.b.b.b.b.b.b.b.b.b.b.b.b.b.b.b.b.b.b.h.t.t.t.a.",
"b.b.b.b.b.b.b.b.b.b.b.b.b.b.b.b.b.b.b.b.b.b.b.b.b.b.b.b.b.b.b.b.b.b.b.b.b.b.b.b.b.b.b.b.b.b.b.b.b.b.b.b.b.b.b.b.b.b.b.b.b.b.b.b.b.b.b.b.b.b.h.t.t.t.t.",
"b.b.b.b.b.b.b.b.b.b.b.b.b.b.b.b.b.b.b.b.b.b.b.b.b.b.b.b.b.b.b.b.b.b.b.b.b.b.b.b.b.b.b.b.b.b.b.b.b.b.b.b.b.b.b.b.b.b.b.b.b.b.b.b.b.b.b.b.b.b.h.t.y.y.t.",
"b.b.b.b.b.b.b.b.b.j.h.h.h.h.h.h.h.h.h.h.h.h.h.h.j.j.h.h.h.j.=.< *.x.h.h.j.g.g.g.s.f.h.h.h.h.h.h.k.h.h.h.h.k.k.h.h.h.h.h.h.h.h.h.h.h.j.h.j.h.s.0.9.0.0.",
"b.b.b.b.b.b.b.b.l.s.t.t.u.t.t.t.t.t.t.t.t.t.t.t.t.t.t.y.y.u.=.L L =.y.y.&.&.8 8 6 6 r.p.t.t.t.t.t.t.t.t.t.t.r.y.t.t.t.t.t.u.y.p.t.t.t.t.t.y.9.7 8.9.7 ",
"b.b.b.b.b.b.b.b.b.s.t.t.t.p.p.t.u.y.t.p.p.t.t.y.q.=.p.y.y.u.*.>.;.:.,.&.r.&.7 7 7 7 &.t.y.y.y.t.t.t.u.t.t.t.t.t.p.t.t.y.u.y.t.t.t.t.y.t.y.t.9.6 6 7 7 ",
"b.b.b.l.b.b.b.b.b.s.t.t.t.t.t.t.t.t.t.t.t.t.u.i.X.>.=.y.y.p.p.=.:.;.-.&.y.&.7 7 7 9 r.y.y.t.y.t.t.t.t.t.t.y.y.t.t.t.t.t.y.t.y.y.p.t.t.p.t.y.9.6 7 7 7 ",
"b.b.b.b.b.b.l.b.b.s.t.t.t.t.t.t.t.y.t.t.t.t.u.i :.;.<.z.q.s q.i :.;.-.&.p.r.9 7 7 7 r.u.y.t.y.t.t.t.t.y.t.t.t.y.t.y.y.y.y.p.y.t.t.t.t.u.t.t.9.9.7 7 7 ",
"b.b.b.b.k.g.h.g.h.h.j.j.g.h.h.h.h.h.h.k.f.f.q.@.' W.!.#. . .V V :./ U *.d d d 0 d r.t.p.y.y.u.h.h.h.h.h.h.h.h.h.h.h.h.h.f.r.9.9.9.0.t.t.t.p.0.6 7 7 7 ",
"b.b.b.b.h.r.r.t.t.h.b.b.b.b.l.b.b.b.v.v.x.@.| #.~ ( H.H.` ) J E _ ) H B & $ C H o.i.u.t.y.y.a.l.b.b.b.b.l.b.b.b.b.b.b.b.k.0.6 7 6 0.t.p.t.y.r.6 7 7 7 ",
"b.b.l.b.h.t.t.t.t.h.b.b.b.b.b.b.b.b.b.v.w.~ E M j J ) ! W W b E ) R x v b l $.6.1.>.i.p.u.u.a.b.b.b.b.b.b.b.b.b.b.b.b.b.v.0.6 7 6 9.t.t.u.y.9.9.7 w 7 ",
"b.b.b.b.h.t.y.t.y.h.b.b.b.b.b.b.b.b.v.v.c.X.N b j m T b j M b M T x g N { 1.].OXOXXX5.*.u.y.a.v.b.b.b.b.b.b.b.b.b.b.b.b.k.0.8.q 7 9.t.t.y.y.9.7 7 7 7 ",
"b.b.b.b.g.t.y.t.y.k.b.b.b.b.b.l.b.b.b.b.f + O j b b x h j b b b x g j { |.%X1X5X7X:X5.=.*.y.a.l.b.b.b.b.l.l.b.b.b.b.b.b.k.0.6 7 7 q t.t.t.p.9.7 7 7 7 ",
"b.b.b.l.h.t.y.t.y.j.b.b.b.l.h.s.s.s.i.d.B.B.| + b M b b M n n M l N $.XX<X9X9X7X<Xm.-.=.y.t.a.l.b.b.b.k.s.s.s.s.s.s.s.s.u.9.7 7 6 9.t.y.u.y.r.7 7 7 7 ",
"b.b.b.b.h.t.y.t.t.j.b.b.b.l.y.t.t.u.q.0XMXpXtXw.c M F M T F T T M ] ].%X5X7X2X#X7.H % i s *.a.l.b.b.b.h.t.r.t.t.t.0.t.t.0.9.7 7 6 9.y.y.y.y.0.7 7 7 7 ",
"b.b.b.b.h.t.t.t.t.h.l.b.b.l.s.t.p.a B.MXVXNXpX0XC x J T F F F F D ' 6.$X,X#XXX3.] F J V c t f x.b.b.b.h.t.t.y.t.y.t.u.y.t.w 7 7 7 9.t.t.u.y.0.7 7 7 7 ",
"b.b.b.b.h.t.t.t.t.k.b.b.x.j.*.0.a., C.NXVXVXNX0X| h N F T G F T G F { 7.|.1.] Q Q F T M N V & o.z.v.v.k.t.t.t.y.t.y.t.y.t.9 7 7 6 9.t.t.y.y.0.8.7 7 7 ",
"b.b.b.b.h.t.t.t.t.k.b.v.w.y , e t.w.| -XVXCXNX0XC h z G 1.4.6.3.6.1.] ~ { / T F F R ( ) ) ^ l V I ..z.d.t.t.y.t.u.t.p.y.t.w 7 7 7 q t.t.t.y.9.6 7 7 7 ",
"b.b.b.b.h.t.t.t.t.k.z.w.0XB.: , p ..  N.BXCXNX0X| ' 1.3.oX,X1X1X,XoX4.1.{ M F F R ( W.~.(.(./.!./ N | o.f u.u.u.y.y.t.y.t.9 7 7 6 9.t.t.u.y.9.9.7 7 7 ",
"b.b.b.b.g.t.y.t.t.k.f O.B.N.B.w.$ g w.tXNXBXpXe.n 1.#X<X5XhXkXkXjXdX<XoX6.] F M T ! H.Q./././.).(.!.} N C t f u.y.u.t.y.r.w 7 7 7 9.t.u.y.y.9.7 7 7 7 ",
"b.b.b.b.h.y.t.t.y.h.=.& # | N.n.m.m..X0XtX0Xe.X..X@XoX@X;X2XsXhXzXbXjX9X,X`.' G F E ! _ H.W.Q./.(./.~.!.} K C t a *.t.y.t.w 7 7 6 w t.t.t.y.0.8.7 7 7 ",
"b.b.b.b.g.t.y.t.t.k.f O + + @.=X7X9X3X=X+X.X1.XX5X5X@X4.D ' m.#X1XfXcXlXsX$X6.{ D F R R ! ) _ _ _ W./.(.~.;.[ Q P i *.y.t.w 7 7 6 9.t.t.p.y.9.7 7 7 7 ",
"b.b.b.l.h.t.y.t.u.f.s % O C XX,XfXzXlXjXfXsX3X5XsXsX;X`. X@.Z 1.3.%XjXnXjX5X$X6.] F F F F E R R R ( H.H.W.Q./.;.T N y e &.w w w 9.9.t.p.t.y.9.7 7 7 7 ",
"b.b.b.b.h.t.t.y.t.9.8.4 o & +X|.7XcXnXcXzXzXfX9X2X#X'..XuX-XZ 4.oX1XjXnXcXhX7X%X7.] F T F T F F T R R R ( W.W.W._ W C r 4 t.u.t.t.y.t.t.p.y.9.9.7 7 7 ",
"b.b.l.b.h.t.t.y.t.9.3 p o > XX|.;XjXnXcXjXgX5X&X'.! .X>XV.>X .6.;XsXzXcXnXcXhX1X7.' n T F T T T F F F M J W W W _ _ E c r 0.u.t.p.t.t.p.t.y.9.7 7 7 7 ",
"b.b.b.b.h.t.t.y.t.0 > p 4 q.4.oX.X2XhXfX4X=XXXM -XiXC.-XpXuXC 3.<XfXzXnXmXcXfX XI N j M T F F M b j b c # K T T W ( E m & d y.t.p.t.y.u.t.y.9.9 7 7 7 ",
"b.b.b.b.h.t.t.y.t.w 4 4 0.p  .oXXX#X4X&XW.z k >XBXaXXX`.>XB.j 4.<XfXzXnXcXfX$X:.W M b l j h n F M x c & r = N E W ! F v % e y.p.t.y.t.t.p.y.9.7 7 7 7 ",
"b.b.b.b.h.y.y.y.t.0.9.e s s a n.%.R ~ `.iXiXM.OXBXxX=X].5.& k 4.;XfXcXmXcX;X#.} ` F M J E E T b M M c i d u - E ( R m $ 2 0.p.p.p.t.p.p.y.y.9.7 w 7 7 ",
"b.b.b.b.h.t.y.y.y.t.u.*.s u.i.O.m.3XM.+XBXaXC.x.iXiX=XXX$.O g 3.3XhXcXmXcXsXn.N J n b E ) ) ( T n M N i f f I ^ W m # < q 0.p.p.t.t.t.t.y.y.0.7 7 7 7 ",
"b.b.b.b.h.t.y.y.t.t.u.u.u.p.u.O pXBX>XOXaX>Xc.eX*Xm.XX7.P n A `.4XlXcXcXcXcX7X2.O O g b F J R ^ E b b c : Y / E N & < 5 w t.t.u.y.y.y.t.t.p.9.9 7 7 7 ",
"b.b.b.b.h.r.y.t.t.p.t.y.u.p.u.% pXaXV.b.M.B.eXyXqXE } { N F.D.`.4XzXmXcXmXcXfX@XI # v l h h b W W E M m H / ~ v # < 7 7 7 r.p.y.u.t.t.t.y.t.9.7 7 7 7 ",
"b.b.b.b.h.t.t.t.t.t.y.t.y.u.p.p.M.B.N.N.B.rXyXwX}.G.A.Z.D.P.D._.4XzXnXnXzX7X+X6.} ( ~ E n n b n W W E J W E v # 2 7 7 7 7 t.t.t.y.t.y.y.t.y.9.9.6 7 7 ",
"b.b.b.b.k.h.h.k.h.s.t.t.y.t.t.u.X.u eXyXyXyXwX}.D.D.D.F.I.L.S.`.4XlXmXzX9X`.D R ! ! ^ W F F F M F W E T E c & u t.r.r.r.t.t.t.u.t.a.h.h.h.h.p.7 6 7 7 ",
"b.b.b.b.b.b.b.b.l.s.t.t.t.p.u.=.tX-XeXyXyXwX}.S.F.S.Z.P.T.D.%.@XsXcXcXiX'.G ~ R j g n T T T T F T F F M h & a t.t.u.t.y.y.t.t.u.y.s.b.b.b.b.s.7 7 7 7 ",
"b.b.b.b.b.b.b.b.b.g.t.y.u.p.u.+ aXiXe.N.e.}.G.F.S.S F.P.U.Z.XX7XjXmXjX+Xl ' G #.m. X$.k M F T T F n b b h : d y.u.t.t.u.p.u.t.t.y.s.l.b.b.b.s.7 7 7 7 ",
"b.b.b.l.b.b.b.b.b.s.y.y.y.p.p.+ aXvX>Xz.w.e.L.F.k Z.P.P.D.z =XhXcXnXlX=XI # I +X7X7Xm.O m M M n b b b b v : *.t.t.p.t.t.t.t.y.t.t.s.l.b.b.b.s.6 6 5 7 ",
"b.b.b.b.b.v.k.b.l.s.t.t.*.a.d.B uXvXiX2...G.P.A.A D.I.P.A.4.7XcXnXbXlXsX+X2.@X7XsX4X4.h M j g j b M F M N : d y.t.t.p.p.t.p.y.u.t.s.l.b.k.b.s.6 6 7 7 ",
"b.b.b.b.j.0.0.u.0.t.t.t.d.n.>.$.m.-XM.Y m F.P.A.A.P.R.P.J.2XkXbXcXzXhXfX7X3X7XsX4X X[ R n j C M M F T T v : *.y.p.t.y.t.t.p.y.t.t.u.a.s.s.s.r.7 7 7 7 ",
"b.b.b.b.i.5 q q q u.i.j.M.,XOXXX_.W `.XX%.P.I.D.F.P.R.P.K.sXbXzXhXfXdXsXfXfXfX5X X' R G N $.%.' D T T F v : *.y.p.t.t.y.u.t.t.p.t.t.t.t.t.t.&.9 7 7 7 ",
"b.b.v.z.i < < u u *.a c.7XhX9X#X%X5XfX6X'.P.T.P.P.I.R.U.K.dXbXkXdXsXdXdXdXdXfX<X$.M Q N <.XX7.' D T T F m : d t.t.u.p.t.t.p.t.t.y.&.p.y.y.y.w 9 w 7 7 ",
"b.b.x.Y H @   - L H   n.kXkX1X#X7XlXmXgX.XL.T.T.R.I.E.Y.K.8XlXgXdXdXdXdXdXdXdX7X+XX.c %.@X%X7.Q F T F T v : d t.t.y.t.t.p.t.t.p.y.p.p.y.&.y.r.7 7 7 7 ",
"b.d.o.L W m J ^ ) Q g 4.9X8X$X7XlXbXmXdX'.U.T.T.R.I.{.[.^.6XgXfXdXdXdXdXdXdXsXfX7X#X.X$X,X$X7.Q n T T F v ..i.a.p.u.y.p.t.p.u.y.&.p.&.&.*.*.r.7 7 7 5 ",
"v.2 H W M E ) W F m k #.OX,X4XgXlXlXkX6X`.U.I.T.R.I.{.[.(.<XdXdXsXdXdXdXdXdXdXdXdX9XiX3X,X$X6.G D T F E J ..x.v.s.u.t.t.t.t.y.t.&.*.< . - 0 &.6 7 7 7 ",
"v...m M J ^ R F h l b l $.oX#X2X7X8XdX1X_.L.T.T.T.R.{.[.!.,XfX9XdXdXdXdXdXdXdXdXfXfX9X4X,X%X|.{ F F R ! ^ X.z.b.f.t.t.u.p.t.t.p.y.d ; c m % 4 5 7 7 7 ",
"s L J M ) W M j O h m n G X.<.5.m.OX:X$X4.Z.F.T.I.{.[.J.1.1X9XfXdXdXdXdXdXdXdXdX9X8X4X,X,X:X#X6.Q D T ( ` K o.x.s.t.t.t.t.p.t.t.y.&.r c T b @ 1 7 7 7 ",
"< m M J ( m b + # # b J v o s i.,.>.<.7.].<.Z.U.I.Y.J._.#X9XdXdXdXdXdXdXdXdXdXsX9X4X,X,X,X,X&X].' D T ( _ / Z z.g.t.t.t.t.t.p.y.y.y.0 @ ^ T + 4 7 7 7 ",
"y j n H L c x O r i c H : f s.g.d.d.=.c.m.3.Y Z.J.A._.#X9XdXdXdXdXdXdXdXdXdX8X5X2X,X,X,X,X,X%X].' D R ! W._ K O.d.s.s.s.s.t.t.r.&.t.u # ` R B p 6 w 7 ",
"=.P v P i y H   e =.,.+.f b.v.b.b.b.b.v.c.5.Y <.m.oX,X8XfX9XdXdXdXdXdXdX8X6X1X,X;X,X,X,X,X;X%X].' D T ! Q.~.^ v i x.b.b.v.0.6 9 7 q u K _ E B p 6 7 7 ",
"v.=.i =.h.e r < *.j.b.b.b.b.b.b.b.b.b.b.c.z.,.m.OX<X6XsXfX9XfX9X9X8X7X6X1X:X,X,X;X,X,X,X,X;X%X].' D R ( Q./.!.^ v O.b.b.v.&.7 5 u * @ ^ ( T B p 6 7 7 ",
"b.b.x.l.h.t.t.t.y.h.b.b.b.b.b.b.b.b.b.b.b.b.v.z.+.n.$X<X4X7X9XdX8X4X1X,X,X,X,X,X,X,X,X,X;X,X%X|.' D F ! H.~.(.^.Q O.x.b.k.e 4 * = H ` _ T M B p 6 5 7 ",
"b.b.b.b.h.t.t.t.y.h.b.b.b.b.b.b.b.b.b.l.b.b.b.i.3 s +.,.m.OX<X6X9X9X8X4X<X,X,X,X,X,X,X,X,X;X$X6.' D T F ( Q.(.(.} & i x.=.* = L / !.~.( M g @ 4 8.w 7 ",
"b.b.b.b.f.t.t.t.y.h.b.b.b.v.h.h.h.f.h.h.h.h.f.t.8.q 5 p i X.n..X<X7XsXiX8X5X<X:X,X,X,X,X,X%X].{ D T T F ! H.~.(.^.m o > ; H ^ ^.~.H.H.E N # 4 5 w 7 7 ",
"b.b.b.b.h.t.t.t.y.k.b.b.b.l.p.y.y.t.t.t.t.t.t.r.7 7 7 9.w p p w.5.XX<X9XfX9X5X<X;X,X,X,X,X#X3.F F T F T R ! W.(.(.` O O m ` W.Q._ E G M P p 0.6 7 7 7 ",
"b.b.b.b.h.t.t.t.y.h.b.b.b.k.a.y.t.y.t.y.t.t.t.w 7 7 7 7 w 7 9 q p O.m.,X8XdX9X5X,X,X,X1X<X|.{ Q F F T F F R H./.).!.T b M ! ( W T M M c r y.9.9.7 7 7 ",
"b.b.b.b.h.t.t.t.y.j.b.b.b.k.a.t.t.y.t.t.t.y.t.r.7 7 7 7 7 7 w 7 &.u.z.7.:X8XfX9X5X4X5X5X%X1.D M F T T F T R ( W.(.(.W.T g M F F N v P u u.y.0.q 7 7 7 ",
"b.b.b.b.h.t.p.r.y.k.b.b.b.k.a.y.y.t.y.y.y.t.y.w 7 7 7 7 7 7 9 9 9 t.*.,.:.:X8XdXdXdX8X,XXX{ G F T F M M F T E ) ~.).(._ M N N N C , a t.t.u.9.8.7 7 7 ",
"b.b.b.b.h.t.p.y.t.h.b.b.b.v.a.t.y.u.t.u.y.u.y.&.9 7 7 9 &.r.&.&.r.t.=.t # 3.,X5X7X5X,XXX%.D F T T F b b F F F T ) ~.).(.( V & % 4 q t.t.y.y.0.6 7 7 7 ",
"b.b.b.b.h.t.t.t.t.h.b.b.b.l.a.t.y.t.y.y.y.t.y.w 6 9 7 7 r.y.p.p.u.*.U L Q G } 7.|.].7.%.M D M G M M m b j M T F T ) ~./.( C 4 5 5 9.y.t.t.y.9.6 7 7 7 ",
"b.b.b.l.h.t.y.t.t.k.b.b.b.k.a.t.t.t.y.y.t.y.&.&.7 7 7 7 t.y.p.a * - ;.^.! M T Q T G I M M Z C C C C C C $ c m E T T ) ` Z & 0 8.6 9.t.y.y.y.9.9.7 7 7 ",
"b.b.b.l.h.t.t.t.r.k.b.v.b.l.a.t.y.y.y.y.y.y.y.w 7 7 7 9 r.y.a Y :.!.Q.` T F F M N h B c V t a z.z.z.z.f a u @ v T T T M C p 7 q 7 9.r.u.t.p.9.7 7 7 9 ",
"b.b.b.b.h.y.p.t.u.h.v.k.v.k.u.r.t.t.t.r.t.t.t.r.9 9 9 9 t.f Y ;./.~.( M F N N x P r u p p s a.k.v.k.l.h.t.&.= x T F T m : q 8.9.7 9.t.t.t.u.r.7 7 7 7 ",
"b.b.b.b.h.r.y.u.t.t.w 0.0.9.9.w 9 w w 9 9 9 9 &.t.&.y.t.*.i :.W.` W T N l t t r a *.y.y.y.y.u.0.0.w 0.9.9 q t # m T T m & d t.0.t.t.t.y.p.t.0.7 7 7 7 ",
"b.b.b.b.h.y.t.u.r.9.6 6 7 7 7 6 7 5 9 7 9 7 7 r.y.y.y.y.&.f I E T m c | r s u.p.p.t.y.t.y.y.0.6 7 7 7 6 7 7 5 X # T M C < 0.p.u.u.p.p.y.p.p.r.9 7 7 7 ",
"b.b.b.b.h.t.t.y.t.9.7 7 7 7 7 7 7 7 5 5 1 3 3 0 &.*.u.p.y.*.i # m v = *.t.t.y.t.u.t.y.u.y.y.t.w 7 7 7 7 7 7 q X c E x % 7 r.p.t.p.t.e d e e 0 1 7 9 7 ",
"b.b.l.b.h.t.t.y.t.9.6 7 7 7 7 6 7 7 < % @ @ # @ . < d &.t.t.a P J v ; *.y.y.t.y.y.y.t.y.t.y.r.9 7 7 6 6 7 7 5 X # T c r 7 t.&.d *.1   @ # # @ # % 3 w ",
"b.b.b.b.h.t.y.t.t.9.9.9.w 9.w w w 4 P ^ ) ( ) ) ^ H @ * *.s.i.i H # ; d &.t.t.y.y.t.y.t.t.p.t.9.w w w 9.w q X # M v , e 0.d * . @ # E ) ) ( ) ) J > 5 ",
"b.b.b.b.h.t.t.y.t.t.r.t.r.t.t.t.u H ^ W M m E R ) ) ^ / P % r & O x # = 1 r.t.u.t.y.y.u.t.t.t.t.t.t.t.t.y.&.X v G c o . > : L ( ^ ( ) ! W M b E ! J > ",
"b.b.b.b.h.t.y.y.p.t.u.t.t.t.y.u.r K E b Q W Q M Q W ( ~ J b x m N n M # = 0 t.y.u.y.p.t.u.y.y.y.y.y.p.t.p.&.* c T N m x x m ~ ( ~ ( E F J W W b F T & ",
"b.b.b.b.h.t.y.t.t.p.y.y.u.p.t.t.r g g g T R n l l k k k k k k k k z z x   2 u.y.t.y.t.u.t.y.t.u.t.p.t.t.y.&.X + l l l l l k k k k k l z n T W l g k & ",
"b.b.b.b.h.y.t.y.p.p.p.p.y.y.p.u.s u y y y y y y y y y y +.f +.+.i t , , * 0.u.p.p.y.y.u.y.p.p.p.y.y.p.u.y.&.1 r y y y y y f +.+.f +., , t , , r , t r ",
"h.h.h.h.s.9.0.9.r.0.0.r.r.0.0.0.t.r.r.r.r.r.r.r.r.r.r.r.s.h.f.f.i.8.8.8.8.9.0.0.r.e r.r.r.0.r.0.0.r.r.r.r.r.&.&.r.r.r.r.t.s.s.h.h.a.8.8 8 8 6 8 6 8.8.",
"p.y.y.t.0.7 7 7 8.7 7 7 7 9.6 7 7 7 7 q w 7 7 w w w 7 7 7 7 6 7 7 q 7 7 7 7 7 7 6 9.q 8.7 7 7 7 9 7 7 7 7 7 7 7 7 9 7 q 7 7 7 7 6 7 q 7 q q 7 7 q q 7 ",
"y.y.t.y.0.7 7 7 7 7 7 7 7 7 6 7 7 7 7 7 6 7 7 7 6 6 7 7 6 6 6 6 6 7 7 7 7 7 7 7 7 6 7 7 7 7 7 7 7 7 7 7 7 7 7 7 7 7 7 7 7 6 6 6 6 7 7 7 7 7 9.6 6 7 7 ",
"t.y.t.y.0.8.7 7 7 7 7 7 7 7 7 7 7 7 7 7 7 7 7 7 w 5 7 7 5 7 w 7 7 7 7 7 7 7 7 7 7 7 7 7 7 7 7 7 7 7 7 7 7 7 7 7 7 7 7 7 7 9 9 7 7 7 7 7 7 7 7 7 7 7 7 "
};
