/* XPM */
static char *result[] = {
/* columns rows colors chars-per-pixel */
"75 75 237 2 ",
"   c #150702",
".  c #031704",
"X  c #181704",
"o  c #0B1912",
"O  c #250706",
"+  c #2D0200",
"@  c #350001",
"#  c #3D0300",
"$  c #390B03",
"%  c #281701",
"&  c #381604",
"*  c #3D0B14",
"=  c #291B14",
"-  c #3D1916",
";  c #152C0D",
":  c #052819",
">  c #182719",
",  c #292408",
"<  c #392803",
"1  c #313409",
"2  c #292816",
"3  c #3A2616",
"4  c #2B3419",
"5  c #383419",
"6  c #001822",
"7  c #2B1C28",
"8  c #0B2A2B",
"9  c #1D2927",
"0  c #0B332D",
"q  c #19352A",
"w  c #07373B",
"e  c #06353C",
"r  c #0C373C",
"t  c #0D383D",
"y  c #153234",
"u  c #183536",
"i  c #123B3F",
"p  c #1A3C3C",
"a  c #26272A",
"s  c #28272A",
"d  c #292A28",
"f  c #372A27",
"g  c #29382B",
"h  c #363629",
"j  c #2F2C35",
"k  c #223632",
"l  c #293A35",
"z  c #243D3A",
"x  c #2A3C3B",
"c  c #363B35",
"v  c #430400",
"b  c #4B0300",
"n  c #450B01",
"m  c #4C0B00",
"M  c #4B0A0B",
"N  c #530D01",
"B  c #5A0B00",
"V  c #4D1201",
"C  c #431A02",
"Z  c #4A1C04",
"A  c #4B130E",
"S  c #47180A",
"D  c #541300",
"F  c #591601",
"G  c #541B01",
"H  c #5C1C01",
"J  c #57170B",
"K  c #440919",
"L  c #451B13",
"P  c #4A1C13",
"I  c #421A1B",
"U  c #541B14",
"Y  c #571B15",
"T  c #600F00",
"R  c #611501",
"E  c #621D01",
"W  c #631E09",
"Q  c #482804",
"!  c #562704",
"~  c #5D2100",
"^  c #5A3506",
"/  c #452618",
"(  c #582817",
")  c #52221B",
"_  c #49341A",
"`  c #533611",
"'  c #642201",
"]  c #692501",
"[  c #642A01",
"{  c #6B2B01",
"}  c #64230A",
"|  c #66260C",
" . c #6C2C0B",
".. c #722E01",
"X. c #702D0A",
"o. c #6C3302",
"O. c #6B3505",
"+. c #743401",
"@. c #793601",
"#. c #753A02",
"$. c #7C3A02",
"%. c #78380A",
"&. c #642916",
"*. c #682E13",
"=. c #633314",
"-. c #6B3214",
";. c #6C351A",
":. c #6D3A1C",
">. c #713315",
",. c #75361A",
"<. c #4E0C25",
"1. c #461924",
"2. c #541725",
"3. c #482A24",
"4. c #572C21",
"5. c #453829",
"6. c #583727",
"7. c #4D3237",
"8. c #683A27",
"9. c #66332E",
"0. c #723D24",
"q. c #364104",
"w. c #1D433D",
"e. c #33412C",
"r. c #25423C",
"t. c #2C453B",
"y. c #364438",
"u. c #49400D",
"i. c #75470F",
"p. c #5A4827",
"a. c #454836",
"s. c #504830",
"d. c #6A4529",
"f. c #744629",
"g. c #75472A",
"h. c #70532A",
"j. c #694736",
"k. c #784D36",
"l. c #7C5335",
"z. c #7A5738",
"x. c #746128",
"c. c #163E41",
"v. c #1A3E42",
"b. c #503348",
"n. c #164141",
"m. c #1E4645",
"M. c #1F4846",
"N. c #214643",
"B. c #2B4744",
"V. c #214845",
"C. c #264A48",
"Z. c #2D4C4A",
"A. c #3C4D43",
"S. c #344B48",
"D. c #395147",
"F. c #34524E",
"G. c #39534E",
"H. c #3A5652",
"J. c #3D5552",
"K. c #434C45",
"L. c #495547",
"P. c #43554C",
"I. c #425751",
"U. c #425955",
"Y. c #475B55",
"T. c #565558",
"R. c #765047",
"E. c #7B5645",
"W. c #634A5D",
"Q. c #624F67",
"!. c #813E01",
"~. c #813D0B",
"^. c #844101",
"/. c #884807",
"(. c #92530E",
"). c #854813",
"_. c #834C21",
"`. c #885637",
"'. c #825B3D",
"]. c #8C603C",
"[. c #845E41",
"{. c #845E4A",
"}. c #866142",
"|. c #8A6345",
" X c #87644A",
".X c #8C654B",
"XX c #8D6A4D",
"oX c #93694E",
"OX c #916B4F",
"+X c #93714B",
"@X c #8A6752",
"#X c #926D51",
"$X c #946C57",
"%X c #967355",
"&X c #977459",
"*X c #9A765A",
"=X c #9D7B5D",
"-X c #A17D5E",
";X c #9C7B65",
":X c #A27E62",
">X c #A37F6C",
",X c #9D8259",
"<X c #A18257",
"1X c #A48163",
"2X c #A88567",
"3X c #A5836A",
"4X c #AA856A",
"5X c #AE8B6D",
"6X c #B18D6F",
"7X c #AC8B73",
"8X c #B18D71",
"9X c #B18E78",
"0X c #B59275",
"qX c #B79479",
"wX c #BA967A",
"eX c #BD9A7C",
"rX c #C09B7F",
"tX c #736784",
"yX c #7A7393",
"uX c #BD9B80",
"iX c #C19E81",
"pX c #C5A284",
"aX c #C8A587",
"sX c #C6A38A",
"dX c #C9A689",
"fX c #CDAA8D",
"gX c #D0AD8F",
"hX c #CDA990",
"jX c #D2AE90",
"kX c #D5B294",
"lX c #D9B698",
"zX c #DDBA9C",
"xX c #E1BD9F",
"cX c #E2BFA1",
"vX c #E6C2A4",
"bX c #E8C4A6",
"nX c #EBC6A8",
/* pixels */
"U.U.U.U.U.U.U.U.U.U.U.U.U.U.U.U.U.U.J.U.U.U.U.U.Y.Y.y.2 a.J.U.U.h f y.P.a.& y.P.U.U.U.Y.U.U.J.U.U.U.U.U.U.U.U.U.U.U.U.U.U.U.U.U.U.U.U.U.U.U.F.m.m.m.m.",
"U.U.U.U.U.U.U.U.U.U.U.U.U.U.U.U.U.U.Y.U.U.U.Y.Y.L.s.6.O.a.P.U.U.c < a.a.p.O._ A.I.Y.D.y.P.U.Y.Y.U.U.U.U.Y.Y.U.U.U.U.U.U.U.U.U.U.U.U.U.U.U.U.F.N.m.m.m.",
"U.U.U.U.U.U.U.U.U.U.U.U.U.U.U.U.Y.U.Y.T.U.Y.Y.s.4 1 O.^ ; a.L.a.6./ , X Q i.< e.P.P.e.2 y.P.I.J.U.Y.U.J.K.y.P.Y.U.U.U.U.U.U.U.U.U.U.U.U.U.U.F.m.m.m.m.",
"U.U.U.U.U.U.U.U.U.U.U.U.U.U.U.U.Y.y.d 7.Q.T.h Q Q O.#.! Q 5 > 2 =.%.! V [ #.< e.L.y., C 1 y.P.Y.U.Y.P.D.> : y.Y.U.U.U.U.U.U.U.U.U.U.U.U.U.U.F.m.M.M.V.",
"U.U.U.U.U.U.U.U.U.F.F.F.F.F.H.F.c - $ P 9.7.@ n { ^.!...] ! ! ^ [ ' ' ' ] { C 3 7._ ! ! . 5 D.F.D.h f f $ & Q e.D.F.F.F.F.F.H.F.F.H.F.F.H.F.Z.v.v.v.c.",
"U.U.U.J.U.U.U.U.U.Z.m.m.m.m.V.x _ =.-.W B M n D ] @.$.{ ] ..@.$.H b H ' ' ' N @ $ { !.~ . g r.r.h - # D -.-.^ 6.a.r.M.M.m.m.m.m.m.m.m.m.m.m.c.r c.c.c.",
"U.U.U.U.U.U.U.U.J.Z.m.m.V.V.B.h h.z.k.;.Y B n D ' ' H D H F G ' V V E ' E H N $ C +.$.~ X h t.h U Y ! :.'.'.'.z.j.e.r.V.m.m.m.m.m.m.m.m.m.m.c.e e e r ",
"U.U.U.U.U.U.U.U.U.Z.m.m.m.C.B.1 z.%X$Xk.;.W H F V m D D D D N m D H E ' H D D ~ o.+.{ ~ & 3 5 3 V } 0.{.%X*X=X+X`.p.k N.m.V.m.V.m.m.V.m.V.m.c.e e e r ",
"U.U.U.U.J.J.U.J.U.Z.m.m.m.m.r.u.z.*X,X+Xg.R H m # v F H D H H N G ' ' ' F N D ' o.' F H A $ % Z F } l.OX1X3X1X<X+Xp.; w.M.m.m.M.m.m.N.V.m.V.c.c.r r r ",
"U.U.U.U.J.F.F.F.F.F.F.F.F.F.A.u.h.&X3X;X[.B n v # v D H H E E E E ' E E E H m m m n v n F H ! H E | l.%X1X1X1X-X+Xd.5 F.F.m.w.w.c.v.m.m.m.m.c.r r r r ",
"U.U.U.U.F.M.m.n.M.F.U.U.Y.Y.L.q.x.&X2X1XE.v # # # v b D N m D E ] H D m m D v # # # # v m H ] E *.l.XX-X1X1X,XXXh.d.L.Y.J.v.e e e c.m.V.V.m.c.e r i r ",
"U.U.J.J.F.M.m.m.M.F.Y.U.U.J.P.a.h..X*XXX9.v m V V m n v # v n F F D v # v # m V m V n v v m E E *.l.#X=X=X=XOXg.^ 7.H.J.J.c.w w e c.m.m.m.V.c.c.r r r ",
"U.U.U.U.F.m.M.m.N.G.U.U.U.U.U.Y.6.g.l.6.- n F E E H V n v v v n m v v n n n D H E H D n # m H E E ;.`.{.[.}.l.( Z 7.P.Y.J.v.e r e i m.m.m.M.c.r r r r ",
"U.U.U.U.F.m.m.m.m.G.U.U.U.U.U.P.3.! =.v + M E ' E F D F F m # # # n D F F F D F E ] F v $ N E E R E *.0.0.:.*.H J ) l G.H.v.e r e c.m.N.V.m.v.r r r r ",
"U.U.U.U.F.m.m.M.m.H.U.U.I.G.y.K.d.i.d.8.d.8.{ ] H m m H F D V m N D F H H F m D E ' ~ ( ) =.;.0.:.;.} B R R E ' ] ~ , h B.i r r r c.m.m.m.V.c.r r r r ",
"J.U.U.U.F.m.M.v.m.H.U.U.L.9.&.R.&X-X-X;X=XOX)...E E D v v J H F H D m v v m F E E E :.'.{.'.[.z.'.z.0.R } ' H ' @.^.o.Q k i r r r c.m.V.m.M.v.r r r r ",
"U.U.U.U.F.M.M.M.M.F.Y.L.h.E.+X2XeXeXeXwXwX6X%X).!.@.W # # v v b b b n # b ] ..!...!.).$X-X&X&X%X&XOX'.f.g. .E E ] /.).4 g p r r r i N.m.m.V.c.e e r r ",
"U.U.U.U.F.M.M.m.M.F.Y.p.x.2XeXpXpX0X8XrXfXdX0X-X].,.B 1.b.Q.W.W.Q.b.3.4.`.`.`.`.`.`.|.|.{.-X8XwXrXqX2X%X|.k.*.R E %.(.^ 5 u r r e i m.N.m.m.c.e r r r ",
"U.U.U.U.F.M.M.m.w.L.s.x.,XeXpXpXrX*X.XeXlXxXaXrX>X6.O 7.tXyXyXyXyXQ.b.`.*X-X-X-X-X-X$X`.0.oXrXjXxXzXdX0X<XXXg. .E ../.~.` 2 y r r c.m.N.V.m.c.c.r r r ",
"U.U.U.U.F.M.M.n.w.p.x.<XeXpXaXeX+X|.6XjXcXxXfXrX:X3.  1.W.W.W.W.Q.b.3.`.>XrX0XrXrXrXrXrX>X*XoXrXkXkXlXjXqX1XXXk.*.] /.(.i.< y t e c.m.m.m.V.c.c.r r r ",
"U.U.U.U.F.m.M.x s.'.<XeXiXfXiX:X`.-XfXlXxXxXfXrX:Xk.- + + @ + + + @ d.&XrXrXgXjXfXjXzXcXlX5X[.$X8XpXxXxXhXwX-X[.;.] ~.(.i.=.g y r c.m.m.V.M.c.r r r r ",
"U.U.U.U.F.m.M.3.z.:XeXpXjXxX9X0..X0XrXpXrXrXrXrXqX:Xk./ 3./ 3.) 3.j.&X9XrXpXkXxXlXzXxXxXgX0X&Xg..XrXxXnXxXfX6X'.*.R ] $.^.,.3 8 e c.m.m.m.V.c.t i r r ",
"U.U.U.U.F.m.M.I k.4XiXhXcXcX4X&.'.1X6X6X6X6X6X0X5X2X&X X.X@X@X@X.X%X1X5X8X8XrXrXrXrXrXrXwX4X@X&.'.iXlXcXcXjX6X[.*.B m ' )./.Z 6 y c.m.m.m.V.c.r r r r ",
"U.U.U.U.F.M.M.Y `.2XiXlXnXcXeX'.f.'..X.X|.|.oX]..X.X#X#XoXoXoX.X@X@XXX.X|.oX|.|.|.|.|.|.{.[.k.`.:XfXcXcXcXgX6X'.&.N v B ).(.} 9 c.n.m.V.M.M.c.t r r r ",
"U.U.U.U.F.M.m.Y `.1XeXkXvXvXkX6Xg.] >.>.>.>.>.>.>.>.>.>.>. .W J M A }  .-.} E W E  . .X.X.W _.>XfXxXvXbXvXjX6X[.*.B v B ).(.| f r.m.m.m.m.V.c.r r r r ",
"U.U.J.U.F.M.m.3 d.OX5XrXkXvXcXlXrXrXrXrXrXrXrXrXrXrXiXiXiX@XM E ] # 4.;X4XJ v n 4.oX4X:X-X4XiXjXcXvXvXvXxXjX5X[.*.m v F %./.@.( j z m.V.V.m.c.t r r r ",
"U.U.U.U.F.m.m.l p.h.+X2XrXkXcXbXnXnXcXcXvXbXbXbXnXcXcXcXiX$X| ..{ # 3.;X>XA v v ( @XqXfXkXxXcXbXvXvXvXvXvXfX5X[.*.F V D ' $.!.! : l V.m.m.M.n.r r r r ",
"U.U.U.U.F.m.M.V.c p.h.XX2XrXkXcXcXcXnXnXbXbXbXbXnXcXcXhXR.,.%.] F n P 9.9.Z F R Y U @XlXxXxXxXcXvXvXbXvXxXfX6X[.*.R H m D ' $.^ : l V.M.V.M.c.r r r r ",
"U.U.U.U.F.m.m.M.M.c 5.p.&X4XrXgXkXxXcXcXbXcXvXcXcXcXnXiX9.T %.] N ' { ] ' +.] ] Y # E.kXuXE.;XhXbXvXvXcXjXdX5X[.*.E H m m ' $.! ; t.M.V.m.M.c.r r r r ",
"U.U.U.U.F.m.m.M.V.C.: , z.%X6XpXiXfXlXxXxXxXcXbXnXnXcXhXR.W { ] E ] @.!.$.@.{ D V k.7X9XR.  M $XjXvXhX3X>XiX8X}.*.E H b m ' i.O.Q 5.r.m.m.M.c.r r r r ",
"U.U.U.U.F.m.m.m.m.t.2 & =.l.1XrXiXdXdXdXpXgXxXvXcXcXcXiX9.N ' ' E ' ' ' ' ' } L R.9XqX8.J ( } b $XiX&X@ 6.4X5X}.*.R E m N ' @.^.O.Q h N.V.M.c.t r r r ",
"U.U.U.U.F.m.m.m.m.h L J E -.'.1XiXfXiXdXiXdXgXjXkXkXlXwX9.M E ' ' ' E E ' ' # E.qX9XR.E X.{ J M 9.{.`.| +.z.E.'.,.R H m m E ] !.O.< h V.M.m.w.t r r r ",
"U.U.U.U.F.m.m.m.z > Z } H B ! k.;X3X;X>X;X>X:X;X;X;X3X@X4.v H E E ' E ' ' ~ @ E.7XE.  Y +.@.' G D J X.@.+.& 6.z.0.T H m F ] ' +.O.Q h w.m.m.n.r r r r ",
"U.U.U.U.H.G.F.G.y.; C E H D N A U ) ) ) ) ) ) ) ) ) ) U V m V E ' E ' ' ' H V I 3.- $ H ' ..$.G G +.] ] ~ P j.z.0.B H D [ $.{ ..O.Q a.D.G.F.V.t r r t ",
"U.U.U.U.U.U.U.U.a.2 C F D { +...{ [ { { { { { { { { { { { ' H E ' ' ' ' ' E V v v v V H E +.$.H D ] ] F J z.oX'.:.B m ] $.!.{ ] ! , s.I.U.U.Z.w w r r ",
"U.U.U.U.U.U.U.U.A.2 C ' [ +.$.$.#.$.!.%.$.#.#.@.#.$.%.!.#.+.' E F v n F F D D F E H D E E { +.D b E E F U %X%Xj.J N ' i.!.@.] W C X 5.P.Y.J.Z.t r r r ",
"U.U.U.U.U.U.U.Y.P.> & +.@.{ ' ' ] ] ' ] ' ] ] ] ' E H H H G G F ) 6.4.L $ n G ' E ' H E ' ' E D D E E N A  X|.( v ' $.!.@.' ' ! - 2 y.Y.U.U.B.c.w r r ",
"U.U.U.U.U.J.J.J.G.9 &  .{ ' E E E E E E E H E E J A A A A L A D {.3X1XR.$ J E E ' ' ' ' ' E E H H E F v M 6.d.X.+.+...{ ] ' E C = c G.U.J.U.N.e r r r ",
"U.U.U.U.F.v.v.r.n.j C G H E ' E F F D N B N B b 4.E. XE.E.@XE.@X9XdXpX3Xj.F H ' ' E E ' E ' ' ' E F m G H F ' @.@...' E H G Z P j B.C.Z.Z.Z.c.e r r r ",
"U.U.U.U.Z.e r w r p > & ! H H F m m A Y ) ) U # E.9XpXuXuXeXuXiXpXpXpXpX:X9.F E ' ' ' E ' ' E ] H m H ] $.!.+.] E E H H Y K * f v.m.m.m.m.v.c.e r r r ",
"U.U.U.U.Z.e e c.r n.p > X   X % J =.E.:X4X2X3X;X6XpXpXpXpXdXaXpXpXpXpXpXuX3Xj.m H ' ' ' } ' ' ' E H E ] { ..] E D b $ X f c z v.m.V.M.m.m.V.c.c.r r r ",
"U.U.U.U.Z.e e e i n.V.p q q q h / =.[.4XrXaXpXdXpXpXpXpXpXpXiXpXpXpXpXpXpXpX;Xk.L $ b n v n n b m N N m m m N D D n $ 5 x V.m.N.m.V.m.V.M.M.c.e r r r ",
"U.U.U.U.Z.c.c.r i n.M.N.n.N.N.t.> n ;.[.5XpXaXpXpXpXpXpXpXpXpXpXpXpXpXpXpXpXpX3XR.4.9.6.9.6.6.6.( 4.4.4.4.( P V H C X l V.m.N.m.M.m.m.M.V.M.c.c.r r r ",
"U.U.U.U.F.v.m.v.m.M.m.m.V.V.N.r.= b } l.%X8XpXpXiXpXpXpXpXpXpXpXpXiXpXpXpXpXaXeX3X3X7X7X3X7X3X&X@X@X@X@XXXE.8.~ H V = v.N.V.m.V.V.m.V.V.M.M.c.c.i r r ",
"U.U.U.U.Z.m.m.m.M.m.m.M.m.m.V.w.7.2.&.d.|.=X0XpXpXpXpXpXpXpXpXpXpXpXpXpXpXpXpXpXsXsXaXaXfXpXeX5X2X2X2X1X*X'.f.} Y 2.j v.m.m.m.V.m.V.m.m.m.m.c.r r r r ",
"U.U.U.U.F.m.m.m.m.M.M.m.V.V.m.V.c.b.<.G g..X*X0XpXpXpXpXpXpXpXpXpXpXpXiXpXpXpXpXpXpXrXpXrXqX4X,X1X1X1X*X}.:.' G P 1.N.m.m.V.V.m.V.m.V.m.m.m.c.e r r r ",
"U.U.U.U.F.m.V.m.m.m.m.m.m.m.m.m.c.j * / &.g.|.=X0XiXpXpXpXiXpXpXpXpXpXpXpXpXpXiXpXpXpXpXqX5X1X1X1X1X1X%X'.;.E Z - f m.m.m.m.m.V.M.m.M.m.V.m.c.c.r r r ",
"U.U.U.U.F.m.m.m.M.Z.Z.Z.Z.Z.Z.Z.S.S.7.2.D -.z.%X2X0XpXpXpXpXpXpXpXpXpXpXpXpXpXpXpXpXpXpX6X,X1X1X1X1X=XXXg.*.J U 7.c Z.Z.Z.m.c.m.n.m.m.V.m.V.c.y r r r ",
"U.U.U.U.F.m.M.m.m.F.U.U.U.U.U.J.U.H.L.a.X *.l.#X:X1X0XiXpXpXpXpXpXpXpXpXpXpXpXpXpXpXpXeX6X-X-X1X1X:X#Xk.W W & f a.U.U.U.H.v.c.e e c.v.N.m.m.c.c.e r r ",
"U.U.U.U.F.m.m.m.M.H.U.U.U.U.U.U.U.U.L.4 X } *.z.#X-X4X0XpXpXpXpXpXpXpXpXpXpXpXpXpXpXeX8X2X1X1X1X1X<XXXg.E E % 5 L.U.U.Y.J.v.e e e c.v.m.m.V.c.e e e r ",
"U.U.U.U.F.M.M.n.m.H.J.U.U.U.U.U.U.U.P.y.2 % H f.XX:X1X2X0X0X0X0XrXaXaXaXpXpXpXpXqXqX8X1X<X1X1X1X1X%X'.:.] W % 2 a.Y.U.U.J.v.e r e c.m.V.V.V.c.c.r r r ",
"U.U.U.J.F.M.M.m.M.F.U.U.U.U.U.Y.U.Y.Y.Y.a.4 Z i.}.=X1X1X2X1X2X2X0XrXrXrXrXrXpXqX4X1X2X:X1X1X1X:X%X'.:.W E ( < h P.Y.U.Y.J.v.r r c.c.m.m.m.m.c.c.r r r ",
"U.U.U.U.F.M.m.m.M.H.U.U.U.J.H.F.F.F.F.Z.D.a./ ! f.].*X1X1X:X-X1X2X5X5X5X5X5X5X4X1X:X1X1X1X1X:X%X'.:.W E H & 5 K.F.F.F.F.Z.v.e r e r v.N.m.N.v.e r r r ",
"U.U.U.U.F.M.M.m.M.H.U.U.U.J.C.M.M.m.m.m.m.r.h P G d..X*X:X1X1X1X1X,X:X1X:X:X:X:X1X1X1X1X1X:X%X'.-.E R ] [ % q t.m.m.m.m.v.c.r r e c.N.V.m.m.c.e r r r ",
"U.U.U.U.F.m.M.m.M.F.U.U.U.J.C.M.m.M.m.m.m.m.m.g & Z d.}.=X1X1X1X1X1X1X1X1X<X1X1X1X1X-X-X1X%X'.-.E E ] +.#.& g r.m.m.m.m.v.r r r e c.m.m.N.M.c.c.r r r ",
"U.U.U.U.F.m.m.m.m.H.U.U.U.J.M.M.m.m.m.m.m.m.M.p g 2 Q f.|.=X1X1X1X1X<X1X1X1X1X1X1X1X=XOXXX'.>.E E ' +.!.$., q r.m.m.m.N.m.c.r r c.c.m.V.m.M.v.e r r r ",
"U.U.U.U.F.m.m.m.m.F.U.U.U.U.C.m.M.m.V.V.M.m.m.c.k > @ } f..X%X*X;X1X1X1X1X2X1X;X*X%XoXk.g.:.W E ] +.!.^.#.% q r.m.m.V.m.m.r r r r i m.m.m.V.c.e r r r ",
"U.U.U.U.F.m.M.m.m.H.U.U.U.J.C.m.V.m.m.m.m.V.m.w.g 3 Q E } g.'.[.%X-X=X=X<X:X1X%X[.z.k. .W ' E ] ..!.^.^.#.Q 4 r.m.m.m.m.m.c.r r r i m.N.V.m.c.c.r r r ",
"U.U.U.U.F.m.m.m.m.H.U.U.U.J.C.m.m.V.m.m.V.V.N.g 5 ^ $.+.E | *.;.l.XXXXXXXXXXXX'.0.&.| E R E ' +.!.^.^.^.$.[ , g r.V.m.V.m.i e r e c.m.m.m.m.c.e r r i ",
"U.U.U.U.F.m.m.m.M.F.U.U.U.J.C.m.V.m.m.m.M.m.g 6.i.i.^.$.] E R E ;.g.g.g.f.g.g.:.W T E E ' E ' ..@.@.!.^.^.#.< ; x V.V.m.m.i r r e c.m.m.V.m.c.c.r r r ",
"U.U.U.U.F.m.m.m.v.G.U.U.Y.J.C.m.m.m.m.m.M.e.` /.(./.!.@.' ' ' ' ] | } ' ' | ' | ' ' ' ' ' ' ' ' E ' @.^.^.^.O._ c N.m.V.n.i r r r c.m.m.m.M.c.r r r r ",
"U.U.U.U.F.m.m.m.M.F.J.G.J.J.C.v.m.m.m.m.r._ /.(.^.^.@.] ' ' ~ H H H H H ~ H ~ H H ' ' ~ ~ H ~ ~ E E ' +.!.^.$.;.4.h n.m.m.i i r r c.m.m.V.V.c.r r r r ",
"U.U.U.U.F.m.V.m.m.v.y c.c.c.c.c.i i t p q ; ).(.!.+.] E } G C C C C C C C C C C C & C C C C Z H ' E ' ] @.+.i.%.Q = i r c.n.m.v.m.m.m.V.m.M.w.r r r r ",
"U.U.U.U.F.m.m.C.v.c.e e e e c.c.w w w u 4 . O.!.@.] E ' F P I I 1.I I I I - - - - - - - I - I U H H ' ' E E { -.( f y e r m.V.m.V.V.m.m.M.V.i r r i r ",
"U.U.U.U.Z.M.M.m.m.c.r r r r r r r r r u 9 . ~ ] ' ' ' G X f x x x x x x x x x z x z x x x x l 1.K V H ' E E & 3 f y t r t m.m.m.m.m.V.V.V.m.c.c.r r r ",
"U.U.U.U.F.M.m.m.m.i e r r r r w r r w i y = & & C ~ ] G & 3.r.m.m.m.M.M.M.M.M.M.M.M.M.m.M.M.n.7 K V H ' H < X d y w t r r n.m.m.m.m.V.V.m.V.c.e r r r ",
"U.U.U.U.F.m.m.m.m.c.i i c.c.i i n.n.p i i u = > = P H ~ H L f S.Z.m.n.p n.n.m.m.m.M.m.m.V.V.z 1.J H E H Y = d z i w.i p v.Z.S.Z.Z.V.n.n.m.m.c.r r r r ",
"U.U.U.U.F.m.m.m.m.m.m.m.z l 0 q q q 0 q x V.x r.h = $ V ~ S L 3.c i i r c.c.M.m.m.m.M.m.V.r.> L W H D n 2.f N.M.m.r.q 0 q g e.l y.A.c.w r r r r r r r ",
"U.U.U.U.F.M.m.m.m.m.V.z h Q < Q Q Q < Q _ k k k d O O v D W ! m 3 e e r r c.m.m.M.m.m.m.z 9 X ! E D n @ K f k u k h ! 1 Q Q Q < 1 5.y e e r r r r r r ",
"U.U.U.U.F.M.m.m.m.m.t.f F +.i.#.#.#.#.$.[ & n $ V V b v n D H H & o y r r c.m.m.M.m.m.x 2 X C H F m v m m m n n $ ~ $.#.i.#.#.$.O.Q f y i r r r r r r ",
"U.U.U.U.H.M.M.M.m.N.h ` @.{ ' D G G H ] +.#.@.#.#.+.{ H F D n m Z A 7 e r c.m.m.m.M.v.f Y J n m V F H [ +.+.+.#.#.+.{ H G F G H { %.9.= r r r r r r r ",
"F.H.F.F.C.c.c.c.m.x : Q $.' ~ [ [ ~ F H { #.@.@.#.+.{ ' ' H D D H C o y e c.c.c.v.n.x <.A ~ J D H E ' ] +.@.@.@.@.{ ' F H [ { H ' %. .  y r r r r r i ",
"M.m.M.m.c.e e e c.y 6 < { G ~ @.@. .H H H H H H H H R H ~ ~ H H H & o y e r r c.c.c.u K Z J H F H H E H H E H H H H H J | @.#.~ G O.[ $ r r r r r r r ",
"m.m.M.m.c.c.e e e 9 : + m v m D F D b b b b b b b b b b b b b b b @ o y r r r r e c.j K @ b m b b b b b b b b b b b b m N N H m b m m # y r r r r r r ",
"m.m.M.M.c.c.c.c.r y 8 9 a a a 9 9 a a a s s s s s s a a a a j a 7 8 8 e r r r r e e u j 9 a a a a a s s s s s s s s s s a a 9 s a a a a r e e c.r r r "
};
