/* XPM */
static char *result[] = {
/* columns rows colors chars-per-pixel */
"75 75 220 2 ",
"   c #0C0601",
".  c #191700",
"X  c #071617",
"o  c #1A1A18",
"O  c #290402",
"+  c #3C0101",
"@  c #370A05",
"#  c #281805",
"$  c #381904",
"%  c #390A11",
"&  c #26191A",
"*  c #381A16",
"=  c #351C19",
"-  c #0C241B",
";  c #252300",
":  c #372500",
">  c #2B251B",
",  c #37251A",
"<  c #3E311A",
"1  c #081F22",
"2  c #391E23",
"3  c #032323",
"4  c #082424",
"5  c #172929",
"6  c #102F31",
"7  c #083336",
"8  c #07353B",
"9  c #0C373C",
"0  c #0D393E",
"q  c #173434",
"w  c #12363A",
"e  c #123B3E",
"r  c #1C3C3B",
"t  c #282927",
"y  c #2C2D2A",
"u  c #372A26",
"i  c #2A302D",
"p  c #383328",
"a  c #222C32",
"s  c #243433",
"d  c #293532",
"f  c #253937",
"g  c #2A3A36",
"h  c #243E3C",
"j  c #293E3C",
"k  c #373834",
"l  c #343D3B",
"z  c #440200",
"x  c #4A0200",
"c  c #450A03",
"v  c #4B0C01",
"b  c #460D0D",
"n  c #530C00",
"m  c #590A05",
"M  c #4C1301",
"N  c #4C1C03",
"B  c #4D150A",
"V  c #461808",
"C  c #541401",
"Z  c #591501",
"A  c #551B03",
"S  c #5C1B01",
"D  c #561A0A",
"F  c #451816",
"G  c #511914",
"H  c #621502",
"J  c #611D01",
"K  c #631E0A",
"L  c #492408",
"P  c #552501",
"I  c #5D2202",
"U  c #5C2C03",
"Y  c #582709",
"T  c #593306",
"R  c #472716",
"E  c #48331B",
"W  c #5A3115",
"Q  c #642201",
"!  c #692501",
"~  c #642901",
"^  c #6C2B01",
"/  c #66260C",
"(  c #702E00",
")  c #752D09",
"_  c #653504",
"`  c #6C3202",
"'  c #733302",
"]  c #793702",
"[  c #7C3B02",
"{  c #753808",
"}  c #652815",
"|  c #692B15",
" . c #673314",
".. c #6B341C",
"X. c #6E3B1D",
"o. c #733B18",
"O. c #451D25",
"+. c #4D1835",
"@. c #442926",
"#. c #46362C",
"$. c #563829",
"%. c #4F2731",
"&. c #463C39",
"*. c #6B3A24",
"=. c #723D23",
"-. c #673E36",
";. c #1D403D",
":. c #23403E",
">. c #2B433C",
",. c #35433C",
"<. c #75450F",
"1. c #45433B",
"2. c #574636",
"3. c #684A29",
"4. c #724325",
"5. c #74442A",
"6. c #77492D",
"7. c #7A492A",
"8. c #694935",
"9. c #7B4E31",
"0. c #734A38",
"q. c #7D5236",
"w. c #765538",
"e. c #7E5439",
"r. c #163F42",
"t. c #193E42",
"y. c #4A3945",
"u. c #533A4B",
"i. c #164244",
"p. c #1E4645",
"a. c #1F4846",
"s. c #214644",
"d. c #2B4645",
"f. c #214846",
"g. c #264A48",
"h. c #2C4D4A",
"j. c #394944",
"k. c #324E4C",
"l. c #3B4E4A",
"z. c #35524E",
"x. c #39534E",
"c. c #3C5552",
"v. c #3F5854",
"b. c #454B47",
"n. c #44514B",
"m. c #435651",
"M. c #4E5650",
"N. c #425955",
"B. c #6C4E4D",
"V. c #7A5A45",
"C. c #6C5966",
"Z. c #6C5975",
"A. c #6B6675",
"S. c #746479",
"D. c #813E03",
"F. c #803F0B",
"G. c #854409",
"H. c #8A4C12",
"J. c #914E13",
"K. c #985518",
"L. c #82573B",
"P. c #835B3D",
"I. c #87653F",
"U. c #865E42",
"Y. c #865C44",
"T. c #855A52",
"R. c #876445",
"E. c #8B6246",
"W. c #8C654A",
"Q. c #8E6B4C",
"!. c #916C4E",
"~. c #8D6953",
"^. c #936E52",
"/. c #957254",
"(. c #987456",
"). c #957158",
"_. c #9A765A",
"`. c #9D795C",
"'. c #A07C5E",
"]. c #8A736C",
"[. c #A27E61",
"{. c #A1825C",
"}. c #A48163",
"|. c #A88467",
" X c #AA8669",
".X c #AE8B6D",
"XX c #B08D6F",
"oX c #B28E71",
"OX c #B59375",
"+X c #B89577",
"@X c #B99679",
"#X c #BD9A7D",
"$X c #C09D7F",
"%X c #756B88",
"&X c #88778A",
"*X c #887C97",
"=X c #8F8596",
"-X c #A59B9B",
";X c #918AA7",
":X c #928AA7",
">X c #B3ABB0",
",X c #C19F81",
"<X c #C5A284",
"1X c #C8A587",
"2X c #C9A688",
"3X c #CDAA8C",
"4X c #D0AD8F",
"5X c #D1AE90",
"6X c #D5B294",
"7X c #D8B496",
"8X c #DAB799",
"9X c #DCB99B",
"0X c #E0BC9E",
"qX c #E2BFA0",
"wX c #E6C2A4",
"eX c #E8C4A6",
"rX c #9F9DC1",
"tX c #B6B1C6",
"yX c #CAC8DB",
"uX c #CFCDD9",
/* pixels */
"N.N.N.N.N.N.N.N.N.N.N.N.N.N.N.N.N.N.N.N.N.N.N.N.N.N.N.N.N.N.N.N.N.N.N.N.N.N.N.v.N.N.N.N.N.N.N.N.N.N.N.N.N.N.N.N.N.N.N.N.N.N.N.N.N.N.N.N.N.N.k.p.p.p.p.",
"N.N.N.N.N.N.N.N.N.N.N.N.m.N.N.v.N.N.N.N.N.N.N.N.N.N.N.N.N.N.N.N.N.N.N.N.N.N.N.N.N.N.N.N.N.N.N.N.N.N.N.N.N.N.N.N.N.N.N.N.N.N.N.N.N.N.N.N.N.N.z.p.p.f.f.",
"N.N.N.N.N.N.N.N.N.N.N.N.N.N.N.N.N.N.N.N.N.N.N.N.N.N.N.N.N.N.N.N.N.N.N.N.N.N.N.N.N.N.N.N.N.N.N.N.N.N.N.N.N.N.N.N.N.N.N.N.N.N.N.N.N.N.N.N.N.N.z.p.a.p.p.",
"N.N.N.N.N.N.N.N.N.N.N.N.N.N.N.N.N.N.N.N.N.N.N.N.N.N.N.N.N.N.N.N.N.N.N.N.N.N.N.N.N.N.N.N.N.N.N.N.N.N.N.N.N.N.N.N.N.N.N.N.N.N.N.N.N.N.N.N.N.N.k.p.p.p.f.",
"N.N.N.N.N.N.N.N.v.c.z.z.z.z.c.k.z.z.z.z.z.z.z.z.c.z.z.z.l.z.v.z.x.l.z.c.z.k.k.h.k.z.k.x.x.x.z.z.x.x.z.z.z.z.z.z.z.z.z.z.z.z.z.z.z.z.z.z.c.z.h.i.i.i.t.",
"N.N.N.N.N.N.N.N.v.h.p.p.p.p.p.p.p.p.p.p.p.p.a.p.p.p.p.g < p >.;.g y s j ,.p 7 ;.8 q p p s.p.p.p.p.p.p.p.p.p.p.p.p.p.p.p.p.f.p.f.p.p.f.p.p.p.r.9 8 r.9 ",
"N.N.N.N.N.N.v.N.N.h.p.p.p.f.p.p.f.p.p.a.f.p.p.p.p.f.h E T L >.;.k , O G  .T y 6 q u T W d s.p.p.s.p.p.a.f.f.p.f.f.f.f.p.p.p.p.p.p.a.p.p.p.p.r.9 8 9 9 ",
"N.N.v.N.N.N.N.N.N.h.p.p.p.p.p.p.p.p.p.p.p.p.p.s.f.f.f E T L >.,.E _ ' ] G.[  ., % Y ` T k s.p.p.p.p.p.p.p.p.p.p.p.p.p.p.p.f.p.f.f.p.f.p.p.p.i.9 9 9 9 ",
"N.N.N.N.v.v.v.v.v.h.p.p.p.p.p.p.p.p.p.p.a.p.s.s.f.p.f E ` ' $.O.D ! ' D.G.] ' ^ A C I L k s.s.p.f.f.a.a.p.p.a.a.p.p.a.p.p.p.p.p.p.p.p.p.f.p.r.9 9 9 9 ",
"N.N.N.N.v.k.z.k.z.z.z.z.z.z.z.z.z.z.z.z.k.j y 5 6 r.s * U F.) B v C Q ^ ~ Q Q ! S n M , i s.d.y u p p ,.z.z.z.z.z.k.z.z.z.p.r.r.r.i.p.f.p.a.r.9 9 9 9 ",
"N.N.v.v.z.p.i.p.p.z.N.N.N.N.v.N.N.N.N.m.&.F c @ o 6 w 5 , ~ ! S S C C S C v C C C Z A A @.t y V v W 3.8.n.N.N.N.N.N.N.N.v.t.8 9 9 e p.f.f.a.r.0 9 9 9 ",
"v.N.v.v.z.p.p.p.p.z.N.N.N.N.N.v.N.N.N.b.@.T  ./ M & 5 5 , D ! J Q J C C v c C A S K D A B B v S *.U.R.3.1.m.N.m.N.N.N.N.c.t.8 9 9 e p.p.p.f.r.9 9 9 9 ",
"N.N.N.N.z.p.p.p.a.c.N.N.N.N.N.N.N.N.N.b.$.w.E.6./ M @ @ + v S D J Q J C v A Q Q S C z z C S / ..U.`.Q.<.2.n.N.N.N.N.N.N.v.t.8 9 9 e p.f.f.a.r.0 9 9 9 ",
"N.N.N.N.z.p.a.p.a.z.N.N.N.N.N.N.v.m.N.j.2.!.{.(.6.} A V F O.b z v S J S S S S C B F O.F B J ..U.`.{.V.<.1.m.N.v.N.v.N.v.c.t.8 9 0 e p.p.p.f.r.0 9 9 9 ",
"N.N.N.N.z.p.a.p.a.z.N.N.v.v.k.h.h.h.k.j E Q.'.'.Q.9.A %.*X;XS.O.+ b F b b x B + u.*X;XC.x K ..U.{.Q.3.1.d.h.h.h.h.h.h.h.d.t.8 9 9 e p.p.p.f.e 0 9 9 9 ",
"v.N.N.N.z.p.p.a.a.z.N.N.N.v.a.p.p.p.s.;.l 8.4.6.=...S %.*XyXtX*XS.%.O O O C.*X*X;XrXrXS.x K K ) 4._ T 1.f.i.p.p.p.i.p.p.i.e 9 9 9 e p.f.p.a.i.e 9 9 9 ",
"N.N.N.v.z.p.a.p.p.z.N.N.N.N.g.p.g u u u %.0.5.4.=.=.H +.:XuXtXS.%X%X%X%X%X%XZ.=XyXyXtXS.x | L.Y.I.P.e.-.p >.>.f.f.a.;.f.a.9 8 9 9 e p.f.p.a.r.r.8 9 9 ",
"N.N.N.N.z.p.a.p.p.z.N.N.N.c.l i 2 G B B -.E.(.`._.Y./ %.rXuX-X  A.tXuXuXyX=X  S.uXyX*X%.C 7.!..X.X X'.V.8.B.,.f.f.a.a.a.a.;.8 9 9 e p.p.p.f.r.9 9 9 9 ",
"N.N.N.N.z.p.a.p.p.c.N.N.m.b.F G | / S ..P.}.<X2X,XoX~.=.].tX>XA.=X>X>X>X>X].y.=X>X=XB.=.U.}.+X2X4X3X+X_.Q.Q.V.j.:.a.a.a.i.;.9 9 9 e p.p.a.a.i.9 9 9 9 ",
"N.N.N.N.k.p.p.p.p.x.N.m.b.F S { D.) =.E.}.<X7X2XoXoXoX_.T.&X:X;X%XB.C.A.A.B.%X*X~.T.[.|.|.oX2XqXeX0X6XOX{.Q./.B.:.f.a.a.p.0 9 9 9 e p.f.p.f.r.9 9 9 9 ",
"N.v.N.N.z.p.p.p.p.c.N.b.@.A { K.D.X.U.[.,X7X3XXXW.L.^.[.[.~.B.B.@.u.Z.%X%X%XZ.B.`.OX@X@X[.W.oX9XwXqXqX4X.X_. XV.l f.f.p.p.0 9 9 9 e f.p.f.a.r.9 9 9 0 ",
"N.N.N.N.z.p.p.p.p.z.N.b.B { K.J.) ..^.,X8X5X@X}.~.6.| Y.oX[.Y...M u u.u.u.u.+.-.[.@X[.[.oXY.Y.oX3X0XeX6XOX|.+X`.2.>.f.f.p.0 9 9 0 e p.f.p.a.r.9 9 9 9 ",
"N.N.v.N.z.p.a.p.p.c.n.@./ J.J.] 4.L. X8X9X,X`.U.L.K } ^.oX'.E.!.V.= O + O O $.).,X,X,X.X'.q.7.'.<X9XeX9X2X.X@X}.w.l p.f.p.0 9 9 8 e p.p.p.f.i.9 9 9 9 ",
"N.N.v.v.z.a.p.p.f.k.k V { K.J.^ 4./.#X4X,X`.q.} ..| =._.,XoX.X$X|.R.w.V.V.T._.@X,X@XoX[.Y.7.!.oX1X8XeXeX6X#X#X}.8.d i.p.i.;.e e e i.p.f.p.a.t.0 9 9 9 ",
"N.N.N.N.z.p.p.p.p.q & Y J.J.[ ! X.`.2X3X}.q.K } q.9.=.^.oX$XXXOX$X@XoX X_.!.^._.).Y.L.o.L.W.oX,X6X9XeXwX8X<X#X{.8.t 9 w r.t.i.p.a.p.p.f.p.a.r.8 9 9 9 ",
"N.N.N.N.z.p.p.a.p.t @ o.K.G.( H X.`.2X#XU.=.=.L._._.L.9.(.oX[.[. X X[.W.7.o.6.L.Y.W.E.P.(.+X3X0X9XwXwXeX9X1X#X_.*.2 q 9 r.r.f.f.a.a.f.p.f.p.i.9 9 9 9 ",
"N.N.N.v.z.p.s.f.:.= I H.J.G.! H X.'.,X XP.P._.}.OX#X'.9.L.L.W.L.9.7.L.Y.L.Y.^.'.|.oX#X#X,X6X0XqXeXeXeXqX6X<XOXQ.W % i 9 9 p.p.h f f h a.a.a.;.0 0 9 9 ",
"N.N.N.N.z.p.a.f.y V ! G.G.^ ! H X.[.,X@X[.[.OX$X,X,X+X'.L.=.L.7.7.L._. XoXOX,X,X<X1X3X8XqXqXqXeXeXeXqX6X1X#X|.R.} b t 9 0 p.:.u R E p >.:.:.e 6 7 0 9 ",
"N.N.N.N.z.p.:.:.2 M Q ! ! Q J H X.`.,X<X#X#X,X<X,X1X,X,X+XoXXXXXoX+X$X1X1X1X5X8X9X9X9XqXeXeXeXeXqXqX8X<X<X@X'.P.} b 2 7 w >.p T ` ` _ > , , < > t 7 w ",
"N.N.N.N.k.h p u R A S x C S J H 4.(.OX,X<X<X<X<X1X,X2X7X7X0X0X0X8X8X8X8X8X8X0XwXwXwXeXeXqXeXqX0X6X3X2X<X<X#X}.U...m F i w > T [ ] ] _ O L _ _ _ R 6 9 ",
"N.N.N.n.k u T _ A v S ^ ~ S S H 5.Q..X,X<X<X<X<X,X,X3X5X5X5X0XqXeXwXwXwXwXwXwXwXwXeXwXeXeX0X6X4X1X<X<X<X<X#X'.E...J U 2 q X ` [ ! ' ` z I ' ' ] U o w ",
"N.N.l.#.$ # ' ' C C ' D.^ v S J ..e.}.,X<X<X<X<X1X,X,X2X1X1X4X7X7X7X8XqXeXeXeXeXwX8X6X7X7X4X1X<X<X<X<X<X<X#X[.9./ ( ` * p T [ ! Z ^ ~ x S S J ] ~ & 9 ",
"N.j.$.U M P [ ( z ~ G.D.J v S Q H X.(.,X<X<X<X<X<X<X<X<X<X<X<X<X1X<X1X7X0X8X8X0X6X3X<X<X<X<X<X<X<X<X<X<X<X#X^...H ( ^ B : { ] C C ! Z x S v Z ' Q & 9 ",
"b.$.T I S [ [ Q z ~ G.] S x S Q H  ./.#X<X<X<X<X<X<X<X<X<X<X<X<X<X,X<X1X1X1X1X1X2X<X<X<X<X<X<X<X<X<X<X<X<XoXU./ H ! I C I [ ^ M C Z C M Z M A J M & q ",
"k T ' A A [ ' Q x ^ ] ! S x S S Z Y ^.,X1X<X<X<X<X<X<X<X<X<X<X<X<X<X<X<X,X,X$X<X<X<X<X<X<X<X<X<X<X<X<X<X@X[.Y.} Z Z Z ~ [ ] Q S C M C S C M M v c @ 1 ",
"3 U ' c S ] ! S v ~ ' S v c C S D x e.OX<X<X<X<X<X<X<X<X<X<X<X<X<X<X<X<X<X<X<X<X<X<X<X<X<X<X<X<X<X<X<X<X@X`.0.Y n Z ! ] [ ^ Q J Z S J J N $ O V S c X ",
"5 P L $ M ! J C C I S C C c v ~ ( ^ ..^.#X<X<X<X<X<X<X<X<X<X<X<X<X<X1X<X<X<X<X1X<X<X<X<X<X<X<X<X<X<X<X<XOX).*.A ! ' ] D.( Q J C S J S S L &.o $ ` P X ",
",.$ u u c n C C S S C S Q ~ ^ ' ( { B $.OX<X<X<X1X<X<X<X<X<X<X<X<X<X<X<X<X<X<X<X<X<X<X<X<X<X<X<X<X<X,X,X{.w.^ ^ ] [ ( ^ J H A C S N $ L 1.x.g o : R 6 ",
"m.,.b.k + M C J J J S J ! ' ' Q Z D x 0.@X1X<X<X<X<X<X<X<X<X<X<X<X<X<X<X<X<X<X<X<X<X<X<X<X<X<X,XOX,X,XOXV.R ^ ] ' ! n C C C C C M , i d d.h.s.6 5 5 w ",
"N.m.N.b., A S S J Q Q Q S L N M C c A W.@X<X<X<X<X<X<X<X<X<X<X<X1X<X<X<X<X<X<X<X<X<X<X<X<X<X,X.X}.OX<XOXV.O V L A C v M C C S v * d d.p.p.p.r.9 w 9 9 ",
"N.N.N.N.k b S A Z J Q Y $ > > V A Z } Q.+X<X<X<X<X<X<X<X<X<X<X<X$X<X<X<X<X<X<X<X<X<X<X<X<X,X.X).'.+X,X XT.k u , & c S S H S A * s p.p.p.f.p.r.9 9 9 9 ",
"N.N.N.N.j.+ S C v Z S V > g j u G H | P.}.#X<X<X<X<X<X<X<X<X<X<X<X<X<X<X<X<X<X<X<X<X<X<X#X.X`.`. X$X+XW.-.j.>.>.5 # P A P A , s s.f.s.p.p.f.r.9 9 9 9 ",
"N.N.m.N.l + M C c @ $ > g p.f.h @.B / =.Q.OX<X<X<X<X<X<X<X<X<X<X<X<X<X<X<X<X<X<X<X<X#XOX}.{.`.|.@X#X XY.y.h.g.g.>.> ; > * > d p.f.p.p.f.p.a.r.9 9 9 9 ",
"N.N.N.N.d.@ M C M . o f p.p.p.s.y F m K e.}.#X<X<X<X<X<X<X<X<X<X<X<X<X<X<X<X<X<X,XXX}.`.Q._.}..X#XOX(.B.M.N.v.N.h.f d d i f :.p.p.f.p.p.f.a.r.0 9 9 9 ",
"N.N.N.v.j.y V L $ > f f.p.f.f.p.f u B / 4.Q.+X<X<X<X<X<X<X<X<X<X<X1X<X<X<X<X#XOX}.(.Q./.`.}.|.OX$X|.w.&.m.N.N.N.h.p.p.p.p.f.p.f.f.p.f.f.f.p.r.9 e 9 9 ",
"N.N.N.N.z.r i t t f p.p.f.p.p.p.s.j u G D q.}.$X<X<X<X<X<X<X<X<X<X<X<X<X$XOX|.!.R.Q.`.}.}.}..X$X+X_.B.n.N.N.N.N.h.p.p.p.p.p.f.p.p.p.p.p.p.f.r.9 9 9 9 ",
"N.N.N.N.z.p.p.;.s.p.p.p.p.i.p.p.s.p.d F D 5.!.OX<X<X<X<X<X<X<X<X<X$X@XOX}.!.W.Q.^.`.}.}.}.}..X#X}.w.&.l.N.N.N.N.h.p.p.p.p.p.p.p.p.a.f.p.f.p.r.9 9 9 9 ",
"N.N.N.v.z.p.p.a.a.h.h.h.h.k.h.k.h.h.,.u G / 9.}.#X<X<X1X<X<X<X<X$X+X'.!.!.W.!.`.}.}.}.}.}.}.XX#X{.3.k z.N.N.N.N.x.h.k.k.g.p.p.;.i.p.p.f.p.a.t.9 9 9 9 ",
"N.N.N.v.z.p.p.p.p.z.N.N.N.N.N.v.v.N.m.1.R C 5.^.oX<X<X,X,X,X,X+X.X}.`.(._.`.'.}.}.}.}.}.}. X#X#X'.B.1.v.N.N.N.N.N.N.N.N.v.i.8 9 8 r.t.f.p.p.r.r.8 9 9 ",
"N.N.N.N.z.p.p.p.a.z.N.N.N.N.N.N.N.N.N.n.@.G } 9.[.,X,X+XoX.X.X X[.}.}.}.|.|.}.}.}.}.}.'.|.OX$X|.R.B.m.N.N.N.N.N.N.N.N.N.c.;.8 9 8 r.p.f.p.f.r.8 8 9 9 ",
"N.N.N.N.z.p.p.p.a.z.N.N.N.N.N.N.N.N.N.N.1.@.n *.^.OX,XOX|.{.`.}.}.}.}.}.}.}.}.}.}.}.}.}. X#X#X!.3.1.N.N.m.>.>.>.,.l.N.N.m.t.8 9 8 t.p.f.f.p.r.8 9 9 9 ",
"N.N.N.N.z.p.p.p.a.z.N.N.N.N.N.N.N.N.N.v.n.@.B ..L._.+X,X@X X}.}.}.}.}.}.}.{.}.}.}.}.}.}.OX<X.XL.W 1.j.,.p ; : : # p j.j.d.t.8 e 7 r.p.p.p.f.r.r.9 9 9 ",
"N.N.N.N.z.p.p.p.p.v.N.N.N.v.z.z.z.k.z.k.l.k %.m | q._.OX<X@X X}.}.}.}.}.}.}.}.}.{.}.}. XOX.XE.K C $ . : T <.H.H._ L ; ; o q 9 9 8 r.i.p.p.p.r.8 9 9 9 ",
"N.N.N.N.z.p.p.p.p.z.N.N.N.v.g.a.p.a.p.p.p.:.@.N m | q._.OX,X+X X}.{.[.[.}.}.{.[.}. X.X+X.X!.7.D v P ' [ H.K.K.K.G.` T P # X 6 9 8 r.p.f.f.p.r.r.e 9 9 ",
"N.N.N.N.z.p.p.p.a.z.N.N.v.c.g.a.p.p.p.a.p.:.u V S H | q._.OX,XOX X|. X X|.|. X|..X#X$X.X^.5.} Z C ^ G.G.' Y D D P R R = & X 1 6 r.9 p.f.p.f.r.9 9 9 9 ",
"v.N.N.N.z.p.p.p.a.z.N.N.v.v.g.a.a.a.a.a.a.>., @ A J H | e.`.|.oX@X#X@X#X#X#X#X@X$X$XXX!.5.K H Z C S ! I G @ % $ & t r r r 6 6 7 9 r.p.p.p.a.r.9 9 9 9 ",
"N.N.N.N.z.p.p.p.a.z.N.N.N.v.g.p.a.p.p.a.s.y R @ M Q J H ..e.E.(..XXXXX.X.XXX.XXX.X|.!.7.K H S C C B b F , d d d d s.f.f.p.e 9 9 9 e p.f.p.a.r.9 9 9 9 ",
"N.N.N.N.z.p.p.p.a.c.N.N.N.N.g.p.p.a.f.:.p U ~ S C Z Q J H  ...L.W.!.W.W.Q.Q.Q.Q.Y.L.=./ H S C S ! Y @.k h p.a.f.p.p.f.p.p.0 9 9 0 e p.f.p.a.i.9 9 9 0 ",
"N.v.N.N.z.p.p.p.a.z.N.N.N.v.g.p.a.a.:.y U H.<.^ S Z S Q J H m | 4.5.5.5.5.5.5.5.*.K m J Q Q ^ G.<.~ #.j.a.p.p.p.p.f.p.a.p.e 9 9 9 e p.f.f.a.r.9 9 0 9 ",
"N.N.v.v.z.p.p.p.a.z.N.N.N.v.g.p.a.:.p Y H.K.J.' Q Q Q Q Q S A A C n n n n n n v Z J Q I J ^ G.K.J.` L p p.p.f.p.f.p.f.p.p.0 9 9 8 e p.p.p.f.r.9 9 9 9 ",
"N.N.N.N.z.p.p.p.p.c.N.N.N.c.d.p.p.y L G.K.K.H.' J Q I S A * * * * * * = = = * 2 * B S I Q J ! G.K.H.Y #.s.p.p.p.a.p.p.p.p.e 8 9 8 e s.f.a.p.i.0 9 9 9 ",
"N.N.N.N.z.p.p.p.p.z.c.c.c.c.f.p.p.d R G.K.G.D.^ Q S A @ & d h :.t.:.:.s.:.:.:.j f u b B S Q J ! [ [  .k p.p.p.p.p.p.p.p.i.e 0 e 0 e f.p.a.p.i.0 9 9 9 ",
"N.v.N.N.z.p.f.p.p.t.t.r t.t.e 0 e w t W G.' Q Q N z = q h p.a.f.f.a.f.a.a.p.f.f.p.:.d u M I J Q S D p r e w e 0 0 0 e e e i.p.p.p.p.p.p.p.a.;.8 9 9 9 ",
"N.N.N.N.z.p.p.p.p.t.9 9 8 e 9 9 9 9 7 u R Q S $ t d f f.a.a.p.p.f.p.p.f.p.p.f.p.a.a.p.:.t # I I F t 7 8 8 9 9 w 0 w 9 w w p.f.p.f.p.a.p.a.a.;.0 9 9 9 ",
"N.N.N.N.z.p.p.p.q 5 1 4 1 4 3 7 e 9 9 q * S I . 6 a.a.a.p.a.a.a.f.p.f.f.p.f.p.f.p.f.p.f.f . L S * a 9 9 e r.8 3 3 4 X 3 3 5 :.f.p.f.p.f.p.p.r.9 9 0 9 ",
"N.N.v.N.z.p.f.q L P P P P P $ o 3 8 0 w t G A . q p.a.a.p.;.p.p.p.f.p.p.f.p.p.f.f.p.f.r 5 $ N L u q 0 7 3 4 5 > N U P U P L y i.a.p.f.p.f.f.r.9 9 9 9 ",
"N.N.N.N.k.p.d V ` ' ^ ' ] ' ' P : > 5 6 5 * M # - ;.f.f.g.g.g.h.f.i.p.i.i.p.f.p.f.p.f.q . S A = t 5 q > : N A ^ ' ] ' ` ' ' P y d.g.i.p.p.i.r.9 9 9 9 ",
"N.N.N.N.z.f * { ! C C Z H ! ' [ [ U @ @ @ @ c D $ - ;.f.x.v.v.N.k.r.9 9 9 t.p.f.p.p.s.q # I S v @ O @ U ] [ [ ] ! J S C C J ' Y k c.e 8 0 0 9 9 0 9 9 ",
"N.N.N.N.z.t.F S v I ' ( J S J Q ! I S S S S S H I # 3 s.v.N.N.N.z.9 8 9 8 r.p.f.f.p.f.q # S J S S S S S ! Q J Q S J ^ ' ^ c A B &.z.0 8 9 8 9 9 w 0 9 ",
"N.N.N.N.z.h % z z z n v x x z z z x x x x x x x x O 3 d.x.N.N.N.z.0 9 9 9 r.p.p.f.p.f.q   z x x z x x x z z z z x x x n v z z + k z.0 8 w 0 9 9 9 9 9 ",
"N.N.N.N.z.p.:.:.j d.h h j d.j j j h j :.:.j :.j h :.r f.v.N.N.N.c.9 9 9 9 t.f.f.p.a.a.p.r :.>.h h j d.h j j j j j j :.h j n.n.n.N.c.0 8 9 9 9 9 9 9 9 ",
"z.z.c.k.h.i.i.r.i.i.i.i.i.r.i.i.i.i.i.i.r.i.i.i.i.i.p.i.h.k.z.x.d.e 8 8 0 e t.i.;.i.i.i.i.i.i.i.i.i.i.i.i.i.i.i.i.i.i.i.i.h.k.k.h.h.0 0 w 9 9 9 9 9 9 ",
"f.p.f.p.r.9 9 9 9 9 9 9 9 9 e 9 9 9 9 w 9 e 0 w 9 9 0 9 9 9 0 8 9 9 9 9 9 9 9 9 9 9 9 9 9 9 9 e 9 9 9 e e 9 w 9 e 9 9 w 9 9 8 9 9 9 9 9 9 9 9 9 9 9 9 ",
"p.p.p.p.r.9 9 9 9 9 9 9 9 9 7 9 9 9 9 9 8 9 8 9 9 9 9 8 8 8 8 8 8 9 9 9 9 9 9 9 9 9 9 9 9 9 9 8 9 9 9 8 8 9 8 9 8 9 9 8 9 8 8 8 8 8 9 9 9 9 9 9 9 9 9 ",
"f.p.a.a.i.9 9 9 9 9 9 9 9 9 9 9 9 9 9 9 9 9 9 9 9 9 9 9 9 9 9 0 9 9 9 9 9 0 9 9 9 9 9 9 9 9 9 9 9 9 9 9 9 9 9 9 9 9 9 9 9 9 e 9 9 9 0 9 0 9 9 9 9 9 9 "
};
