/* XPM */
static char *result[] = {
/* columns rows colors chars-per-pixel */
"75 75 241 2 ",
"   c #150500",
".  c #0E1204",
"X  c #001B17",
"o  c #1A1B19",
"O  c #2A0503",
"+  c #3B0201",
"@  c #360906",
"#  c #281608",
"$  c #391706",
"%  c #320010",
"&  c #2A1916",
"*  c #391716",
"=  c #002219",
"-  c #192512",
";  c #282719",
":  c #372D10",
">  c #37231A",
",  c #2E1F24",
"<  c #0A292A",
"1  c #182A2A",
"2  c #192C31",
"3  c #0D3134",
"4  c #06353B",
"5  c #0C373C",
"6  c #01383E",
"7  c #0D383D",
"8  c #123336",
"9  c #123B3E",
"0  c #193839",
"q  c #282928",
"w  c #392927",
"e  c #342C2B",
"r  c #28322C",
"t  c #37362C",
"y  c #2A2E33",
"u  c #372B35",
"i  c #273735",
"p  c #2B3533",
"a  c #243E3C",
"s  c #2B3C3C",
"d  c #383536",
"f  c #333B35",
"g  c #440200",
"h  c #470804",
"j  c #4C0C01",
"k  c #530200",
"l  c #550900",
"z  c #590901",
"x  c #461707",
"c  c #4C1401",
"v  c #4E1B02",
"b  c #541401",
"n  c #5A1601",
"m  c #541A02",
"M  c #5B1B01",
"N  c #56190B",
"B  c #4C0213",
"V  c #510D16",
"C  c #461716",
"Z  c #581A15",
"A  c #660701",
"S  c #7C0D00",
"D  c #611501",
"F  c #621D01",
"G  c #661B09",
"H  c #492506",
"J  c #5C2201",
"K  c #562508",
"L  c #583504",
"P  c #472515",
"I  c #592919",
"U  c #463618",
"Y  c #573716",
"T  c #642201",
"R  c #6A2501",
"E  c #652902",
"W  c #6C2B01",
"Q  c #65260B",
"!  c #712E02",
"~  c #722D0B",
"^  c #6C3202",
"/  c #6B3405",
"(  c #743301",
")  c #793602",
"_  c #7C3B02",
"`  c #783908",
"'  c #672B14",
"]  c #692C13",
"[  c #702F16",
"{  c #6A341A",
"}  c #763814",
"|  c #471B23",
" . c #571626",
".. c #462425",
"X. c #522D2B",
"o. c #43362B",
"O. c #453836",
"+. c #58393B",
"@. c #6A2D23",
"#. c #693825",
"$. c #753C24",
"%. c #1D413E",
"&. c #27423D",
"*. c #35423A",
"=. c #504018",
"-. c #7A4905",
";. c #6E4610",
":. c #59472B",
">. c #4A453D",
",. c #694A2F",
"<. c #76482B",
"1. c #69493B",
"2. c #7A4C33",
"3. c #784A37",
"4. c #7C5235",
"5. c #7C5439",
"6. c #0E3B40",
"7. c #153E41",
"8. c #1A3E42",
"9. c #373B49",
"0. c #443A43",
"q. c #6A3251",
"w. c #154243",
"e. c #1E4645",
"r. c #1F4846",
"t. c #214644",
"y. c #2B4745",
"u. c #214846",
"i. c #264A48",
"p. c #2C4C4A",
"a. c #384845",
"s. c #324D4C",
"d. c #35524E",
"f. c #39534F",
"g. c #3B5752",
"h. c #3C5552",
"j. c #464947",
"k. c #42524E",
"l. c #48504D",
"z. c #5B524E",
"x. c #435652",
"c. c #425955",
"v. c #425C58",
"b. c #6E514C",
"n. c #795848",
"m. c #776652",
"M. c #5A466A",
"N. c #68566B",
"B. c #546D69",
"V. c #776A71",
"C. c #8D1605",
"Z. c #9C1504",
"A. c #911109",
"S. c #A81602",
"D. c #B71904",
"F. c #A3181A",
"G. c #813E03",
"H. c #972C15",
"J. c #972A22",
"K. c #C91C02",
"L. c #D71D01",
"P. c #E61B00",
"I. c #CC2000",
"U. c #D32C0B",
"Y. c #E52202",
"T. c #EC2505",
"R. c #E83917",
"E. c #854205",
"W. c #89480A",
"Q. c #8B4A15",
"!. c #914C12",
"~. c #8C5013",
"^. c #955213",
"/. c #9B581A",
"(. c #A15E1D",
"). c #844B28",
"_. c #844B36",
"`. c #86563B",
"'. c #835B3D",
"]. c #BA6028",
"[. c #DB4C22",
"{. c #8D1D53",
"}. c #845D42",
"|. c #835C48",
" X c #895A50",
".X c #896548",
"XX c #916B4D",
"oX c #947741",
"OX c #8A6755",
"+X c #936D54",
"@X c #997456",
"#X c #987458",
"$X c #9D795B",
"%X c #A17D5A",
"&X c #924B7D",
"*X c #987765",
"=X c #8B7671",
"-X c #A27E61",
";X c #9F8057",
":X c #8F867C",
">X c #A48163",
",X c #A88568",
"<X c #AD8A6D",
"1X c #B18A6E",
"2X c #AC8974",
"3X c #B28E71",
"4X c #B49274",
"5X c #B59479",
"6X c #B9967A",
"7X c #BD9A7C",
"8X c #C09B7F",
"9X c #776A83",
"0X c #CC2CA8",
"qX c #98478F",
"wX c #B5539B",
"eX c #847590",
"rX c #ED3BD2",
"tX c #918888",
"yX c #A99591",
"uX c #A199A6",
"iX c #B3ADB0",
"pX c #C29E81",
"aX c #C5A284",
"sX c #CAA789",
"dX c #CEAD90",
"fX c #D2AE91",
"gX c #D5B194",
"hX c #DAB699",
"jX c #DDBA9C",
"kX c #E0BC9E",
"lX c #C2B9BC",
"zX c #E2BEA0",
"xX c #CEC7BF",
"cX c #E6C2A4",
"vX c #E9C5A6",
"bX c #ECC8A9",
"nX c #B0ACC6",
"mX c #BFBDD2",
"MX c #CECACD",
"NX c #DEDCE3",
"BX c #E6E4E7",
/* pixels */
"c.c.c.c.c.c.c.c.c.c.c.c.c.c.c.c.c.c.c.c.c.c.c.c.c.c.c.c.c.c.c.c.c.c.c.c.c.c.c.c.c.c.c.c.c.c.c.c.c.c.c.c.c.c.c.c.c.g.c.c.c.c.c.c.c.c.c.c.c.c.s.e.e.t.r.",
"c.c.c.c.c.c.c.c.c.c.c.c.c.c.c.c.c.c.c.c.c.c.c.c.c.c.c.c.c.c.c.c.c.c.c.c.c.c.c.c.c.c.c.c.c.c.c.c.c.c.c.c.c.c.c.c.c.c.c.c.c.c.c.c.c.c.c.c.c.c.s.e.e.e.r.",
"c.c.c.c.c.c.c.c.c.h.c.c.c.c.c.c.c.c.c.c.c.c.c.c.c.c.c.c.c.c.v.h.c.c.c.c.c.c.c.c.c.c.c.c.c.c.c.c.c.c.c.c.c.c.c.c.c.c.c.c.c.c.c.c.c.c.c.c.c.c.d.e.e.e.e.",
"c.c.c.c.c.c.c.c.c.c.c.c.c.c.c.c.c.c.v.v.c.c.c.c.c.c.c.c.c.c.c.v.c.c.c.c.c.c.c.c.c.c.v.v.c.c.c.c.c.c.c.c.c.c.c.v.c.c.c.c.c.c.c.c.c.c.v.v.c.c.s.e.e.i.e.",
"c.c.c.c.c.c.c.c.g.f.d.d.d.d.d.f.d.d.d.f.d.d.d.d.s.d.f.f.d.d.f.f.d.d.d.d.d.s.s.s.&.f.*.3 a.d.d.f.f.f.g.d.d.d.d.d.d.d.f.f.f.f.f.d.d.d.d.f.d.d.i.7.w.e.8.",
"c.c.c.c.c.c.c.c.v.p.e.e.e.e.e.e.e.e.e.e.e.e.e.e.e.t.e.e.e.e.e.r.e.e.e.e.e.7.6.6.6 t L L f e.r.r.%.%.r.r.r.%.r.r.e.e.e.e.e.e.e.e.e.e.e.e.t.e.7.6.4 6.5 ",
"c.c.c.c.c.c.c.c.c.p.e.e.e.t.e.e.e.u.e.e.t.r.e.u.e.e.e.r.r.e.r.e.t.e.e.e.e.7.4 4 *.;.;.:.*.e.r.r.&.&.&.%.r.r.r.r.r.e.e.e.e.r.e.e.e.r.e.r.r.r.7.5 5 5 5 ",
"c.h.c.c.c.c.c.c.v.p.e.e.e.e.e.e.e.e.e.e.e.e.e.e.t.e.e.t.e.e.e.e.t.e.t.t.e.7.5 4 =.-.;.*.r.u.i.r.*.:.:.&.r.r.%.r.r.e.e.e.r.e.e.e.r.t.r.e.e.r.8.5 5 5 5 ",
"c.c.g.c.c.v.g.v.c.p.e.e.e.e.e.e.e.e.e.e.e.e.e.e.e.e.e.e.u.e.e.e.e.e.r.r.t.8.6.5 U -.{ t s 9.y 0.:.-.} u e.e.e.e.e.e.e.e.e.e.e.e.e.e.e.e.t.e.8.5 5 5 5 ",
"c.c.c.c.g.s.d.d.s.d.d.s.d.d.s.d.d.d.d.d.s.d.d.i.7.7.%.%.e.e.u.u.e.u.y.t.a a 0 p U ^ ( V C  . .@.^.-.' +.a.s.d.d.d.d.f.f.s.e.%.%.7.7.e.e.e.r.7.6.5 7 5 ",
"c.c.c.c.d.w.w.w.e.f.v.v.v.v.g.v.c.c.c.c.g.v.c.y.6 4 4 5 e.e.e.e.u.&.o.v * * * * N ) _ E T ) _ _ E.( ~ { | +.l.c.g.c.c.c.h.8.6 4 4 7.e.e.t.r.w.5 5 5 5 ",
"c.c.c.c.d.e.e.e.r.d.v.c.c.c.c.c.c.c.c.c.v.v.c.y.4 4 5 4 e.e.t.u.y.:.,.4.{ z n m c W ) E b W W ( ) T j N T / +.x.v.c.c.v.h.8.4 4 5 7.e.e.r.r.7.5 5 7 5 ",
"c.c.c.c.d.e.e.e.e.f.c.c.c.c.c.c.c.c.c.c.c.v.x.y.4 5 5 9 w.u.t.y.1..XoX@X'.<.{ N g c T M b n j b E m j b C X.z.c.v.v.c.c.x.8.4 5 5 9 e.e.e.r.8.5 5 5 7 ",
"c.c.c.c.d.e.e.e.r.f.c.c.c.c.c.x.c.h.c.c.c.c.c.y.4 4 5 5 e.e.t.*.5.;X4X4X<X$X.X{ l g c b b b c h j b l x + % O.x.c.g.c.c.g.8.5 5 5 9 e.e.r.u.7.5 5 5 5 ",
"c.c.c.c.d.e.e.e.e.f.c.c.c.c.p.p.p.i.p.i.p.p.p.w.5 5 5 5 e.r.u.*.U m.>X6XaX7X>X.X#.N c n n b M b b n c + X.M.N.j.y.p.i.p.y.7.5 5 5 7.e.e.e.u.w.5 7 5 5 ",
"c.c.c.c.d.e.e.e.r.f.c.c.c.h.u.e.e.e.e.e.e.e.e.7.5 5 5 5 e.&.i w ; H 4.@X<X6X4X$X5.{ D T T T T F M n C +.9XuXnXV.9.t.e.e.e.9 4 5 5 7.e.r.e.r.8.5 5 5 5 ",
"c.c.c.c.d.e.e.e.e.h.c.c.c.h.i.e.e.t.e.u.e.e.e.7.5 5 5 8 i e * V N M ] 2.'.+X>X@X4.' n F F F M T T j C 9XnXnXNXiXN.p i.t.e.6.6.6.5 7.e.e.e.t.7.5 5 5 5 ",
"c.c.c.c.d.e.e.e.e.d.c.c.v.h.i.e.e.e.r.e.e.u.e.7.5 5 y & * V M T R T T Q ] <..X'.[ F G F G G Q G M c | 9XmXNXNXmXV., i.8.8.8 3 5 5 5 e.e.e.e.7.6.5 5 5 ",
"g.c.c.c.d.e.e.e.e.h.c.c.x.h.i.e.t.e.u.r.e.e.t.0 2 * * B b W ` _ ( R T T E ] { Q ] <.4.4.2.2.<.G z j * 9XmXBXNX=X| 9.8.y o , u 8 4 7.e.e.t.r.w.5 5 5 5 ",
"c.c.c.c.d.e.e.e.e.d.c.c.v.x.i.e.e.r.e.t.t.t.f w * N ( Q.!././.!.G.( R F F M { <.4.XX>X<X<X>XXX_.<.' | 9XmXBXMXz.  O.u , * N.9X9.3 8.e.e.e.r.8.6.5 5 5 ",
"c.c.c.c.d.e.e.e.e.h.c.c.c.x.i.e.e.u.u.&.f w | N / Q./.(./.^.^.!.G.! E F G ] 4.XX,X8XgXhXhXdX4X-X#X2.n q.uXmXmXeX+.+ % 9.N.N.M.d < 5 e.t.e.u.7.6.5 5 5 ",
"c.v.g.c.s.e.e.e.e.f.c.c.c.h.i.e.e.&.f w C K } Q.^.^./.^.W.E._ ) ! R F D ] 5.>X7XhXcXkXgXpX1X-X+X.XXX|.@.q.9XeXeXb._.5.b.M.| h & 1 7.8.t.e.e.7.5 5 5 5 ",
"c.c.v.c.d.e.e.e.e.f.v.v.v.h.i.e.&.t C I } ` W./.^.E.G._ _ ) ! R T F D [ _.#XpXzXzXpX<X$X}.' M 3.#X4X3XXX<..XOX*X2XpX8X*X+.+ @ O 1 6.e.u.u.r.7.5 5 5 5 ",
"c.c.v.g.d.e.e.e.t.s.f.f.s.s.e.0 e N T -.^.W.E.E.G.) R T R R T F F G ] 4.#X6XgXzXgX$X<.<.Z +.n._.-XpXpX6X2XyXsXgXzXzXfX-X.XC O & 2 w.e.e.e.r.8.5 5 5 5 ",
"c.c.c.c.d.e.e.r.e.7.4 7 5 5 8 , x W _ E.E.G.! R W R T T F F F T F ' '.$X5XfXkXcXgX1XXX3.Z =X:Xn._.$X1XpXsXjXkXcXzXzX6X}.XX* O p e.e.e.e.u.r.w.5 5 5 7 ",
"c.c.c.c.d.e.e.e.e.9 7 4 5 5 q C E _ _ W ! W T F F F F F T T T T n Q 5.<XgXcXcXvXjXaX>X2. .tXB.:X XR `.-X6XsXgXzXzXgX,X`.OX; # p e.e.e.e.e.r.7.5 5 5 5 ",
"c.c.c.c.d.e.e.r.e.7.4 7 5 8 * N R ( W T F K $ @ j j b M F F F n l N I  XaXcXcXvXkXsX,X3.Z tXuXV.OXyX*XD .X;X4XsXfX1X XXXb.9.9.r r i e.r.e.r.7.5 7 5 5 ",
"c.c.c.c.d.e.e.r.e.9 5 4 6.3 & v M W ! T J - q ..x b M M b j j b b M / ;.@XsXcXvXkXsX,X3.h N.:X'.OXiXMX=Xk A E.%X2X@X.XXXV d i.&.a &.e.r.u.r.7.7 5 5 7 ",
"c.c.c.c.d.e.e.r.t.w.7.9 w.0 r @ m W ) E : r 8.O.C J M b T E E J n F ` / ' ,XkXbXkXsX>X2.k C 1.'.*XmXMX=Xm.yX2X_.~ ! $.b.y s s y.e.t.e.t.e.r.7.7 5 5 5 ",
"c.c.c.c.d.e.e.e.u.t.r.e.r.u.e.r $ m W ^ L O.*.w K M n T ( ) ) E b N M c b.yXkXbXkXfX1X2.g O :.XX*XyXtX>.V.lXMXm. XtXn.X.0 t.s a e.u.r.e.u.r.7.5 5 5 5 ",
"c.c.c.c.d.e.e.e.e.u.e.e.r.r.r.t.p * m E / Y w x b b E ^ R F F b g @ @ b.8XkXbXkXcXhX3X2.A D ..5.}.|.&XqXB.:XiXOX:XMXyXO 9 e.&.&.t.e.u.e.e.r.8.5 5 5 5 ",
"c.h.c.c.d.e.e.e.e.e.e.u.e.t.e.r.e.r * v Q ^ v v m T W W b j j j b $ I +XsXkXvXbXvXkX3X_.S.D.M { } R &XrXqXN.m.c.B.iXuX  9 e.r.r.e.e.e.e.e.r.w.7 5 5 5 ",
"c.c.c.c.d.e.e.t.r.r.e.r.e.u.u.e.e.t.r * v T ( J T ^ W n b n n T ( ( } 5.OXyXkXvXbXkX3X).S.L.S.C.S.F.{.0XrXwXN.M.M.M.N.4 9 e.e.e.u.e.e.e.e.e.w.5 5 5 5 ",
"c.c.c.c.h.f.d.f.f.i.e.r.e.e.e.e.e.e.e.r * x T T E W F n F T F W ! W W R G _.8XkXzXkX3X_.A.K.L.D.S.S.S.{.0XrXrXrXqX; X.w.%.e.e.u.e.i.f.d.f.f.t.5 5 5 5 ",
"c.c.c.c.c.c.x.v.g.p.r.r.u.e.e.u.t.r.r.e.r * j n T F T T T T F T n g j Q ~ G _.6XzXzX8X+X$.S.Y.L.A.A.D.Z.{.0XrXrXqXV.tX&.u.u.e.u.e.i.c.c.c.v.y.5 5 5 5 ",
"c.c.c.c.c.c.v.v.c.s.%.e.u.e.e.u.e.r.r.r.&.* $ b b n F F T T M l #.|.|.@.D ' b +XhXzXhX6X.XA.K.Y.S.S A.D.F.{.M.M.+.pXiX+ t.u.e.e.e.p.c.v.g.v.s.4 4 5 5 ",
"c.h.c.c.c.c.c.v.c.s.r.r.e.r.u.e.e.e.u.r.8.P v b b b n n m n N O n.5X6XOXI @ K *XhXzXzXhX*Xz S.Y.L.C.z D.K.q.0.l.=XxXiXg t.u.t.e.e.p.g.v.c.c.p.4 4 9 7 ",
"c.c.c.c.x.x.h.h.g.p.%.r.e.u.e.e.u.e.e.r.a > N M M n b c g j m j 3.2XsX6X+Xb.+XpXkXzXbXzX6X3.Z.L.P.Z.A S.L.F...z.yXMXtXB a.s.t.u.e.p.g.c.x.c.p.4 4 5 8 ",
"c.c.c.c.s.8.e.e.e.w.r.r.e.e.u.e.e.r.e.r.&.> v T R F M N N j n R ] }.3XaX7X2X6XsXfXkXzXzXhX-XH.L.T.K.Z.Z.L.K.l Y OX=X|.#.:.z.a.e.e.u.i.p.i.p.e.5 5 5 5 ",
"c.c.c.c.p.4 4 4 4 %.r.r.u.e.e.e.e.e.r.r.a > v F F T F Q <.#.N G R ' n.4XsXsXaXpXpXfXgXzXbXpXJ.L.T.P.D.S.P.K.$.n._.! <.oXoX>Xm.f.y.y.u.t.t.&.0 5 5 5 5 ",
"c.c.c.c.p.4 4 4 7 %.r.r.r.e.e.u.u.e.e.r.&.> v F T T D ' `.}.#.Z G N #.2X8XsX8X7XsX7XsXjXcX8XH.U.T.Y.L.L.T.I.`.5XsX4X$X@X8XfX6Xb.i f f r r r r r 5 7 7 ",
"c.c.c.c.s.4 5 5 7 w.r.r.e.r.e.u.u.e.e.r.a > v T F T F G 5.$X+X,.c I OX6XdX8XsXsX7XsX7XgXjX8XH.U.R.P.Y.T.Y.I.`.dXbXhX6X@X-XkXhXb.. H L :   # H : 3 5 5 ",
"c.c.c.c.s.5 2 2 0 %.r.e.e.r.e.e.e.e.e.r.a > v J T T D ' 4.$X>X#Xn.#X5XaX8XfX8XfXsX7X8XdXdX4XQ.].[.P.Y.Y.P.I.`.aXbXzXkX6X$X6XaX5.+ Q ) ^ J m ^ L : 3 7 ",
"c.c.c.c.d.r ; . 1 &.e.u.r.e.u.e.e.u.u.r.a ..J E T F D G 4.@X>X3XyXpXaXaX8XfX8X8XsXsX7XsXaX,X).].[.P.Y.Y.Y.I._.4XkXkXkXsX1X-XXX@.k n F W ( E n W H X 8 ",
"c.c.c.x.f & m x ; i r.e.r.e.e.r.e.t.i.u.a ..^ ! R F F { '.#X>X3X8XfX8XsX8XsXfX8X7XsXsXaX7X;XQ.].[.T.Y.Y.Y.D.2.<XaXaX4X,X#XOX@.l b c j M W ^ T M m ; 8 ",
"c.c.v.a.# m E $ q &.e.e.e.e.r.r.e.e.t.8.w K ` ( T D Q 2.@X>X>X>X1X8XsX8XsX8X8X8XsX7X7XsX7X4X).!.].R.P.Y.I.C.2.@X%XoXn.b.:.#.N M b h + j M W ) m J K < ",
"c.c.v.d + E ^ # 0 r.e.e.e.e.e.e.e.e.e.i C ^ G.! T D ] }.$X>X>X$X>X1X8X8X8XdX8X8XsXaXaXaXsX7X;X;.!.U.P.K.C.,.}.5.,.:.O.a.d # m J b $ # + b n ) J n J X ",
"c.c.c.0.B W ) $ 0 p.p.s.p.p.p.d.p.p.a.e K _ E.( E n ] '.$X>X>X>X>X>X3X4X8X8X8XdX7XsXaXaX8XdX7X;X_.H.H.C.Q 4.n.z.j.a.s.s.y.r > $ x w e O c H H K m j o ",
"c.c.c.0.B R ) K q &.g.c.c.c.c.c.c.k.o.v / Q.W.( F D ' `.$X-X>X>X>X>X$X>X<X5X7XaXaXaXaXaX8XsXsX8X-XOX|.<./ 1.z.x.c.c.c.c.f.e.1 q q 0 8   x e r > x & 1 ",
"c.c.v.0.B T ( ~ : r >.f.c.c.c.c.c.O.v / Q.^.W.! R D ] '.$X>X>X>X>X>X>X>X>X;X<X6X7X7X8XaXsX8XaX8X6X-X+Xn.>.l.x.c.c.c.c.c.c.0 3 5 5 5 a q r %.9 1 o 1 8 ",
"c.c.v.O.h n T ) ` U - r >.k.c.c.x.O.K ~./.!.G.! T D ] }.$X>X>X>X>X>X>X>X>X>X;X,X<X3X7XsX8X7X4X,X#Xn.z.l.x.c.c.c.c.c.c.v.h.8.5 5 5 7.e.t.%.u.w.4 5 8 7 ",
"c.c.v.a.* h M ) ~.W.^ L : 1 *.k.t C } /./.W.! T T D ' 4.@X-X>X>X>X>X>X>X>X>X<X4X7X7X7X4X,XoXn.1.z.j.k.x.c.c.c.g.c.c.c.c.h.8.4 5 5 6.e.t.e.r.%.5 5 5 5 ",
"c.c.c.x.i * N E G.E.Q.!./ H ; - O J Q./.W.G.W F F F F { }.$X>X>X>X>X>X;X,X4X7X8X8X7X,XOX1.X.O.j.j.c.v.h.s.d.d.d.s.d.d.d.s.7.5 5 5 6.e.e.e.e.7.5 5 5 5 ",
"c.c.c.c.s.r x m T R _ W.-.` H @ + } /./.W.( R T T T D G 2.+X>X>X>X>X>X>X4X8XaX7X,X.X1.j.s i a.c.c.c.c.s.e.e.e.e.e.e.e.e.e.5 5 5 5 6.e.t.e.e.7.5 5 5 5 ",
"c.c.c.c.d.e.r P n M T W ( ( M b T !./.!.G.R F F T F F F #.}.,X<X>X-X>X4X8XaX7X$Xn.O.s y.u.r.i.g.c.c.x.h.e.e.e.r.r.e.t.e.e.5 5 5 4 7.e.e.r.r.7.5 5 5 5 ",
"c.c.c.c.d.e.&.r P N N F M n g E E././.E.) R T T F T T F D <.%X4X5X4X5XpXaX7X$Xn.j.u.u.t.e.&.i.c.c.c.v.d.e.e.r.e.e.r.t.u.8.6.5 5 6.7.e.u.e.r.7.6.5 5 7 ",
"c.c.c.c.d.e.e.e.r w ..N M n M ` /.(.^.) T F T M M F T F F $..X,X7XaXaXaX7X-X;.=.y.u.r.e.u.%.i.c.c.c.c.d.r.e.r.e.e.r.e.u.e.9 5 5 5 9 e.e.e.r.8.5 5 5 5 ",
"c.v.g.c.d.e.e.e.t.f.>.....C ) /.(.!.) T T T M l b F T T G G { |.>X4X5X5X-X2.$ e &.r.u.r.r.r.i.c.c.c.v.f.e.e.t.e.r.e.e.r.e.7 5 5 5 7 e.e.e.r.7.6.5 5 5 ",
"c.c.c.c.d.e.e.e.e.d.x.k.j.Z ( ^.!.) T F T N j b M M n M M M D #.5.'.}.`.$.G Q / : *.t.u.r.e.i.g.c.c.c.d.r.e.e.r.e.e.e.r.e.9 5 5 5 7.e.e.t.r.8.5 5 5 5 ",
"c.c.c.v.d.w.e.e.e.h.c.v.k...Z ` ) T T T m x @ * * C C C C Z M Q Q J Q F M M W W.W.: = s u.e.i.c.c.c.c.d.e.e.e.e.e.u.u.r.e.7 5 5 5 7.e.e.r.r.w.5 5 5 5 ",
"c.c.c.c.d.r.e.e.e.h.x.v.x.j.C M T F T m # i i y 1 2 2 y y w C j x h N M J F F ` W.~.;.Y p e.p.h.v.v.x.f.t.r.r.e.e.e.t.e.e.9 4 5 5 9 e.e.r.r.7.7 5 5 5 ",
"c.c.c.c.d.e.r.e.e.d.h.x.h.a...b T F T v o 0 e.7.9 7 5 5 e.a y y y y C j N N M F ( !.^.-.Y p i.h.h.h.h.s.t.w.e.e.e.e.e.e.w.9 5 9 5 7.e.e.e.r.7.5 9 5 5 ",
"c.c.c.c.d.e.e.e.e.8.8.0 8.0 & m T T m $ ; 5 9 8.e.e.e.e.t.r.r.r.r.t.p e e * c N Q W ` W.-.w a 7.8.8.8.9 7 9 9 9 7 7 5 7.9 w.e.e.e.e.r.t.e.u.w.5 5 5 5 ",
"c.c.c.v.d.e.u.r.e.7.4 4 4 3 1 C M R $ X 5 5 4 7.e.e.e.e.e.e.e.t.e.e.e.e.e.i , ..x M M T Y f t.4 4 5 7 5 7 7 5 5 5 5 5 5 5 e.t.e.t.e.r.r.e.r.%.5 5 5 5 ",
"c.c.k.j.&.0 %.0 0 0 7 7 7 7 8 & b T $ X 9 5 4 %.e.e.e.e.u.e.e.e.e.e.e.e.u.t.e.s - v J $ t t.e.5 5 8 2 3 3 < 3 3 5 9 5 5 8 e.e.e.e.e.e.u.e.r.7.7 5 5 5 ",
"c.k.o.@ $ $ $ $ . < 8 3 3 7 4 q x T x X 3 5 5 %.e.e.r.e.e.e.e.e.e.e.t.e.e.r.u.&.; x J > p u.e.8 2 1 . # # $ # # 1 4 5 4 7 w.e.e.e.e.t.u.r.u.w.5 5 5 5 ",
"k.w J ) ( ( ( ( T $ & . = 8 9 8 ; v J $ = 8 9 w.r.e.r.e.i.p.i.p.p.e.e.w.e.e.e.a ; $ H e &.e.a = # H ^ ) ) ( ( / P 1 0 5 7.i.p.p.p.i.w.w.w.e.7.5 5 5 5 ",
"e J ( E m M W ^ ) ) W / L > o o # c T v X %.e.e.r.r.e.u.g.c.g.x.s.5 5 9 5 7.i - $ j @ & o o P / ^ ( ( W E m M ^ ^ P p e.u.h.h.h.c.d.9 5 5 5 5 5 5 9 5 ",
"w J Q N ^ W T F W ( ( ~ ^ m c c c N Q x = %.r.r.u.r.e.u.h.c.c.c.d.7 4 5 4 0 ; x J n N c v c J W ) ~ R M T W T N J K r t.y.h.v.c.v.s.5 4 5 5 5 5 5 5 5 ",
"C k g k E F l z k k k k k l l l z z z + . %.e.r.e.t.e.u.h.c.c.c.d.7 4 5 8 1 . g z l l l z l l k k k k l M R T g g g q t.u.h.v.c.c.d.6.4 9 5 5 5 5 5 5 ",
">.d O.d d q e e e e e e e e e e e e e q < e.e.e.r.r.t.u.h.v.c.v.g.7 5 5 5 0 1 r e e e e e e e e e e e e e e e e e r i e.i.h.c.c.v.f.7 4 5 5 5 5 5 5 5 ",
"f.f.d.f.p.w.w.w.w.w.w.w.w.w.w.w.w.w.w.w.w.e.%.w.8.w.8.8.p.s.s.s.y.5 4 5 5 9 e.w.w.w.w.w.w.w.w.w.w.w.w.w.w.w.w.w.w.w.e.7.e.p.s.s.s.y.6.5 8 5 5 5 5 5 7 ",
"r.e.e.e.0 7 7 5 5 5 5 5 9 5 8 5 5 5 5 5 5 5 5 5 5 5 5 5 6.5 5 4 4 7 5 5 5 5 5 5 9 5 5 5 9 5 5 5 5 6.5 5 5 9 5 5 5 5 5 5 5 5 5 4 5 5 5 5 5 5 5 5 5 5 7 ",
"e.e.e.e.7.5 5 5 7 5 5 7 5 5 7 5 5 5 5 5 5 5 5 5 5 5 5 5 4 4 5 4 5 5 7 5 7 5 5 5 5 5 5 5 5 5 7 5 5 4 5 5 5 5 5 5 5 5 5 5 5 5 4 5 5 5 5 5 5 7 5 7 5 5 5 ",
"e.r.e.r.w.5 5 7 5 5 5 5 5 5 5 7 5 7 5 5 5 5 5 5 5 5 5 5 5 5 5 5 8 7 5 5 4 7 5 5 5 5 5 5 5 5 5 5 5 5 5 5 5 5 5 5 5 5 5 5 5 5 5 7 5 5 5 5 5 5 5 5 5 5 5 "
};
