/* XPM */
static char *result[] = {
/* columns rows colors chars-per-pixel */
"75 75 21 1 ",
"  c #05353C",
". c #0C373C",
"X c #0D383D",
"o c #123B3F",
"O c #163E41",
"+ c #1A3E42",
"@ c #174041",
"# c #1E4745",
"$ c #1F4846",
"% c #204745",
"& c #214846",
"* c #2A4748",
"= c #264A48",
"- c #2B4C4A",
"; c #314E4C",
": c #35524E",
"> c #38534F",
", c #375350",
"< c #3C5552",
"1 c #3F5853",
"2 c #425955",
/* pixels */
"2222222222222222222222222222222222222222222222222222222222222222222222:@#%#",
"2222222222221222222222222222222212222222222222222222222222222222222222;####",
"2222222222222222222222222222222222222222222222222222222222222222222222:####",
"2222222222222222222222222222222222222222222222222222222222222222222222:###%",
"222222222<,,:::::::::>>>:>::::>>,;,;:;;--;,,:::::,::::::,,,,::,:::,:,,*+@@+",
"222222222-@#########@########%##$$$##@    @$$$$##########@#####%$$###$@.OO.",
"212222122-#####%####$$$########$$$#$$@...X@$$###$###############@$##$#OX   ",
"222222222-@#############%##%#%###$$$$@...X@##$###############%##$$$$$$O.O .",
"222211112-@#######@##########$$$##$#%+...X@&##%#@$$$$$$###$@$###$$$##$OX...",
"22221;:,;,,,,:;:::::::>&@o@@#$$$$#$#&@@@@@#$##&:,::,-::,:::,:#OOO+##$$O....",
"2212,@@@#,2222122222122- ...@$$$#$###%%$$%$#%#=2222222222222<+O .X$%#$OX...",
"2211:$$$#,2222212222122- ...#$$#%#$%#$#%$#$#%%=>222222222222<O  .o#=%$OX..X",
"2222,$$$$,2222222222222* ...@$$$#$%$$$###%%##$=2222222222222<+ O.o$@$$+X...",
"1222;$$@$<2222112222222= ...####%#%%$$%#######=1222111212222<+  .o$$$&+....",
"2222,$$$#,2211:----=---@....####$%$%$##$%%#%#$=1222<------*-*+..Xo@#$$+X...",
"2222-$$$$,2121$$@######o....@$#$##@%#%%###$#%#=2222,$@###@##+...Xo%$$$o.o..",
"1222,####,2222=@%%#%#%$O...o@$######&##&#%#%##=1222,$$$###$$#O ..X###$O ...",
"2222,###%,222<*###$#$##O....#$#$$&#&####%#%###=2222,$$$@$##$#O . O##$#OO...",
"2222;####,222<=#%%#%$##O....@$$$#####$###%#%##=2222,##$%#$#$#X...O#%#%O ...",
"2222:###%,2222=########O....#$$$#&##&#&#######=1222,##%#%#%$#X...O####OO...",
"2221;#$##,222<=##$$#%$$O....@$########&$%$####=1222,%#&###$&+XXX X@###O....",
"2222,$##%,222<=##%##$$$O....@$&$#&#$#####%#$##=2222,####$$$%%X.X O#%##O ...",
"2222-####,2222=#%$$$&&$O ...$&#%##&##&$####$##=1222,#%&##%=%%o..OO##$$OO...",
"2222,###%;,::;#+@+#@#@+OOoOO#$$##&##$###$$####%:,:,-@@#+@@@@+oooO@#%#$O..X.",
"2212:$$$#OOO O .XXXX...@########$###&##&#%$&#$#. ..X..o.oX.XX@%%#####&OX...",
"2222;$#$#OOO....X......@####&#&##&#&####$####$#X............X%%%#%#%$$O....",
"2222:$#$OOO ... .......@#%##$#########$##%#&#$@X............o@%%##%#$$O....",
"2222;###+O  ...O.......@######&##&#$&##&$###&$#X.............#%#%##$#$@X...",
"2222:#$#++OOOOOOoo@@o@@#$#$##&#&#####&###$###$#@@@O@@o@oX...X#%#$$##%%oo...",
"1222:#####$#####%&###%##$#%####$$#&####$%#%$########$#%%o...o@%%$$#%#=+....",
"2222;$###&###%##%###%%###$#$###%#&#&#&#&#$#%&#%#####%##%oo...#%#%$#$#%oo..o",
"2222:##$+&&####%%%%####%%#%#&#$###$#####%#$###########%&o....#%#%&@#$$o....",
"2222;#%&$&###$$##############&#&#&##&$#&#$###$#$#$#%&###@....@&$$#$###OO ..",
"2122>>>>>&###%#%#&$##&#&#&#####$#########$#$##%#%##$##&##@@@##$##=,,,,%  ..",
"222222221-##&#$#&#&##$#$&#$&#####&#&&#####$$%#%$%%#%&#&####$&&##$-2212- ...",
"222222221-#$#########&#######&##$######&$#$$$#$#%%%$##########%#$-1212-O ..",
"222222221:$$%$#####$&###$###$&#&%%$###&###$$######%#$##&#&#&#&###-1222- ...",
"22121>111-#####&&##&$##&&##&####%&##$###&#$$#&#&#####%#%#######&#-<122*....",
"2222>+@@###$&###########$######&%#&#&#&#$#&#$####$####%#&###&###$%==**@X...",
"2222- . .@$###%#&#&##&#&###&&##$#%###$######&#$####$%##$##&####&$$$$$$OX...",
"2222; ...@$$$#&###$&#$$$#####&#####$#&##&#&#&####$#$##&&&#&####&%###%$O...o",
"2222; ...@$$$###$#####$$#&&####################&###$###&####&####$%#$$OX...",
"2222-..oo#&###%%#####$$$#$###&#&&#$##&&###&#&####&$&&=--&#&####&%#%#$$OX...",
"2222:@%%#&###$##&#&####$##&#$####$######&#&###&###$-1111-####&#####$#$OX...",
"2222:$$$##$$%##$$#$$$$##&######$####&#&###&##&#&###-2222-###&#&#$$##%%o...o",
"2212;$#$######$$#%#$###$$##&&#&#&##&####&########$$-2222-##&####$$#%%=+o...",
"2222:$$#$#####&$##&$#%##&#$$$####&###############$#-2221-&&##&&#&&##%$oo...",
"2221;@%$&--------------&@@#@#$######&#&##&#&&#&---->1221>---=#@@@@$$$$o....",
"2222:#$##:2222222222221-....#####&#&#####$##%#=>1121222221221@.X.O+%$$OO ..",
"2212:###$>2222222222221= ...@#########&######%=22222221222221# X O#%#$O.  .",
"2222:##@$>1222222221222- ...########&##&$###%#=22222221122221@...X##$$O....",
"2222:####>1222222221222- ...#$###&#&#####&####&22222222122221@...O###$OO...",
"2222>###$>2221>:-::;;;-%...oo@@@####$####&####-22221::-:;:;>-@...o#$$$O....",
"2222:###$>2221&#####&$$@........o######&##&###=2222>#########....o##$$OX...",
"2222:###$>2221&$######@@........o####$##%%####&1222>#########....o#$$$@X...",
"2122:###$>2221&$#&###&#@........o#######%%%$##=2222>####$##&#....o#$$$@....",
"2222:#$$$>2221=#&######@........o#&######&#&##&2222>###$$##$#o...o####@..X.",
"2222:#$@$>2221=#$##&&##@....@@#@@&###&#&$#####*1222>##&#$##$#....o###%@....",
"2222;$$$$>1221=#$####$#@....####&#&$###$###&##-2222>##$$###$#....o#&#&@....",
"2211,$$$$>222<=########@....####&####&##&#####=2222:##$$#$$$#o...o###&@...X",
"1222:$$@%>2221=#$$$###&o....########&#$###&###*2222>$#$$$#$&#o...o####+X...",
"2222;$$$%;221:%#@###@##@oo.o#####&####&##&####&>1>2;###@####+oo.Xo##&#@X...",
"2222:$$%$@oooooX.oooooo@#@#####&&##&###########ooo@oo..o..o..@#####&##+X...",
"1222;#$%$o........ ....@####&#######&##&##&#&##..............##%&####$+....",
"2221:$##@OO.........   +####%%%#$#$##%#$#$##&$$O ...........OO&###@$#$OO...",
"2222:@#%#O  .. O.... O +#%#%$@@$$%#####$#%$%#$@O. ......  ..OO@$##$$$$OO.X.",
"2222,$#$$OOOOOOOOOO.OOO@##%%=---=+++#@$##$###$$OOOOOOOOOOOOOO%**-=@O++OO...",
"2222:####$@#@#@@@#@#####$##%,212-OO.OO$#%#$%%@$#+@@#@#@@$#@##:211,OOO   ...",
"2222:@$#$#&$$%$%##$$$$$#%##%1222;O  .O#%#$#%#$#&$$&##&$$&$$#*2222,.  ......",
"2222:$######$##%#%%%##$&#%#%,222;O ..O#%%#$#%##%############%2222;..X......",
"2222,$$$&&$&##%%#&$&&&$&#&#%2222,. ..O+*$$#$$&&&&$&&##$$&$%%*,222<X .X.....",
",,,,=@@++@@@+++++@@@@@@@@@+#*;;,*....O+++++@@@@@@@@@+#@@@++++*;;;*X.....o..",
"#$##O..O .....O.....O...OO.O   .............O...OO  ..O.......  X..........",
"$$$$O  .. ....  .... ...  .   . ............ ...O   .. ....... ............",
"#@$$OO O..................................................................."
};
