/* XPM */
static char *result[] = {
/* columns rows colors chars-per-pixel */
"75 75 129 2 ",
"   c #00010F",
".  c #01160C",
"X  c #0C180E",
"o  c #14190F",
"O  c #191B0F",
"+  c #000110",
"@  c #000E12",
"#  c #0F0019",
"$  c #001212",
"%  c #0C1512",
"&  c #151A11",
"*  c #1C1D14",
"=  c #1F1E19",
"-  c #201E14",
";  c #221F18",
":  c #281D1A",
">  c #242016",
",  c #282217",
"<  c #2D241A",
"1  c #32271B",
"2  c #3B2B1E",
"3  c #3F3114",
"4  c #3D3018",
"5  c #000F27",
"6  c #011325",
"7  c #021926",
"8  c #0B1A26",
"9  c #171D26",
"0  c #191D23",
"q  c #222124",
"w  c #2D2528",
"e  c #332424",
"r  c #3B2B22",
"t  c #372A29",
"y  c #3A2C2A",
"u  c #423316",
"i  c #4B371C",
"p  c #4B3D1A",
"a  c #563C15",
"s  c #422F22",
"d  c #402F2A",
"f  c #4F2D2D",
"g  c #532F2F",
"h  c #463224",
"j  c #4D3427",
"k  c #413128",
"l  c #4A322A",
"z  c #513D25",
"x  c #53322E",
"c  c #5A372F",
"v  c #55382A",
"b  c #5C3B2E",
"n  c #4A2631",
"m  c #4D2930",
"M  c #512E30",
"N  c #563230",
"B  c #583530",
"V  c #5C3B30",
"C  c #613F2F",
"Z  c #603F30",
"A  c #4E421A",
"S  c #5B4416",
"D  c #5A451C",
"F  c #604716",
"G  c #634818",
"H  c #66551E",
"J  c #594324",
"K  c #694827",
"L  c #63412F",
"P  c #69452E",
"I  c #6C492D",
"U  c #704E25",
"Y  c #724D2C",
"T  c #745124",
"R  c #7D5327",
"E  c #76502B",
"W  c #7C552A",
"Q  c #7F5829",
"!  c #644130",
"~  c #694331",
"^  c #765530",
"/  c #785731",
"(  c #845E1A",
")  c #86601B",
"_  c #966B1D",
"`  c #9E6E1C",
"'  c #A06F1C",
"]  c #A4751D",
"[  c #A8771E",
"{  c #AA791D",
"}  c #845C27",
"|  c #885F27",
" . c #845C29",
".. c #8A6126",
"X. c #8F6829",
"o. c #916624",
"O. c #956923",
"+. c #996C22",
"@. c #9C7222",
"#. c #98732C",
"$. c #9E7C30",
"%. c #A47420",
"&. c #AB7E21",
"*. c #A07A2A",
"=. c #A58628",
"-. c #AC8429",
";. c #AA8C2B",
":. c #B18421",
">. c #B78E27",
",. c #B18C2E",
"<. c #BB9127",
"1. c #B3922B",
"2. c #BC9329",
"3. c #A78430",
"4. c #A88631",
"5. c #B28F31",
"6. c #B39031",
"7. c #BE9A31",
"8. c #C29B2C",
"9. c #C29E31",
"0. c #C7A12E",
"q. c #CAA42F",
"w. c #D0AA2F",
"e. c #C4A031",
"r. c #C8A431",
"t. c #CFAA31",
"y. c #D2AD31",
"u. c #D6B032",
"i. c #D8B332",
/* pixels */
"t.t.t.t.t.t.t.t.t.t.t.t.t.t.t.t.t.t.t.t.t.t.y.>.] ] ] ' 0.y.t.t.t.t.t.t.y.<.` %.] ' r.y.y.t.t.t.t.t.t.t.t.t.t.t.t.t.t.t.t.t.t.t.y.8.` ] ' { W V Z Z C ",
"t.t.t.t.t.t.t.t.t.t.t.t.t.t.t.t.t.t.t.t.t.t.y.>.` ] ] %.0.y.t.t.t.t.t.t.y.<.` ] ] ' 8.y.t.t.t.t.t.t.t.t.t.t.t.t.t.t.t.t.t.t.t.t.y.2.` %.%.] W V Z Z C ",
"t.t.t.t.t.t.t.t.t.t.t.t.t.t.t.t.y.t.t.y.t.y.y.>.` ] ] ' 0.y.t.w.t.y.t.y.y.<.` ] ] ' 9.y.t.y.t.y.y.y.t.t.y.y.y.y.t.y.t.y.t.y.t.t.y.8.` ] ] { E V C Z C ",
"t.t.t.t.t.t.y.y.y.y.y.y.y.y.y.y.y.y.y.y.y.y.i.<.] &.%.%.y.u.u.y.u.y.y.y.i.<.` %.] ' w.i.y.y.y.y.y.y.y.y.y.y.y.y.y.y.y.y.y.u.w.y.i.8.` ] ] ] W V ~ Z Z ",
"t.t.t.t.r.8.8.8.8.8.8.7.8.8.6.6.5.6.5.5.6.6.6.@.( ( ) ( =.;.;.;.;.5.6.5.6.-.' ] ] ] ;.5.6.6.5.5.5.5.5.5.6.6.5.5.6.6.5.5.5.5.5.5.5.-.] ] ] { U l v v v ",
"t.t.t.y.8.` ` ` ` ` ` ` ' +.b N N x x N N N B e + @ @ @ + +     # N N N m Q [ ] ] ] C M x g N x N x x g x N x g x M N x x x N x m E { ] %.{ S @ & o & ",
"t.t.t.y.8.` ] ] ] ] ] ] ] ] P V C C C C b L ! h & - - - - - - * 1 ~ J Z V } [ ] ] ] Y Z Z C C C C C C C Z C C C Z C C C C C C C V W { ' ] &.S $ - - - ",
"t.t.t.y.8.` ] ] ] ] ] %.] ] P Z C C C C C Z ! h & - - - - - - = 1 Z V L V } ] ] ] ] Y V C C C C C C C C C C C C C C C C C C C C V W ] ] ] ] S $ - = - ",
"t.t.y.y.8.' &.&.%.{ ] ] { ] P ! C C C C C C ! r . & & & & & & X < ! Z Z V | { ] ] { Y b C C C C C C C C C C C C C C C C C C C C V W { ] { { S $ - - > ",
"t.t.t.y.1.a G G F T  .W W W L Z C C C C C C ! v j j j j j j j j v Z Z Z V Y } W W } L Z C C C C C C C C C C C C C C C C C C C C Z I } W W  .h 6 = 0 0 ",
"t.t.t.y.;.+ $ @   k Z V V V ! b C C C C C C C ! ! ! ! ! ! ! ! ! ! C C C C V V V b V Z L C C C C C C C C C C C C C C C C C C C C C V V V V Z t 8 9 9 9 ",
"t.t.y.i.;.+ - - & j ! Z b C L L C C C C C C C C C L L V L ! C C C C C C C C Z C C C C C C C C C C C C C C C C C C C C C C C C C C L b Z C L t 8 9 9 9 ",
"t.t.t.y.;.+ = - & j ! C C C C C C C C C C C C C C C C C C C C C C C C C C C C C C C C C C C C C C C C C C C C C C C C C C C C C C C b L Z ! t 8 9 9 9 ",
"t.t.t.i.;.+ - - * j ! C C C C C C C C C C C C C C C C C C C C C C C C C C C C C C C C C C C C C C C C C C C C C C C C C C C C C L L L L ! ~ t 8 9 9 9 ",
"t.t.t.y.6.M b b b b Z C C C C C C C C C C C C C C C C C C C C C C C C C C C C C C C C C C C C C C C C C C C C C C C C C C C C C V E %.+.@.] J 5 9 9 9 ",
"t.t.y.y.6.N J L ! L C C C C C C C C C C C C C C C C C C C C C C C C C C C C C C C C C C C C C C C C C C C C C C C C C C C C C C b W { ] ] { J 5 9 9 9 ",
"t.t.t.y.5.N C C C C C C C C C C C C C C C C C C C C C C C C C C C C C C C C C C C C C C C C C Z C C C C C C C C C C C C C C C C V W [ ] ] [ J 5 9 9 9 ",
"t.t.t.y.6.N C C C C C C C C C C C C C C C C C C C C C C C C C C C C C C C C C C C C C C C C C Z C C C C C C C C C C C C C C C C b W { [ [ { J 5 9 9 9 ",
"t.t.t.i.,.g C C C C C C C C C C C C C C C C C C C C C C C C C C C C C C C C C C C C C C C C ! Z C C C C C C C C C C C C C C C C V E +.O._ +.z 6 9 9 9 ",
"t.t.t.y.6.g C C C C C C C C C C C C C C C C C C C C C C C C C C C C C C C C C C C C C C C C Z Z C C C C C C C C C C C C C C C C L Z B V b V w 8 9 9 9 ",
"t.t.y.y.6.x Z Z C C C C C C C C C C C C C C C C C C C C C C L Z C C C C C C C C C C C C L V J Z C C C C C C C C C C C C C C C C C C C C C ! t 8 9 9 9 ",
"t.t.t.y.6.x C C C C C C C C C C C C C C C C C C C ! C C C C C L C C C C C L C C C C C C ! ! Z Z C C C C C C C C C C C C C C C C C C C C C ! t 8 9 9 9 ",
"t.t.y.y.5.m Z B V V L C C C C C C C C C L L C ! ! ! ~ ! ! ! ! ! ! ! ! ! ! ! ! ~ L ! ~ ! ! ! L ! ~ ~ ! C C C C C C C C C C C C C C C C C C ! t 8 9 9 0 ",
"t.t.y.y.2.} | | ..Y b C C C C C C C C C C b L v s s s s d d k y k d d k d d d d k d d d k k y h s s s v ! C C C C C C C C C C C C C C C C ! t 9 9 9 9 ",
"t.t.t.y.8.] [ [ { Q b J C C C C C C C C C C ! s . & & & 8 7 7 7 7 7 7 7 7 7 7 7 7 7 7 7 7 7 8 & & & . r ! C C C C C C C C C C C C C C C C ! t 8 9 9 9 ",
"t.t.t.y.8.` ] ] [ R V Z C C C C C C C C C C ! h & - - - 0 9 9 9 9 9 9 9 9 9 9 9 9 9 9 9 9 9 9 - - - O s ! C C C C C C C C C C C C C C C C ~ t 8 9 9 9 ",
"t.t.t.y.8.` ] ] [ W V Z C C C C C C C C Z Z ! s & - - - 9 9 9 9 9 9 9 9 9 9 9 9 9 9 9 9 9 9 9 - - - & h ! ! C C C C C C C C C C C C C C C L t 8 9 9 9 ",
"y.t.y.y.8.] ] ] [ W V Z C C C C C C C C Z Z ~ s & - - - 0 9 9 9 9 9 9 9 9 9 9 9 9 9 9 9 9 9 9 * * & % s ! Z C C C C C C C C C C C C C C C ! t 8 9 9 9 ",
"&.&.&.&.+.! I I I L C C C C C C C C C C C C ~ k 8 0 9 9 = = - - = = - - ; ; = = * - = * = & 4 _ _ _ _ } V V C C C C C C C C C C C v , < 1 < q 9 9 9 9 ",
"' ' ] ] ..V V V b L C C C C C C C C C C C C ! k 7 9 9 9 = - - - - - - - - - - - - - - - - & 4 [ %.] { ..V C C C C C C C C C C C C j & * * * 0 9 9 9 9 ",
"%.] ] ] o.V V C L C C C C C C C C C C C C C ! y 7 9 9 9 = - - * - - * - - * - - - - - - - & 4 ] ] ] [ ..B C C C C C C C C C C C C v & - - - 9 9 9 9 9 ",
"%.%.] ] o.V L L C C C C C C C C C C C C C C ! d 7 9 9 9 = - - - * * * O * * * * * * * * * % 3 ] ] ] [ ..V C C C C C C C C C C C C j X * O O = 9 9 9 9 ",
"] ] ] [ ..V C C C C C C C C C C C C C C C C ! d 8 0 0 0 - - - * ; 1 1 1 1 1 1 1 1 1 1 1 1 < i %.] %.] ..V Z C C C C C C C C C C C v 1 1 1 2 q 9 9 9 9 ",
"] ] ] ] o.V C C C C C C C C C C C C C C C C ~ s O - - - - - - * 1 L ! ! ! C ! ! ! ! ! ! Z Z Y ] ] ] ] | B C C C C C C C C C C C C Z Z Z Z P y 8 9 9 9 ",
"] ] ] ] o.V C C C C C C C C C C C C C C C C ! s o - - - - - - * 1 ! C C C C C C C C C C Z V I ] ] ] { ..V Z C C C C C C C C C C C C C C C C y 8 9 9 9 ",
"%.' ] { ..V C C C C C C C C C C C C C C C C ! s o - = - - - - * 1 L C C C C C C C C C C C Z I ] ] ] [ ..V C C C C C C C C C C C C C C C C C y 8 9 9 9 ",
"[ [ ] { o.V C C C C C C C C C C C C C C C C ! s . o o O - - - O 1 C C C C C C C Z C C C ! V I ' ` ` [ } b C C C C C C C C C C C C C C C C ~ t 8 9 9 9 ",
"}  .....W V C C C C C C C Z C C C C C C C C ! v h h h h : * - O 1 ! C C C C C C ! Z C C L V Y 2.<.>.2.#.x C C C C C C C C C C C C C C C C C t 8 9 9 9 ",
"B B c c V L C C C C C C L L b L C C C C C C C ! ! ! ! ~ 1 * * * 1 ! C C C C C C Z Z Z J L c ^ u.y.y.i.4.M C C C C C C C C C C C C C C C C C t 8 9 9 9 ",
"L L L L C C C C C C C C b L ! L C C C C C C C C Z C Z Z < * - O 1 Z C C C C C C Z Z Z V L V E y.t.t.u.4.g C C C C C C C C C C C C C C C C ~ y 8 9 9 9 ",
"L L L L L L L L C C C L C C ! b C C C C C C C C V L J Z 1 = - * 1 ! C C C C C C C C C C C b ^ y.y.t.y.3.g C C C C C C C C C C C C C C C C C t 8 9 9 9 ",
"B B c c c c L c V b V b V V L b C C C C C C C ! ! ! ~ Z < * * * 1 ! C C C C C C C C Z Z ! V ^ y.t.t.u.4.g C C C C C C C C C C C C C C C C ~ t 8 9 9 9 ",
"7.7.7.7.,.o.O.O.+.+.+.+.+.+.P ! C C C C C C ! k w w e w ; - - * 1 L C C C C C C C C s 1 1 : D y.t.t.i.-.g C C C C C C C C C C C C C C C C ~ t 8 9 9 9 ",
"t.y.y.u.0.] ] %.] ] ] ] ] ] P V C C C C C Z ! d 7 8 9 8 = - - * 1 Z C C C C C C C C 1 & * @ A y.y.t.y.4.g C C C C C C C C C C C C C C C C C t 8 9 0 9 ",
"t.t.t.y.7.' ] ] ] ] ] ] ] ] P Z C C C C C C ~ d 7 9 9 9 = - - * 1 ! C C C C C C C C 1 * * % A y.t.t.y.4.g C C C C C C C C C C C C C C C Z ~ y 8 9 9 9 ",
"t.t.y.u.8.' ] ] ] ] ] ] ] ] P Z C C C C C C ! d 7 9 9 9 & & & % : Z V B b b c c c C : @ %   p y.y.y.i.4.g C C C C C C C C C C C C C C C Z Z t 8 9 9 9 ",
"q.q.0.q.2.O._ _ +.+.+.+.+.+.P Z C C C C C C ! d 8 0 9 9 2 u 4 4 i / / ^ ^ ^ ^ ^ / E J A p p H 9.9.9.r.$.x Z C C C C C C C C C C C C C C C C t 8 9 9 9 ",
"' ] ] [ ..V L L Z C C Z V Z C C C C C C C C ! s o - * * _ { ] ] :.y.y.y.y.y.y.y.y.y.y.y.y.y.e.b b C V b C C C C C C C C C C C C C C C C C ~ y 8 9 9 9 ",
"] ] ] ] o.V Z C C C C C C C C C C C C C C C ! h o - * * _ ] ] ' &.y.t.y.y.t.t.t.t.t.t.y.y.y.9.b C C C C C C C C C C C C C C C C C C C C C ~ t 8 0 9 9 ",
"] %.] ] o.V C C C C C C C C C C C C C C C C L h & - = * _ ] ] ] &.y.t.t.t.t.t.t.t.t.t.y.t.y.9.C C C C C C C C C C C C C C C C C C C C C C C t 8 9 0 9 ",
"' ' ' ' o.V Z Z C C C C C C C C C C C C C C ! r . * o X _ { { ] :.i.y.i.y.y.y.y.y.y.y.u.y.i.r.V C C C C C C C C C C C C C C C C C C C C C C y 8 9 9 9 ",
">.>.>.<.*.B C Z C C C C C C C C C C C C C C ! v r s s r } ....} X.4.3.4.4.,.2.<.2.2.4.3.4.-.$.b C C C C C C C C C C C C C C C C C C C C C ~ t 8 9 9 9 ",
"u.t.y.i.6.N Z Z C C C C C C C C C C C C C C C ! L ~ ! ! V V B V B g g g n R ] ` ' ] C g g g x L C C C C C C C C C C C C C C C C C C C C C Z t 8 9 9 9 ",
"t.t.t.u.5.N Z Z C C C C C C C C C C C C C C C C C L C C C C C C C C C C V } [ ] %.] Y b C C C C C C C C C C C C C C C C C C C C C C C C C ~ t 8 9 9 9 ",
"t.t.t.u.5.N J Z C C C C C C C C C C C C C C C C C C C C C C C C C C C C V } [ ] ] ] Y c C C C C C C C C C C C C C C C C C C C C C C C C C ~ t 8 9 9 9 ",
"t.t.t.u.6.x Z Z C C C C C C C C C C C C C C C C C C C C C C C C C C C C b | { ] ] { Y V C C C C C C C C C C C C C C C C C C C C C C C C C C t 8 9 9 9 ",
"t.t.y.y.5.N C C C C C C C C C C C C C C C C C C C C C C C C C C C C C C V I E E Y E L Z C C C C C C C C C C C C C C C C C C C C C C C C C ! t 8 9 9 9 ",
"t.t.y.y.5.x C C C C C C C C C C C C C C C C C C C C C C C C C C C C C C L V V V V V ! C C C C C C C C C C C C C C C C C C C C C C C C C C L t 8 9 9 9 ",
"t.t.t.y.6.x C C C C C C C C C C C C C C C C C C C C C C C C C C C C C C C C C C C C C C C C C C C C C C C C C C C C C C C C C C C C C C C L t 8 9 9 9 ",
"t.y.y.i.6.M C C C C C C C C C C C C C C C C C C C C C C C C C C C C C C C C C C C C C C C C C C C C C C C C C C C C C C C C C C C C C C C ~ t 8 9 9 9 ",
"0.q.q.w.,.N V C C C C C C C C C C C C C C C C C C C C C C C C C C C C C C C C C C C C C C C C C C C C C C C C C C C C C C C C C C C C C ! ! y 8 9 9 9 ",
"] ] ] { o.V Z C C C C C C C C C C C C C C C C C C C C C C C C C C C C C C C C C C C C C C C C C C C C C C C C C C C C C C C C C C C C C Z ! t 8 9 9 9 ",
"] ] ] ] o.V C C C C C C C C C C C C C C C C C C C C C C C C C C C C C C C C C C C C C C C C C C C C C C C C C C C C C C C C C C C C C C C ! t 8 9 9 9 ",
"%.] ] ] o.B C C C C C C C C C C C C C C C C C C C C C C C C C C C C C C C C C C C C C C C C C C C C C C C C C C C C C C C C C C C C C C C ! t 8 9 9 9 ",
"] ' ] ] o.V L V C C C C C C C C C C V V b V V V b V b V L V L C C C C C C C C C C C C C C C C C C C C ! ! ! ! ! L C C C C C C C C C C C C ! t 8 9 9 9 ",
"] %.] [ o.V J L C C C C C C C C C Z P W W W W W W E W R L L C C C C C C C C C C C C C C C C C C C C Z b j j j j b Z C C C C C C C C C C C ! t 8 9 9 9 ",
"] ] ] ] o.V Z Z C C C C C C C C L b E { ] { ] ] { ] [ { I V C C C C C C C C C C C C C C C C C C C C ! h . & & . v ! C C C C C C C C C C C ! t 8 9 0 9 ",
"@.] ] ] o.V Z Z C C C C C C C C L b Y { ] ] ] ] ] ] ] ] I V C C C C C C C C C C C C C C C C C C C C ! j o - - * v L C C C C C C C C C C C ! t 8 9 9 9 ",
"] [ ] [ o.V Z Z C C C C Z Z Z Z C V Y { %.] ] %.] ] ] %.I V ! b C C C C C C C L C C Z Z C C C C C Z ! j & - - * v ! L L C Z Z Z ! V ! Z C ~ t 8 9 9 9 ",
"] ] ] { O.V ~ Z ! C ! ! ~ ! ! ! ! Z W { ] { { { { ] { { Y ! ! ! ! ! ! ! ! L ! ! ~ L ! Z ! ! ! C C Z ! h o - * & v ! ! ! ! ! ! ! ! ! ! ! L ~ t 8 9 9 9 ",
"W W E W K 1 r r 2 r t t t t t t t t k J J J J J J J J J y t y t t t t t t t t t t t r 2 r 2 s Z C C ! j o - - * e t t t t t t t t t t t t t q 9 9 9 9 ",
"b b V V f X * * o 9 8 8 8 8 8 8 8 8 7 5 5 5 5 5 5 5 5 6 8 8 8 8 8 8 8 8 8 8 8 8 8 8 & * * o , C C C ! j O - - - 9 8 8 8 8 8 8 8 8 8 8 8 8 8 9 0 9 9 9 ",
"b Z Z ~ j & - - - 0 0 9 9 9 9 9 9 9 9 9 9 9 9 9 9 9 9 9 9 9 9 9 9 9 9 9 9 9 9 9 9 9 ; - * * < Z C C ! j o - - - 0 9 9 9 9 9 9 0 9 9 9 9 9 9 9 9 9 9 9 ",
"L J Z Z v & - - - 0 9 9 9 9 0 9 9 9 0 9 9 9 9 9 9 9 9 9 0 9 9 9 9 9 9 9 9 9 9 9 9 9 = - - = < ! C C Z j & - - - 0 9 9 9 9 9 9 0 9 9 9 9 9 9 9 9 9 9 0 ",
"Z Z Z ~ v & - - - 0 9 9 9 9 9 0 9 9 9 9 9 9 9 9 9 9 9 9 9 9 9 9 9 9 9 9 9 9 9 9 9 9 ; - - * < ! C C ~ j & - - - 0 9 9 9 9 9 9 9 9 9 9 0 9 9 9 9 9 9 9 "
};
